<svg version="1.1" id="Layer_1" xmlns="http://www.w3.org/2000/svg" xmlns:xlink="http://www.w3.org/1999/xlink" x="0" y="0" viewBox="0 0 910.64 910.64" xml:space="preserve"><style>.st32{enable-background:new}.st39{fill:#fff}.st105{fill:none;stroke:#fff;stroke-linecap:round;stroke-linejoin:round;stroke-miterlimit:10}.st106{fill:#ff6310}.st312{fill:#cee9f4}.st1569{fill:#b6bac9}.st1570{fill:#d7d9e2}.st1571{fill:#c5c8d8}.st1573{opacity:.2;fill:#48257c}.st1575{fill:#17171b}.st1785{fill:#f2b1b5}</style><g id="XMLID_431_"><path id="XMLID_433_" d="M602.41 555.26s-.28-55.31 27.3-120.76c27.57-65.45 83.43-100.04 113.13-104.87 29.7-4.82 60.5 31.28 22.63 74.37-37.87 43.1-110.42 100.4-131.24 187.42l-34.09 59.36 2.27-95.52z" fill="#00dfbf"/><linearGradient id="XMLID_106_" gradientUnits="userSpaceOnUse" x1="600.136" y1="489.991" x2="783.035" y2="489.991"><stop offset="0" stop-color="#7f8aa3"/><stop offset="1" stop-color="#a1a3a9"/></linearGradient><path id="XMLID_153_" d="M602.41 555.26s-.28-55.31 27.3-120.76c27.57-65.45 83.43-100.04 113.13-104.87 29.7-4.82 60.5 31.28 22.63 74.37-37.87 43.1-110.42 100.4-131.24 187.42l-34.09 59.36 2.27-95.52z" fill="url(#XMLID_106_)"/><path id="XMLID_437_" class="st105" d="M742.84 349.71c-61.02 36.33-131.79 131.69-141.69 258.41"/></g><g id="XMLID_425_"><path id="XMLID_426_" class="st106" d="M607.08 711.77c8.23-33.57 30.5-66.7 74.53-99.8 44.03-33.1 102.89-61.5 98.06-95.28-4.83-33.78-49.42-31.43-82.08-16.5s-89.36 76.35-97.45 150.6l6.94 60.98z"/><path id="XMLID_429_" class="st105" d="M748.76 506.13c-42.39 10.55-133.43 93.7-146.35 164.61"/></g><g id="XMLID_152_"><linearGradient id="XMLID_107_" gradientUnits="userSpaceOnUse" x1="606.704" y1="665.873" x2="748.96" y2="665.873"><stop offset="0" stop-color="#7f8aa3"/><stop offset="1" stop-color="#a1a3a9"/></linearGradient><path id="XMLID_155_" d="M606.7 717.68c11.95-17.72 31.94-32.17 64.54-41.97 32.61-9.8 72.81-13.7 77.22-34.32 4.41-20.63-21.95-28.78-44.08-27.1-22.13 1.69-68.13 25.2-88.69 66.53l-8.99 36.86z" fill="url(#XMLID_107_)"/><path id="XMLID_154_" class="st105" d="M732.8 628.66c-26.84-2.93-97.4 25.85-120.04 64.22"/></g><path class="st1569" d="M594.54 195.56l-1.47 518.81c0 .99-.08 1.9-.22 2.76l11.34 3.09c.22-1.28.33-2.66.34-4.14L606 197.27l-11.46-1.71z"/><path class="st1570" d="M605.99 197.27l18.45-10.72-1.47 518.81-18.45 10.73z"/><path class="st1571" d="M370.63 49.66l4.26-10.76 209.5 120.95-4.26 10.76z"/><path d="M580.13 170.61c7.97 4.6 14.43 15.79 14.4 24.95l-1.47 518.81c-.02 9.17-6.52 12.87-14.5 8.26l-209.5-120.96c-7.97-4.6-14.43-15.79-14.4-24.95l1.47-518.81c.02-9.17 6.52-12.87 14.5-8.26l209.5 120.96z" fill="#a8acbf"/><path class="st1571" d="M580.13 170.61l4.25-10.76c9.38 5.42 17.35 16.87 20.34 28.2l-11.03 1.36c-1.99-7.54-7.31-15.19-13.56-18.8z"/><path class="st1569" d="M593.69 189.41l11.03-1.36c.83 3.13 1.27 6.25 1.26 9.22l-11.45-1.71c.01-1.98-.28-4.06-.84-6.15z"/><path class="st1573" d="M599.05 174.91l18.45-10.72c2.99 4.9 5.19 10.31 6.25 15.59L605.3 190.5c-1.06-5.28-3.26-10.68-6.25-15.59zM605.3 190.5l18.45-10.72c.46 2.3.7 4.57.69 6.77l-18.45 10.72c.01-2.19-.23-4.47-.69-6.77z"/><linearGradient id="SVGID_1_" gradientUnits="userSpaceOnUse" x1="389.266" y1="66.051" x2="548.176" y2="678.661"><stop offset="0" stop-color="#439caa"/><stop offset=".121" stop-color="#377e9f"/><stop offset=".29" stop-color="#285c93"/><stop offset=".463" stop-color="#1d4189"/><stop offset=".638" stop-color="#142d82"/><stop offset=".815" stop-color="#10227e"/><stop offset="1" stop-color="#0e1e7d"/></linearGradient><path d="M593.55 714.38c0 2.75-.6 5.02-1.65 6.71-2.42 3.93-7.27 4.77-12.84 1.55l-115.99-66.97-93.51-53.99c-1.08-.62-2.14-1.37-3.16-2.23-6.45-5.37-11.28-14.8-11.25-22.72l.41-155.51 1.07-341.89c.02-9.17 6.52-12.87 14.5-8.26l209.5 120.95c6.14 3.54 11.38 10.98 13.44 18.4.62 2.21.97 4.43.96 6.53l-1.48 497.43z" fill="url(#SVGID_1_)"/><path class="st1575" d="M458.24 114.05l38.54 22.25c1.49.86 2.71.16 2.71-1.56s-1.22-3.83-2.71-4.69l-38.54-22.25c-1.49-.86-2.71-.16-2.71 1.56s1.22 3.83 2.71 4.69zM442.3 101.46c0 2.52 1.77 5.58 3.95 6.84 2.18 1.26 3.95.24 3.95-2.28s-1.77-5.58-3.95-6.84c-2.18-1.26-3.95-.24-3.95 2.28z"/><path class="st1570" d="M608.19 152.99l-8.09 4.7 8.09-4.7a34.482 34.482 0 00-5.36-3.86L393.34 28.17 374.89 38.9l209.5 120.96c1.85 1.07 3.64 2.37 5.36 3.86 3.53 3.07 6.71 6.95 9.31 11.2l18.45-10.72c-2.6-4.26-5.78-8.14-9.32-11.21z"/><path class="st1570" d="M584.39 159.85l18.45-10.72c11.97 6.91 21.64 23.67 21.61 37.42L606 197.27c.03-13.75-9.64-30.51-21.61-37.42z"/><path class="st1569" d="M369.06 601.68l4.21 5.84c-11.97-6.91-21.64-23.66-21.6-37.42l2.99 6.63c-.03 9.16 6.43 20.35 14.4 24.95z"/><path class="st1569" d="M578.57 722.64l4.21 5.84-209.51-120.96-4.21-5.84zM592.84 717.13l11.34 3.09c-.74 4.34-2.66 7.54-5.39 9.39l-9.55-6.22c1.83-1.23 3.11-3.36 3.6-6.26z"/><path class="st1569" d="M589.25 723.39l9.55 6.22c-3.98 2.69-9.69 2.52-16.02-1.13l-4.21-5.84c4.22 2.44 8.02 2.55 10.68.75z"/><defs><path id="SVGID_850_" d="M616.65 719.27l-18.45 10.72c3.89-2.26 6.3-7.07 6.32-13.9l18.45-10.72c-.02 6.83-2.43 11.64-6.32 13.9z"/></defs><use xlink:href="#SVGID_850_" overflow="visible" fill="#b6bac9"/><clipPath id="SVGID_2_"><use xlink:href="#SVGID_850_" overflow="visible"/></clipPath><path d="M604.52 716.09l18.45-10.72c-.02 6.83-2.43 11.64-6.32 13.9l-18.45 10.72c3.89-2.26 6.3-7.07 6.32-13.9z" opacity=".2" clip-path="url(#SVGID_2_)" fill="#48257c"/><g><path class="st1569" d="M354.66 576.73l-2.99-6.63 1.47-518.81 2.99 6.63z"/><path class="st1569" d="M356.13 57.92l-2.99-6.63c.01-2.17.26-4.14.72-5.89l2.75 8.59c-.31 1.17-.47 2.48-.48 3.93z"/><path class="st1569" d="M356.61 53.99l-2.75-8.6c1.07-4.04 3.27-6.9 6.26-8.36l.67 11.38c-2 .98-3.47 2.89-4.18 5.58z"/><path class="st1569" d="M360.78 48.42l-.67-11.38c2.73-1.34 6.1-1.5 9.84-.34l-2.61 11.49c-2.49-.77-4.74-.66-6.56.23z"/><path class="st1571" d="M367.34 48.19l2.61-11.49c1.59.49 3.24 1.22 4.93 2.2l-4.26 10.76c-1.12-.66-2.22-1.14-3.28-1.47z"/><path class="st1570" d="M359.46 37.38l18.45-10.72c3.94-2.29 9.4-1.97 15.42 1.51L374.89 38.9c-6.03-3.48-11.49-3.81-15.43-1.52z"/></g><g><defs><path id="SVGID_852_" d="M393.34 28.17L374.89 38.9c-6.02-3.48-11.48-3.8-15.42-1.51l18.45-10.72c1.65-.96 3.58-1.46 5.7-1.46 2.92-.01 6.22.95 9.72 2.96z"/></defs><clipPath id="SVGID_3_"><use xlink:href="#SVGID_852_" overflow="visible"/></clipPath><path d="M359.46 37.38l18.45-10.72c2.39-1.39 5.34-1.82 8.63-1.16l-18.45 10.72c-3.29-.65-6.24-.22-8.63 1.16z" clip-path="url(#SVGID_3_)" fill="#d7d9e2"/><path d="M368.09 36.22l18.45-10.72c2.14.42 4.42 1.3 6.79 2.67L374.89 38.9c-2.38-1.37-4.66-2.25-6.8-2.68z" clip-path="url(#SVGID_3_)" fill="#d7d9e2"/></g><g><g class="st32"><defs><path id="SVGID_854_" class="st32" d="M413.66 188.47l.14-49.96 106.53 61.5-.15 49.96z"/></defs><clipPath id="SVGID_4_"><use xlink:href="#SVGID_854_" overflow="visible"/></clipPath><g clip-path="url(#SVGID_4_)"><path class="st39" d="M444.76 157.13l-30.96-17.87-.03 9.59 10.51 6.06-.11 38.89 10.01 5.78.11-38.89 10.44 6.03.03-9.59M458.59 204.53l.09-30.43 4.16 2.4c2.08 1.2 3.85 2.73 5.33 4.59 1.47 1.86 2.71 4.33 3.7 7.41.99 3.07 1.48 6.08 1.47 9.01-.01 4.17-.9 7.29-2.65 9.36-1.75 2.08-4.43 2.09-8.03.01l-4.07-2.35m3.28-37.52l-12.88-7.44-.14 48.47 14.51 8.38c6.26 3.61 11.17 4.12 14.75 1.53s5.37-7.37 5.39-14.31c.02-5.52-.99-10.66-3.01-15.45-2.03-4.79-4.33-8.75-6.9-11.91-2.56-3.14-6.47-6.24-11.72-9.27M503.22 190.14c-4.67-2.7-8.38-3.35-11.12-1.97-2.73 1.38-4.1 4.24-4.12 8.54-.01 4.26 1.12 8.15 3.39 11.69 2.28 3.53 6.1 7.48 11.46 11.87 2.88 2.34 4.82 4.21 5.83 5.57 1.01 1.37 1.51 2.76 1.5 4.18 0 1.4-.56 2.28-1.68 2.64-1.11.37-2.8-.1-5.07-1.41-4.69-2.71-7.53-6.61-8.55-11.73l-9.16-2.91c.95 5.01 2.95 9.52 5.97 13.53 3.03 4.01 6.71 7.27 11.03 9.76 5.77 3.33 10.12 4.25 13.06 2.74 2.95-1.5 4.43-4.44 4.44-8.81.01-2.8-.67-5.72-2.03-8.77-1.36-3.05-3.04-5.66-5.03-7.83-2-2.17-5.14-5-9.43-8.47-2.57-2.08-4.22-3.73-4.95-4.96-.73-1.22-1.09-2.42-1.09-3.58.01-2.91 1.97-3.24 5.87-.99 3.66 2.11 6.05 5.42 7.17 9.9l8.42 1.63c-2.33-8.97-7.64-15.85-15.91-20.62"/></g></g></g><g><path class="st1570" d="M574.04 341.45L375.32 228.18l-.06-4.45 198.78 113.3z" id="XMLID_149_"/><path class="st1570" d="M573.63 360.77L374.91 247.49l-.06-4.44 198.78 113.29z" id="XMLID_148_"/><path class="st1570" d="M573.22 380.08L374.5 266.8l-.06-4.44 198.78 113.3z" id="XMLID_147_"/></g><linearGradient id="SVGID_5_" gradientUnits="userSpaceOnUse" x1="1088.866" y1="384.952" x2="1262.18" y2="384.952" gradientTransform="matrix(-1 0 0 1 1644.478 0)"><stop offset="0" stop-color="#ff9429"/><stop offset="1" stop-color="#f50"/></linearGradient><path d="M465.09 405.67c-10.16-8.29-17.54-22.93-17.54-34.83 0-6.01 1.88-10.41 5.3-12.38 3.42-1.97 8.16-1.4 13.37 1.6 7.28 4.2 14.08 12.4 18.19 21.93l5.8-2.5c-4.63-10.73-12.42-20.04-20.84-24.9-7.24-4.18-14.24-4.75-19.69-1.61-5.45 3.15-8.45 9.49-8.45 17.85 0 13.63 8.35 30.34 19.87 39.72l3.99-4.88zm13.11 12.06c-3.75 0-7.82-1.21-11.98-3.61l3.16-5.47c5.21 3.01 9.96 3.58 13.37 1.6 3.42-1.97 5.3-6.37 5.3-12.38 0-3.12-.51-6.49-1.52-10l6.07-1.75c1.17 4.08 1.77 8.03 1.77 11.74 0 8.36-3 14.71-8.45 17.85-2.33 1.35-4.94 2.02-7.72 2.02zm-89.58-79.05h-6.32c0-8.37 3-14.71 8.45-17.85 5.45-3.15 12.45-2.58 19.69 1.6 2.28 1.32 4.53 2.97 6.7 4.91l-4.21 4.71c-1.84-1.65-3.74-3.04-5.64-4.14-5.21-3.01-9.96-3.58-13.37-1.6-3.42 1.96-5.3 6.36-5.3 12.37zm46.81 27.03h-6.32c0-9.44-4.81-21.08-12.26-29.67l4.77-4.14c8.52 9.82 13.81 22.77 13.81 33.81zm-16.16 19.84c-3.77 0-7.86-1.21-11.99-3.6-11.87-6.85-22.17-22.51-24.49-37.22l6.24-.99c2.05 12.99 11.06 26.76 21.41 32.74 4.89 2.82 9.43 3.5 12.79 1.91 2.93-1.38 4.86-4.42 5.58-8.78l6.23 1.03c-1.06 6.4-4.29 11.19-9.11 13.46-2.04.97-4.28 1.45-6.66 1.45zm89.83 14.76l-6.23-1.02c.89-5.45 3.33-9.7 7.04-12.29l3.61 5.18c-2.28 1.59-3.81 4.4-4.42 8.13zm30.35 50.78c-3.75 0-7.82-1.21-11.98-3.61l3.16-5.47c5.21 3.01 9.96 3.58 13.37 1.6 3.42-1.97 5.3-6.37 5.3-12.38 0-13.66-10-30.97-21.83-37.8-3.76-2.17-7.35-3.08-10.35-2.64l-.93-6.25c4.43-.66 9.43.52 14.44 3.42 13.78 7.95 24.99 27.37 24.99 43.28 0 8.37-3 14.71-8.46 17.85-2.33 1.33-4.93 2-7.71 2zm-20.09-9.84c-10.09-9.79-16.87-24.69-16.87-37.05h6.32c0 10.6 6.15 23.98 14.96 32.52l-4.41 4.53z" fill="url(#SVGID_5_)"/><g><linearGradient id="SVGID_6_" gradientUnits="userSpaceOnUse" x1="386.144" y1="574.716" x2="422.318" y2="574.716" gradientTransform="matrix(1 .00539 -.00539 1 .447 -1.284)"><stop offset="0" stop-color="#7f8aa3"/><stop offset="1" stop-color="#a1a3a9"/></linearGradient><path fill="url(#SVGID_6_)" d="M383.69 544.96l36.03 21.05-.26 40.24-36.02-21.06z"/><path class="st106" d="M523.38 596.8l36.29 20.27-.87 70.38-36.02-21.06zM429.51 542.85l-.4 69.05 36.02 21.06.41-69.05z"/><linearGradient id="SVGID_7_" gradientUnits="userSpaceOnUse" x1="476.364" y1="588.984" x2="513.086" y2="588.984"><stop offset="0" stop-color="#7f8aa3"/><stop offset="1" stop-color="#a1a3a9"/></linearGradient><path fill="url(#SVGID_7_)" d="M477.06 517.01l36.03 21.06-.7 122.88-36.03-21.06z"/></g><g id="XMLID_145_"><path id="XMLID_151_" class="st1570" d="M428.18 411.83v6.82l136.64 79.39v-6.78z"/><path id="XMLID_150_" class="st1570" d="M428.18 430.3v6.82l136.64 79.39v-6.78z"/><path id="XMLID_146_" class="st1570" d="M473.01 476.03v6.82l91.81 53.05v-6.77z"/></g><g><g id="XMLID_500_"><path id="XMLID_516_" class="st106" d="M257.52 544.37c-4.99 0-9.84-2.59-12.52-7.22-3.99-6.91-1.62-15.74 5.28-19.72l68.27-39.42 14.44 25.01-68.27 39.42a14.36 14.36 0 01-7.2 1.93z"/><ellipse id="XMLID_515_" transform="rotate(-33.444 326.364 490.223)" cx="326.37" cy="490.22" rx="8.39" ry="14.53" fill="#f79429"/><g id="XMLID_513_"><linearGradient id="XMLID_108_" gradientUnits="userSpaceOnUse" x1="323.2" y1="483.329" x2="350.812" y2="483.329"><stop offset="0" stop-color="#7f8aa3"/><stop offset="1" stop-color="#a1a3a9"/></linearGradient><path id="XMLID_514_" d="M324.17 491.3c-1.99-3.45-.81-7.87 2.64-9.86l16.78-9.69 7.22 12.5-16.78 9.69c-3.45 2-7.87.81-9.86-2.64z" fill="url(#XMLID_108_)"/></g><path id="XMLID_511_" d="M251.97 529.09c-1.12 0-2.2-.58-2.8-1.62a3.231 3.231 0 011.18-4.41l55.92-32.7c1.55-.89 5.35 2.79 3.23 5.6l-55.92 32.7c-.51.29-1.06.43-1.61.43z" opacity=".3" fill="#fff"/><g id="XMLID_103_" opacity=".4"><defs><ellipse id="SVGID_859_" transform="rotate(-30 393.15 440.099)" cx="393.18" cy="440.09" rx="58.27" ry="100.93"/></defs><clipPath id="SVGID_8_"><use xlink:href="#SVGID_859_" overflow="visible"/></clipPath><path clip-path="url(#SVGID_8_)" fill="#fff" d="M321.81 335.02h142.73v210.14H321.81z"/><path d="M440.03 526.28c-28.93 16.91-74.59-7.35-101.97-54.2-6.85-11.71-11.9-23.73-15.19-35.42-1.64-5.85-2.84-11.62-3.59-17.23h2.08v-16.29h-3.02c.51-20.89 8.05-38.04 22.52-46.5 28.93-16.91 74.59 7.35 101.97 54.2 13.69 23.42 20.23 48.06 19.72 68.95-.51 20.88-8.06 38.03-22.52 46.49z" clip-path="url(#SVGID_8_)" fill="#fff"/><path d="M439.97 526.18c-28.9 16.89-74.5-7.34-101.85-54.14-6.84-11.7-11.89-23.7-15.17-35.38-3.28-11.68-4.78-23.05-4.53-33.49.51-20.87 8.04-38 22.49-46.44 28.9-16.89 74.5 7.34 101.85 54.14 13.68 23.4 20.2 48 19.7 68.87-.51 20.86-8.04 37.99-22.49 46.44z" clip-path="url(#SVGID_8_)" fill="#fff"/><path d="M439.91 526.08c-28.86 16.87-74.41-7.33-101.73-54.07-6.83-11.68-11.88-23.67-15.15-35.34-3.27-11.67-4.78-23.02-4.53-33.45.5-20.84 8.03-37.95 22.46-46.39 28.86-16.87 74.41 7.33 101.73 54.07 13.66 23.37 20.18 47.94 19.68 68.79-.5 20.84-8.03 37.95-22.46 46.39z" clip-path="url(#SVGID_8_)" fill="#fff"/><path d="M439.85 525.98c-28.83 16.85-74.32-7.33-101.61-54.01-6.82-11.67-11.86-23.64-15.13-35.3-3.27-11.66-4.77-23-4.52-33.41.5-20.82 8.02-37.91 22.44-46.33 28.83-16.85 74.32 7.33 101.61 54.01 13.64 23.34 20.16 47.89 19.65 68.7s-8.03 37.91-22.44 46.34z" clip-path="url(#SVGID_8_)" fill="#fff"/><path d="M439.79 525.88c-28.79 16.83-74.23-7.32-101.49-53.94-13.63-23.31-20.13-47.83-19.63-68.62.5-20.79 8.01-37.86 22.41-46.28 28.79-16.83 74.23 7.32 101.49 53.94 13.63 23.31 20.13 47.83 19.63 68.62-.5 20.79-8.01 37.86-22.41 46.28z" clip-path="url(#SVGID_8_)" fill="#fff"/><path d="M439.73 525.78c-28.76 16.81-74.14-7.31-101.37-53.88-13.61-23.28-20.11-47.77-19.6-68.54.5-20.77 8-37.82 22.38-46.22 28.76-16.81 74.14 7.31 101.37 53.88 13.61 23.28 20.11 47.77 19.6 68.54-.5 20.76-8 37.81-22.38 46.22z" clip-path="url(#SVGID_8_)" fill="#fff"/><path d="M439.67 525.68c-28.72 16.79-74.05-7.3-101.25-53.81-13.6-23.26-20.08-47.71-19.58-68.46s7.99-37.77 22.36-46.17c28.72-16.79 74.05 7.3 101.25 53.81 13.6 23.26 20.08 47.71 19.58 68.46-.5 20.74-8 37.77-22.36 46.17z" clip-path="url(#SVGID_8_)" fill="#fff"/><path d="M439.61 525.58c-28.69 16.77-73.97-7.29-101.13-53.75-13.58-23.23-20.06-47.66-19.56-68.38s7.98-37.73 22.33-46.11c28.69-16.77 73.97 7.29 101.13 53.75 13.58 23.23 20.06 47.66 19.56 68.38-.5 20.71-7.98 37.72-22.33 46.11z" clip-path="url(#SVGID_8_)" fill="#fff"/><path d="M439.55 525.47c-28.66 16.75-73.88-7.28-101-53.68-13.56-23.2-20.04-47.6-19.53-68.29.5-20.69 7.97-37.68 22.3-46.06 28.66-16.75 73.88 7.28 101 53.68 13.56 23.2 20.04 47.6 19.53 68.29-.49 20.7-7.97 37.69-22.3 46.06z" clip-path="url(#SVGID_8_)" fill="#fefeff"/><path d="M439.5 525.37c-28.62 16.73-73.79-7.27-100.88-53.62-13.55-23.17-20.01-47.54-19.51-68.21.5-20.67 7.97-37.64 22.28-46 28.62-16.73 73.79 7.27 100.88 53.62 13.55 23.17 20.01 47.54 19.51 68.21-.51 20.67-7.97 37.64-22.28 46z" clip-path="url(#SVGID_8_)" fill="#fefeff"/><path d="M439.44 525.27c-28.59 16.71-73.7-7.26-100.76-53.55-13.53-23.15-19.99-47.49-19.49-68.13.5-20.64 7.96-37.59 22.25-45.95 28.59-16.71 73.7 7.26 100.76 53.55 13.53 23.15 19.99 47.49 19.49 68.13s-7.96 37.6-22.25 45.95z" clip-path="url(#SVGID_8_)" fill="#fefefe"/><path d="M439.38 525.17c-28.55 16.69-73.61-7.26-100.64-53.49-13.51-23.12-19.96-47.43-19.46-68.05.5-20.62 7.95-37.55 22.22-45.89 28.55-16.69 73.61 7.26 100.64 53.49 13.51 23.12 19.96 47.43 19.46 68.05-.5 20.62-7.95 37.55-22.22 45.89z" clip-path="url(#SVGID_8_)" fill="#fefefe"/><path d="M439.32 525.07c-28.52 16.67-73.52-7.25-100.52-53.43-13.5-23.09-19.94-47.37-19.44-67.97.5-20.59 7.94-37.5 22.2-45.84 28.52-16.67 73.52 7.25 100.52 53.43 13.5 23.09 19.94 47.37 19.44 67.97s-7.94 37.5-22.2 45.84z" clip-path="url(#SVGID_8_)" fill="#fefefe"/><path d="M439.26 524.97c-28.48 16.65-73.43-7.24-100.4-53.36-13.48-23.06-19.92-47.31-19.42-67.88.5-20.57 7.93-37.45 22.17-45.78 28.48-16.65 73.43 7.24 100.4 53.36 13.48 23.06 19.92 47.31 19.42 67.88-.5 20.57-7.93 37.45-22.17 45.78z" clip-path="url(#SVGID_8_)" fill="#fefefe"/><path d="M439.2 524.87c-28.45 16.63-73.34-7.23-100.28-53.3-13.47-23.03-19.89-47.26-19.39-67.8s7.92-37.41 22.14-45.73c28.45-16.63 73.34 7.23 100.28 53.3 13.47 23.03 19.89 47.26 19.39 67.8-.49 20.55-7.91 37.41-22.14 45.73z" clip-path="url(#SVGID_8_)" fill="#fdfdfe"/><path d="M439.14 524.77c-28.42 16.61-73.26-7.22-100.16-53.23-13.45-23.01-19.87-47.2-19.37-67.72.5-20.52 7.91-37.36 22.12-45.67 28.42-16.61 73.26 7.22 100.16 53.23 13.45 23.01 19.87 47.2 19.37 67.72-.5 20.52-7.91 37.36-22.12 45.67z" clip-path="url(#SVGID_8_)" fill="#fdfdfe"/><path d="M439.08 524.67c-28.38 16.59-73.17-7.21-100.03-53.17-13.43-22.98-19.84-47.14-19.35-67.64.5-20.49 7.9-37.32 22.09-45.61 28.38-16.59 73.17 7.21 100.03 53.17 13.43 22.98 19.84 47.14 19.35 67.64-.5 20.49-7.9 37.31-22.09 45.61z" clip-path="url(#SVGID_8_)" fill="#fdfdfe"/><path d="M439.02 524.57c-28.35 16.57-73.08-7.2-99.91-53.1-13.42-22.95-19.82-47.09-19.32-67.56s7.89-37.27 22.06-45.56c28.35-16.57 73.08 7.2 99.91 53.1 13.42 22.95 19.82 47.09 19.32 67.56-.49 20.47-7.88 37.27-22.06 45.56z" clip-path="url(#SVGID_8_)" fill="#fdfdfe"/><path d="M438.96 524.47c-28.31 16.55-72.99-7.19-99.79-53.04-13.4-22.92-19.79-47.03-19.3-67.47.5-20.44 7.88-37.23 22.04-45.5 28.31-16.55 72.99 7.19 99.79 53.04 13.4 22.92 19.79 47.03 19.3 67.47-.5 20.44-7.88 37.22-22.04 45.5z" clip-path="url(#SVGID_8_)" fill="#fcfcfd"/><path d="M438.91 524.36c-28.28 16.53-72.9-7.19-99.67-52.97-13.38-22.89-19.77-46.97-19.28-67.39.49-20.42 7.87-37.18 22.01-45.45 28.28-16.53 72.9 7.19 99.67 52.97 13.38 22.89 19.77 46.97 19.28 67.39-.5 20.43-7.88 37.19-22.01 45.45z" clip-path="url(#SVGID_8_)" fill="#fcfcfd"/><path d="M438.85 524.26c-28.24 16.51-72.81-7.18-99.55-52.91-13.37-22.87-19.75-46.91-19.25-67.31.49-20.4 7.86-37.14 21.98-45.39 28.24-16.51 72.81 7.18 99.55 52.91 13.37 22.87 19.75 46.91 19.25 67.31-.5 20.4-7.86 37.14-21.98 45.39z" clip-path="url(#SVGID_8_)" fill="#fcfcfd"/><path d="M438.79 524.16c-28.21 16.49-72.72-7.17-99.43-52.85-13.35-22.84-19.72-46.86-19.23-67.23.49-20.37 7.85-37.09 21.95-45.34 28.21-16.49 72.72 7.17 99.43 52.85 26.71 45.68 25.49 96.08-2.72 112.57z" clip-path="url(#SVGID_8_)" fill="#fbfcfd"/><path d="M438.73 524.06c-28.17 16.47-72.64-7.16-99.31-52.78-13.34-22.81-19.7-46.8-19.21-67.15.49-20.35 7.84-37.05 21.93-45.28 28.17-16.47 72.64 7.16 99.31 52.78 26.67 45.62 25.45 95.96-2.72 112.43z" clip-path="url(#SVGID_8_)" fill="#fbfbfd"/><path d="M438.67 523.96c-28.14 16.45-72.55-7.15-99.18-52.72-13.32-22.78-19.67-46.74-19.18-67.06.49-20.32 7.83-37 21.9-45.23 28.14-16.45 72.55 7.15 99.18 52.72 26.64 45.57 25.42 95.84-2.72 112.29z" clip-path="url(#SVGID_8_)" fill="#fbfbfd"/><path d="M438.61 523.86c-28.11 16.43-72.46-7.14-99.06-52.65-13.3-22.75-19.65-46.69-19.16-66.98.49-20.3 7.82-36.96 21.87-45.17 28.11-16.43 72.46 7.14 99.06 52.65 26.61 45.51 25.4 95.72-2.71 112.15z" clip-path="url(#SVGID_8_)" fill="#fafbfc"/><path d="M438.55 523.76c-28.07 16.41-72.37-7.13-98.94-52.59-13.29-22.73-19.63-46.63-19.14-66.9.49-20.27 7.81-36.91 21.85-45.12 28.07-16.41 72.37 7.13 98.94 52.59 26.58 45.46 25.36 95.61-2.71 112.02z" clip-path="url(#SVGID_8_)" fill="#fafafc"/><path d="M438.49 523.66c-28.04 16.39-72.28-7.12-98.82-52.52-13.27-22.7-19.6-46.57-19.11-66.82.49-20.25 7.8-36.87 21.82-45.06 28.04-16.39 72.28 7.12 98.82 52.52 26.54 45.4 25.33 95.49-2.71 111.88z" clip-path="url(#SVGID_8_)" fill="#fafafc"/><path d="M438.43 523.56c-28 16.37-72.19-7.12-98.7-52.46-13.25-22.67-19.58-46.51-19.09-66.74.49-20.22 7.79-36.82 21.79-45.01 28-16.37 72.19 7.12 98.7 52.46 26.52 45.35 25.31 95.38-2.7 111.75z" clip-path="url(#SVGID_8_)" fill="#f9fafc"/><path d="M438.37 523.46c-27.97 16.35-72.1-7.11-98.58-52.39-13.24-22.64-19.55-46.46-19.07-66.65s7.78-36.78 21.77-44.95c27.97-16.35 72.1 7.11 98.58 52.39s25.27 95.25-2.7 111.6z" clip-path="url(#SVGID_8_)" fill="#f9f9fb"/><path d="M438.32 523.36c-27.93 16.33-72.01-7.1-98.46-52.33-13.22-22.62-19.53-46.4-19.04-66.57s7.77-36.73 21.74-44.9c27.93-16.33 72.01 7.1 98.46 52.33s25.23 95.14-2.7 111.47z" clip-path="url(#SVGID_8_)" fill="#f9f9fb"/><path d="M438.26 523.25c-27.9 16.31-71.93-7.09-98.34-52.27-13.21-22.59-19.51-46.34-19.02-66.49.49-20.15 7.76-36.69 21.71-44.84 27.9-16.31 71.93 7.09 98.34 52.27s25.21 95.02-2.69 111.33z" clip-path="url(#SVGID_8_)" fill="#f8f8fb"/><path d="M438.2 523.15c-27.86 16.29-71.84-7.08-98.21-52.2-13.19-22.56-19.48-46.29-18.99-66.41.49-20.12 7.75-36.64 21.69-44.78 27.86-16.29 71.84 7.08 98.21 52.2 26.37 45.12 25.16 94.9-2.7 111.19z" clip-path="url(#SVGID_8_)" fill="#f8f8fb"/><path d="M438.14 523.05c-27.83 16.27-71.75-7.07-98.09-52.14-13.17-22.53-19.46-46.23-18.97-66.33.49-20.1 7.75-36.59 21.66-44.73 27.83-16.27 71.75 7.07 98.09 52.14 26.34 45.07 25.14 94.79-2.69 111.06z" clip-path="url(#SVGID_8_)" fill="#f7f7fa"/><path d="M438.08 522.95c-27.8 16.25-71.66-7.06-97.97-52.07-13.16-22.5-19.43-46.17-18.95-66.24.49-20.07 7.74-36.55 21.63-44.67 27.8-16.25 71.66 7.06 97.97 52.07s25.12 94.66-2.68 110.91z" clip-path="url(#SVGID_8_)" fill="#f7f7fa"/><path d="M438.02 522.85c-27.76 16.23-71.57-7.05-97.85-52.01-13.14-22.48-19.41-46.11-18.92-66.16.49-20.05 7.73-36.5 21.61-44.62 27.76-16.23 71.57 7.05 97.85 52.01 26.27 44.95 25.07 94.55-2.69 110.78z" clip-path="url(#SVGID_8_)" fill="#f6f7fa"/><path d="M437.96 522.75c-27.73 16.21-71.48-7.05-97.73-51.94-13.12-22.45-19.39-46.06-18.9-66.08.48-20.02 7.72-36.46 21.58-44.56 27.73-16.21 71.48 7.05 97.73 51.94s25.05 94.43-2.68 110.64z" clip-path="url(#SVGID_8_)" fill="#f6f6fa"/><path d="M437.9 522.65c-27.69 16.19-71.39-7.04-97.61-51.88-13.11-22.42-19.36-46-18.88-66 .48-20 7.71-36.41 21.55-44.51 27.69-16.19 71.39 7.04 97.61 51.88s25.02 94.32-2.67 110.51z" clip-path="url(#SVGID_8_)" fill="#f5f6f9"/><path d="M437.84 522.55c-27.66 16.17-71.3-7.03-97.49-51.81-13.09-22.39-19.34-45.94-18.85-65.92.48-19.97 7.7-36.37 21.53-44.45 27.66-16.17 71.3 7.03 97.49 51.81 26.18 44.79 24.98 94.2-2.68 110.37z" clip-path="url(#SVGID_8_)" fill="#f5f5f9"/><path d="M437.78 522.45c-27.62 16.15-71.22-7.02-97.36-51.75-13.07-22.36-19.31-45.89-18.83-65.83.48-19.95 7.69-36.32 21.5-44.4 27.62-16.15 71.22 7.02 97.36 51.75 26.15 44.73 24.96 94.08-2.67 110.23z" clip-path="url(#SVGID_8_)" fill="#f4f5f9"/><path d="M437.73 522.35c-27.59 16.13-71.13-7.01-97.24-51.68-13.06-22.34-19.29-45.83-18.81-65.75.48-19.92 7.68-36.28 21.47-44.34 27.59-16.13 71.13 7.01 97.24 51.68 26.12 44.67 24.92 93.96-2.66 110.09z" clip-path="url(#SVGID_8_)" fill="#f4f4f8"/><path d="M437.67 522.25c-27.55 16.11-71.04-7-97.12-51.62-13.04-22.31-19.27-45.77-18.78-65.67.48-19.9 7.67-36.23 21.45-44.29 27.55-16.11 71.04 7 97.12 51.62s24.88 93.85-2.67 109.96z" clip-path="url(#SVGID_8_)" fill="#f3f4f8"/><path d="M437.61 522.14c-27.52 16.09-70.95-6.99-97-51.56-13.03-22.28-19.24-45.71-18.76-65.59.48-19.87 7.66-36.19 21.42-44.23 27.52-16.09 70.95 6.99 97 51.56s24.86 93.74-2.66 109.82z" clip-path="url(#SVGID_8_)" fill="#f3f3f8"/><path d="M437.55 522.04c-27.49 16.07-70.86-6.98-96.88-51.49-13.01-22.25-19.22-45.66-18.74-65.5.48-19.85 7.65-36.14 21.39-44.18 27.49-16.07 70.86 6.98 96.88 51.49s24.83 93.61-2.65 109.68z" clip-path="url(#SVGID_8_)" fill="#f2f3f7"/><path d="M437.49 521.94c-27.45 16.05-70.77-6.98-96.76-51.43-12.99-22.23-19.19-45.6-18.71-65.42.48-19.82 7.64-36.1 21.37-44.12 27.45-16.05 70.77 6.98 96.76 51.43s24.79 93.49-2.66 109.54z" clip-path="url(#SVGID_8_)" fill="#f1f2f7"/><path d="M437.43 521.84c-27.42 16.03-70.68-6.97-96.64-51.36-12.98-22.2-19.17-45.54-18.69-65.34.48-19.8 7.63-36.05 21.34-44.07 27.42-16.03 70.68 6.97 96.64 51.36s24.77 93.38-2.65 109.41z" clip-path="url(#SVGID_8_)" fill="#f1f1f7"/><path d="M437.37 521.74c-27.38 16.01-70.59-6.96-96.52-51.3-12.96-22.17-19.14-45.48-18.67-65.26.48-19.77 7.62-36.01 21.31-44.01 27.38-16.01 70.59 6.96 96.52 51.3s24.74 93.26-2.64 109.27z" clip-path="url(#SVGID_8_)" fill="#f0f1f6"/><path d="M437.31 521.64c-27.35 15.99-70.51-6.95-96.39-51.23-12.94-22.14-19.12-45.43-18.64-65.18.48-19.75 7.61-35.96 21.29-43.96 27.35-15.99 70.51 6.95 96.39 51.23s24.7 93.15-2.65 109.14z" clip-path="url(#SVGID_8_)" fill="#f0f0f6"/><path d="M437.25 521.54c-27.31 15.97-70.42-6.94-96.27-51.17-12.93-22.11-19.1-45.37-18.62-65.09.48-19.72 7.6-35.92 21.26-43.9 27.31-15.97 70.42 6.94 96.27 51.17 25.86 44.22 24.68 93.02-2.64 108.99z" clip-path="url(#SVGID_8_)" fill="#eff0f5"/><path d="M437.19 521.44c-27.28 15.95-70.33-6.93-96.15-51.1-12.91-22.09-19.07-45.31-18.6-65.01.48-19.7 7.59-35.87 21.23-43.84 27.28-15.95 70.33 6.93 96.15 51.1 25.83 44.16 24.65 92.9-2.63 108.85z" clip-path="url(#SVGID_8_)" fill="#eeeff5"/><path d="M437.14 521.34c-27.24 15.93-70.24-6.92-96.03-51.04-12.9-22.06-19.05-45.26-18.57-64.93.48-19.67 7.58-35.83 21.2-43.79 27.24-15.93 70.24 6.92 96.03 51.04 25.79 44.11 24.61 92.79-2.63 108.72z" clip-path="url(#SVGID_8_)" fill="#eeeef5"/><path d="M437.08 521.24c-27.21 15.91-70.15-6.91-95.91-50.98-12.88-22.03-19.02-45.2-18.55-64.85.48-19.65 7.57-35.78 21.18-43.73 27.21-15.91 70.15 6.91 95.91 50.98 25.75 44.05 24.58 92.67-2.63 108.58z" clip-path="url(#SVGID_8_)" fill="#edeef4"/><path d="M437.02 521.14c-27.18 15.89-70.06-6.91-95.79-50.91-12.86-22-19-45.14-18.53-64.77.48-19.62 7.56-35.73 21.15-43.68 27.18-15.89 70.06 6.91 95.79 50.91 25.73 44.01 24.55 92.56-2.62 108.45z" clip-path="url(#SVGID_8_)" fill="#ecedf4"/><path d="M436.96 521.03c-27.14 15.87-69.97-6.9-95.67-50.85-12.85-21.97-18.98-45.08-18.5-64.68.47-19.6 7.55-35.69 21.12-43.62 27.14-15.87 69.97 6.9 95.67 50.85 25.69 43.95 24.52 92.44-2.62 108.3z" clip-path="url(#SVGID_8_)" fill="#ececf3"/><path d="M436.9 520.93c-27.11 15.85-69.88-6.89-95.55-50.78-12.83-21.95-18.95-45.03-18.48-64.6.47-19.57 7.54-35.64 21.1-43.57 27.11-15.85 69.88 6.89 95.55 50.78 25.66 43.9 24.49 92.33-2.62 108.17z" clip-path="url(#SVGID_8_)" fill="#ebecf3"/><path d="M436.84 520.83c-27.07 15.83-69.8-6.88-95.42-50.72-12.81-21.92-18.93-44.97-18.46-64.52.47-19.55 7.53-35.6 21.07-43.51 27.07-15.83 69.8 6.88 95.42 50.72 25.63 43.84 24.46 92.21-2.61 108.03z" clip-path="url(#SVGID_8_)" fill="#eaebf3"/><path d="M436.78 520.73c-27.04 15.81-69.71-6.87-95.3-50.65-12.8-21.89-18.9-44.91-18.43-64.44.47-19.53 7.52-35.55 21.04-43.46 27.04-15.81 69.71 6.87 95.3 50.65 25.6 43.79 24.43 92.09-2.61 107.9z" clip-path="url(#SVGID_8_)" fill="#e9eaf2"/><path d="M436.72 520.63c-27 15.79-69.62-6.86-95.18-50.59-12.78-21.86-18.88-44.86-18.41-64.36.47-19.5 7.52-35.51 21.02-43.4 27-15.79 69.62 6.86 95.18 50.59 25.56 43.73 24.4 91.97-2.61 107.76z" clip-path="url(#SVGID_8_)" fill="#e9eaf2"/><path d="M436.66 520.53c-26.97 15.77-69.53-6.85-95.06-50.52-12.77-21.84-18.86-44.8-18.38-64.27.47-19.48 7.51-35.46 20.99-43.35 26.97-15.77 69.53 6.85 95.06 50.52s24.36 91.85-2.61 107.62z" clip-path="url(#SVGID_8_)" fill="#e8e9f1"/><path d="M436.6 520.43c-26.94 15.75-69.44-6.84-94.94-50.46-12.75-21.81-18.83-44.74-18.36-64.19.47-19.45 7.5-35.42 20.96-43.29 26.94-15.75 69.44 6.84 94.94 50.46 25.5 43.61 24.34 91.73-2.6 107.48z" clip-path="url(#SVGID_8_)" fill="#e7e8f1"/><path d="M436.55 520.33c-26.9 15.73-69.35-6.84-94.82-50.4-12.73-21.78-18.81-44.68-18.34-64.11.47-19.43 7.49-35.37 20.94-43.24 26.9-15.73 69.35 6.84 94.82 50.4 25.46 43.56 24.3 91.62-2.6 107.35z" clip-path="url(#SVGID_8_)" fill="#e6e7f0"/><path d="M436.49 520.23c-26.87 15.71-69.26-6.83-94.7-50.33-12.72-21.75-18.78-44.63-18.31-64.03.47-19.4 7.48-35.33 20.91-43.18 26.87-15.71 69.26 6.83 94.7 50.33 25.43 43.5 24.26 91.5-2.6 107.21z" clip-path="url(#SVGID_8_)" fill="#e6e7f0"/><path d="M436.43 520.13c-26.83 15.69-69.17-6.82-94.57-50.27-12.7-21.72-18.76-44.57-18.29-63.95.47-19.38 7.47-35.28 20.88-43.13 26.83-15.69 69.17 6.82 94.57 50.27 25.4 43.45 24.24 91.39-2.59 107.08z" clip-path="url(#SVGID_8_)" fill="#e5e6ef"/><path d="M436.37 520.03c-26.8 15.67-69.09-6.81-94.45-50.2-12.68-21.7-18.74-44.51-18.27-63.86.47-19.35 7.46-35.24 20.86-43.07 26.8-15.67 69.09 6.81 94.45 50.2 25.37 43.38 24.21 91.26-2.59 106.93z" clip-path="url(#SVGID_8_)" fill="#e4e5ef"/><path d="M436.31 519.92c-26.76 15.65-69-6.8-94.33-50.14-12.67-21.67-18.71-44.46-18.24-63.78.47-19.33 7.45-35.19 20.83-43.01 26.76-15.65 69 6.8 94.33 50.14 25.33 43.33 24.17 91.15-2.59 106.79z" clip-path="url(#SVGID_8_)" fill="#e3e4ee"/><path d="M436.25 519.82c-26.73 15.63-68.91-6.79-94.21-50.07-12.65-21.64-18.69-44.4-18.22-63.7.47-19.3 7.44-35.15 20.8-42.96 26.73-15.63 68.91 6.79 94.21 50.07 25.31 43.28 24.15 91.04-2.58 106.66z" clip-path="url(#SVGID_8_)" fill="#e2e3ee"/><path d="M436.19 519.72c-26.69 15.61-68.82-6.78-94.09-50.01-12.63-21.61-18.66-44.34-18.2-63.62s7.43-35.1 20.78-42.9c26.69-15.61 68.82 6.78 94.09 50.01 25.27 43.22 24.12 90.92-2.58 106.52z" clip-path="url(#SVGID_8_)" fill="#e2e3ed"/><path d="M436.13 519.62c-26.66 15.59-68.73-6.77-93.97-49.94-12.62-21.58-18.64-44.28-18.17-63.54.47-19.25 7.42-35.06 20.75-42.85 26.66-15.59 68.73 6.77 93.97 49.94 25.24 43.18 24.08 90.81-2.58 106.39z" clip-path="url(#SVGID_8_)" fill="#e1e2ed"/><path d="M436.07 519.52c-26.63 15.57-68.64-6.77-93.85-49.88-12.6-21.56-18.62-44.23-18.15-63.45.47-19.23 7.41-35.01 20.72-42.79 26.63-15.57 68.64 6.77 93.85 49.88s24.06 90.68-2.57 106.24z" clip-path="url(#SVGID_8_)" fill="#e0e1ec"/><path d="M436.01 519.42c-26.59 15.55-68.55-6.76-93.73-49.82-12.59-21.53-18.59-44.17-18.13-63.37.46-19.2 7.4-34.97 20.7-42.74 26.59-15.55 68.55 6.76 93.73 49.81 25.18 43.07 24.03 90.57-2.57 106.12z" clip-path="url(#SVGID_8_)" fill="#dfe0ec"/><path d="M435.96 519.32c-26.56 15.53-68.46-6.75-93.6-49.75-12.57-21.5-18.57-44.11-18.1-63.29.46-19.18 7.39-34.92 20.67-42.68 26.56-15.53 68.46 6.75 93.6 49.75 25.13 43 23.98 90.44-2.57 105.97z" clip-path="url(#SVGID_8_)" fill="#dedfeb"/><path d="M435.9 519.22c-26.52 15.51-68.38-6.74-93.48-49.69-12.55-21.47-18.54-44.06-18.08-63.21.46-19.15 7.38-34.87 20.64-42.63 26.52-15.51 68.38 6.74 93.48 49.69 25.11 42.95 23.96 90.33-2.56 105.84z" clip-path="url(#SVGID_8_)" fill="#dddeeb"/><path d="M435.84 519.12c-26.49 15.49-68.29-6.73-93.36-49.62-12.54-21.45-18.52-44-18.06-63.13.46-19.13 7.37-34.83 20.62-42.57 26.49-15.49 68.29 6.73 93.36 49.62s23.93 90.21-2.56 105.7z" clip-path="url(#SVGID_8_)" fill="#dcdeea"/><path d="M435.78 519.02c-26.45 15.47-68.2-6.72-93.24-49.56-12.52-21.42-18.5-43.94-18.03-63.04s7.36-34.78 20.59-42.52c26.45-15.47 68.2 6.72 93.24 49.56 25.04 42.83 23.89 90.09-2.56 105.56z" clip-path="url(#SVGID_8_)" fill="#dbddea"/><path d="M435.72 518.92c-26.42 15.44-68.11-6.71-93.12-49.49-12.5-21.39-18.47-43.88-18.01-62.96.46-19.08 7.35-34.74 20.56-42.46 26.42-15.44 68.11 6.71 93.12 49.49 25.01 42.77 23.87 89.97-2.55 105.42z" clip-path="url(#SVGID_8_)" fill="#dadce9"/><path d="M435.66 518.81c-26.38 15.42-68.02-6.71-93-49.43-12.49-21.36-18.45-43.83-17.99-62.88.46-19.05 7.34-34.69 20.54-42.41 26.38-15.42 68.02 6.7 93 49.43 24.98 42.73 23.84 89.87-2.55 105.29z" clip-path="url(#SVGID_8_)" fill="#d9dbe9"/><path d="M435.6 518.71c-26.35 15.4-67.93-6.7-92.88-49.36-12.47-21.33-18.42-43.77-17.96-62.8.46-19.03 7.33-34.65 20.51-42.35 26.35-15.4 67.93 6.7 92.88 49.36 24.94 42.67 23.8 89.75-2.55 105.15z" clip-path="url(#SVGID_8_)" fill="#d9dae8"/><path d="M435.54 518.61c-26.32 15.38-67.84-6.69-92.75-49.3-12.46-21.31-18.4-43.71-17.94-62.72.46-19 7.32-34.6 20.48-42.3 26.32-15.38 67.84 6.69 92.75 49.3 24.92 42.62 23.78 89.64-2.54 105.02z" clip-path="url(#SVGID_8_)" fill="#d8d9e8"/><path d="M435.48 518.51c-26.28 15.36-67.75-6.68-92.63-49.23-12.44-21.28-18.37-43.66-17.92-62.63.46-18.98 7.31-34.56 20.45-42.24 26.28-15.36 67.75 6.68 92.63 49.23 24.89 42.55 23.75 89.51-2.53 104.87z" clip-path="url(#SVGID_8_)" fill="#d7d8e7"/><path d="M435.42 518.41c-26.25 15.34-67.67-6.67-92.51-49.17-12.42-21.25-18.35-43.6-17.89-62.55.46-18.95 7.3-34.51 20.43-42.18 26.25-15.34 67.67 6.67 92.51 49.17s23.71 89.39-2.54 104.73z" clip-path="url(#SVGID_8_)" fill="#d6d7e6"/><ellipse transform="rotate(-30.311 390.437 441.452)" cx="390.44" cy="441.46" rx="54.98" ry="89.02" clip-path="url(#SVGID_8_)" fill="#d5d6e6"/><ellipse transform="rotate(-30.311 390.438 441.452)" cx="390.44" cy="441.46" rx="54.91" ry="88.91" clip-path="url(#SVGID_8_)" fill="#d4d5e5"/><ellipse transform="rotate(-30.311 390.438 441.452)" cx="390.44" cy="441.46" rx="54.83" ry="88.79" clip-path="url(#SVGID_8_)" fill="#d3d4e5"/><ellipse transform="rotate(-30.311 390.438 441.452)" cx="390.44" cy="441.46" rx="54.76" ry="88.67" clip-path="url(#SVGID_8_)" fill="#d2d3e4"/><ellipse transform="rotate(-30.311 390.437 441.452)" cx="390.44" cy="441.46" rx="54.69" ry="88.55" clip-path="url(#SVGID_8_)" fill="#d0d2e3"/><ellipse transform="rotate(-30.311 390.438 441.452)" cx="390.44" cy="441.46" rx="54.62" ry="88.44" clip-path="url(#SVGID_8_)" fill="#cfd1e3"/><ellipse transform="rotate(-30.311 390.437 441.452)" cx="390.44" cy="441.46" rx="54.54" ry="88.32" clip-path="url(#SVGID_8_)" fill="#ced0e2"/><ellipse transform="rotate(-30.311 390.438 441.452)" cx="390.44" cy="441.46" rx="54.47" ry="88.2" clip-path="url(#SVGID_8_)" fill="#cdcfe1"/><ellipse transform="rotate(-30.311 390.438 441.452)" cx="390.44" cy="441.46" rx="54.4" ry="88.09" clip-path="url(#SVGID_8_)" fill="#cccee1"/><ellipse transform="rotate(-30.311 390.438 441.452)" cx="390.44" cy="441.46" rx="54.33" ry="87.97" clip-path="url(#SVGID_8_)" fill="#cbcde0"/><ellipse transform="rotate(-30.311 390.438 441.452)" cx="390.44" cy="441.46" rx="54.26" ry="87.85" clip-path="url(#SVGID_8_)" fill="#caccdf"/><ellipse transform="rotate(-30.311 390.437 441.452)" cx="390.44" cy="441.46" rx="54.18" ry="87.74" clip-path="url(#SVGID_8_)" fill="#c9cbdf"/><ellipse transform="rotate(-30.311 390.438 441.452)" cx="390.44" cy="441.46" rx="54.11" ry="87.62" clip-path="url(#SVGID_8_)" fill="#c8cade"/><ellipse transform="rotate(-30.311 390.438 441.452)" cx="390.44" cy="441.46" rx="54.04" ry="87.5" clip-path="url(#SVGID_8_)" fill="#c7c9dd"/><ellipse transform="rotate(-30.311 390.438 441.452)" cx="390.44" cy="441.46" rx="53.97" ry="87.39" clip-path="url(#SVGID_8_)" fill="#c5c8dd"/><ellipse transform="rotate(-30.311 390.437 441.452)" cx="390.44" cy="441.46" rx="53.89" ry="87.27" clip-path="url(#SVGID_8_)" fill="#c4c6dc"/><ellipse transform="rotate(-30.311 390.438 441.452)" cx="390.44" cy="441.46" rx="53.82" ry="87.15" clip-path="url(#SVGID_8_)" fill="#c3c5db"/><ellipse transform="rotate(-30.311 390.438 441.452)" cx="390.44" cy="441.46" rx="53.75" ry="87.03" clip-path="url(#SVGID_8_)" fill="#c2c4db"/><ellipse transform="rotate(-30.311 390.438 441.452)" cx="390.44" cy="441.46" rx="53.68" ry="86.92" clip-path="url(#SVGID_8_)" fill="#c1c3da"/><ellipse transform="rotate(-30.311 390.438 441.452)" cx="390.44" cy="441.46" rx="53.61" ry="86.8" clip-path="url(#SVGID_8_)" fill="#bfc2d9"/><ellipse transform="rotate(-30.311 390.438 441.452)" cx="390.44" cy="441.46" rx="53.53" ry="86.68" clip-path="url(#SVGID_8_)" fill="#bec1d8"/><ellipse transform="rotate(-30.311 390.438 441.452)" cx="390.44" cy="441.46" rx="53.46" ry="86.57" clip-path="url(#SVGID_8_)" fill="#bdbfd8"/><ellipse transform="rotate(-30.311 390.437 441.452)" cx="390.44" cy="441.46" rx="53.39" ry="86.45" clip-path="url(#SVGID_8_)" fill="#bcbed7"/><ellipse transform="rotate(-30.311 390.438 441.452)" cx="390.44" cy="441.46" rx="53.32" ry="86.33" clip-path="url(#SVGID_8_)" fill="#bbbdd6"/><ellipse transform="rotate(-30.311 390.438 441.452)" cx="390.44" cy="441.46" rx="53.24" ry="86.22" clip-path="url(#SVGID_8_)" fill="#b9bcd6"/><ellipse transform="rotate(-30.311 390.438 441.452)" cx="390.44" cy="441.46" rx="53.17" ry="86.1" clip-path="url(#SVGID_8_)" fill="#b8bbd5"/><ellipse transform="rotate(-30.311 390.438 441.452)" cx="390.44" cy="441.46" rx="53.1" ry="85.98" clip-path="url(#SVGID_8_)" fill="#b7b9d4"/><ellipse transform="rotate(-30.311 390.438 441.452)" cx="390.44" cy="441.46" rx="53.03" ry="85.87" clip-path="url(#SVGID_8_)" fill="#b5b8d3"/><ellipse transform="rotate(-30.311 390.438 441.452)" cx="390.44" cy="441.46" rx="52.96" ry="85.75" clip-path="url(#SVGID_8_)" fill="#b4b7d2"/><ellipse transform="rotate(-30.311 390.438 441.452)" cx="390.44" cy="441.46" rx="52.88" ry="85.63" clip-path="url(#SVGID_8_)" fill="#b3b6d2"/><ellipse transform="rotate(-30.311 390.438 441.452)" cx="390.44" cy="441.46" rx="52.81" ry="85.52" clip-path="url(#SVGID_8_)" fill="#b1b4d1"/><ellipse transform="rotate(-30.311 390.437 441.451)" cx="390.44" cy="441.46" rx="52.74" ry="85.4" clip-path="url(#SVGID_8_)" fill="#b0b3d0"/><ellipse transform="rotate(-30.311 390.438 441.452)" cx="390.44" cy="441.46" rx="52.67" ry="85.28" clip-path="url(#SVGID_8_)" fill="#afb2cf"/><ellipse transform="rotate(-30.311 390.438 441.452)" cx="390.44" cy="441.46" rx="52.6" ry="85.16" clip-path="url(#SVGID_8_)" fill="#adb0ce"/><ellipse transform="rotate(-30.311 390.438 441.452)" cx="390.44" cy="441.46" rx="52.52" ry="85.05" clip-path="url(#SVGID_8_)" fill="#acafce"/><ellipse transform="rotate(-30.311 390.437 441.452)" cx="390.44" cy="441.46" rx="52.45" ry="84.93" clip-path="url(#SVGID_8_)" fill="#abaecd"/><ellipse transform="rotate(-30.311 390.438 441.452)" cx="390.44" cy="441.46" rx="52.38" ry="84.81" clip-path="url(#SVGID_8_)" fill="#a9accc"/><ellipse transform="rotate(-30.311 390.438 441.452)" cx="390.44" cy="441.46" rx="52.31" ry="84.7" clip-path="url(#SVGID_8_)" fill="#a8abcb"/><ellipse transform="rotate(-30.311 390.438 441.452)" cx="390.44" cy="441.46" rx="52.23" ry="84.58" clip-path="url(#SVGID_8_)" fill="#a6aaca"/><ellipse transform="rotate(-30.311 390.438 441.452)" cx="390.44" cy="441.46" rx="52.16" ry="84.46" clip-path="url(#SVGID_8_)" fill="#a5a8c9"/><ellipse transform="rotate(-30.311 390.437 441.452)" cx="390.44" cy="441.46" rx="52.09" ry="84.35" clip-path="url(#SVGID_8_)" fill="#a4a7c9"/><ellipse transform="rotate(-30.311 390.437 441.452)" cx="390.44" cy="441.46" rx="52.02" ry="84.23" clip-path="url(#SVGID_8_)" fill="#a2a6c8"/><ellipse transform="rotate(-30.311 390.438 441.452)" cx="390.44" cy="441.46" rx="51.95" ry="84.11" clip-path="url(#SVGID_8_)" fill="#a1a4c7"/><ellipse transform="rotate(-30.311 390.438 441.452)" cx="390.44" cy="441.46" rx="51.87" ry="84" clip-path="url(#SVGID_8_)" fill="#9fa3c6"/><ellipse transform="rotate(-30.311 390.437 441.451)" cx="390.44" cy="441.46" rx="51.8" ry="83.88" clip-path="url(#SVGID_8_)" fill="#9ea1c5"/><ellipse transform="rotate(-30.311 390.437 441.451)" cx="390.44" cy="441.46" rx="51.73" ry="83.76" clip-path="url(#SVGID_8_)" fill="#9ca0c4"/><ellipse transform="rotate(-30.311 390.437 441.452)" cx="390.44" cy="441.46" rx="51.66" ry="83.65" clip-path="url(#SVGID_8_)" fill="#9b9ec3"/><ellipse transform="rotate(-30.311 390.438 441.452)" cx="390.44" cy="441.46" rx="51.58" ry="83.53" clip-path="url(#SVGID_8_)" fill="#999dc2"/><ellipse transform="rotate(-30.311 390.438 441.452)" cx="390.44" cy="441.46" rx="51.51" ry="83.41" clip-path="url(#SVGID_8_)" fill="#989cc2"/><ellipse transform="rotate(-30.311 390.437 441.452)" cx="390.44" cy="441.46" rx="51.44" ry="83.29" clip-path="url(#SVGID_8_)" fill="#969ac1"/><ellipse transform="rotate(-30.311 390.437 441.451)" cx="390.44" cy="441.46" rx="51.37" ry="83.18" clip-path="url(#SVGID_8_)" fill="#9599c0"/><ellipse transform="rotate(-30.311 390.437 441.452)" cx="390.44" cy="441.46" rx="51.3" ry="83.06" clip-path="url(#SVGID_8_)" fill="#9397bf"/><ellipse transform="rotate(-30.311 390.438 441.452)" cx="390.44" cy="441.46" rx="51.22" ry="82.94" clip-path="url(#SVGID_8_)" fill="#9296be"/><ellipse transform="rotate(-30.311 390.438 441.452)" cx="390.44" cy="441.46" rx="51.15" ry="82.83" clip-path="url(#SVGID_8_)" fill="#9094bd"/><ellipse transform="rotate(-30.311 390.438 441.452)" cx="390.44" cy="441.46" rx="51.08" ry="82.71" clip-path="url(#SVGID_8_)" fill="#8e93bc"/><ellipse transform="rotate(-30.311 390.437 441.452)" cx="390.44" cy="441.46" rx="51.01" ry="82.59" clip-path="url(#SVGID_8_)" fill="#8d91bb"/><ellipse transform="rotate(-30.311 390.438 441.452)" cx="390.44" cy="441.46" rx="50.93" ry="82.48" clip-path="url(#SVGID_8_)" fill="#8b8fba"/><ellipse transform="rotate(-30.311 390.438 441.452)" cx="390.44" cy="441.46" rx="50.86" ry="82.36" clip-path="url(#SVGID_8_)" fill="#8a8eb9"/><ellipse transform="rotate(-30.311 390.437 441.452)" cx="390.44" cy="441.46" rx="50.79" ry="82.24" clip-path="url(#SVGID_8_)" fill="#888cb8"/><ellipse transform="rotate(-30.311 390.438 441.452)" cx="390.44" cy="441.46" rx="50.72" ry="82.13" clip-path="url(#SVGID_8_)" fill="#868bb7"/><ellipse transform="rotate(-30.311 390.437 441.452)" cx="390.44" cy="441.46" rx="50.65" ry="82.01" clip-path="url(#SVGID_8_)" fill="#8589b6"/><ellipse transform="rotate(-30.311 390.438 441.452)" cx="390.44" cy="441.46" rx="50.57" ry="81.89" clip-path="url(#SVGID_8_)" fill="#8388b5"/><ellipse transform="rotate(-30.311 390.438 441.452)" cx="390.44" cy="441.46" rx="50.5" ry="81.77" clip-path="url(#SVGID_8_)" fill="#8186b4"/><ellipse transform="rotate(-30.311 390.438 441.452)" cx="390.44" cy="441.46" rx="50.43" ry="81.66" clip-path="url(#SVGID_8_)" fill="#8084b3"/><ellipse transform="rotate(-30.311 390.438 441.452)" cx="390.44" cy="441.46" rx="50.36" ry="81.54" clip-path="url(#SVGID_8_)" fill="#7e83b2"/><ellipse transform="rotate(-30.311 390.437 441.452)" cx="390.44" cy="441.46" rx="50.28" ry="81.42" clip-path="url(#SVGID_8_)" fill="#7c81b1"/><ellipse transform="rotate(-30.311 390.437 441.451)" cx="390.44" cy="441.46" rx="50.21" ry="81.31" clip-path="url(#SVGID_8_)" fill="#7b7fb0"/><ellipse transform="rotate(-30.311 390.438 441.452)" cx="390.44" cy="441.46" rx="50.14" ry="81.19" clip-path="url(#SVGID_8_)" fill="#797eaf"/><ellipse transform="rotate(-30.311 390.438 441.452)" cx="390.44" cy="441.46" rx="50.07" ry="81.07" clip-path="url(#SVGID_8_)" fill="#777cae"/><ellipse transform="rotate(-30.311 390.438 441.452)" cx="390.44" cy="441.46" rx="50" ry="80.96" clip-path="url(#SVGID_8_)" fill="#757aad"/><ellipse transform="rotate(-30.311 390.438 441.452)" cx="390.44" cy="441.46" rx="49.92" ry="80.84" clip-path="url(#SVGID_8_)" fill="#7479ac"/><ellipse transform="rotate(-30.311 390.438 441.452)" cx="390.44" cy="441.46" rx="49.85" ry="80.72" clip-path="url(#SVGID_8_)" fill="#7277ab"/><ellipse transform="rotate(-30.311 390.438 441.452)" cx="390.44" cy="441.46" rx="49.78" ry="80.61" clip-path="url(#SVGID_8_)" fill="#7075aa"/><ellipse transform="rotate(-30.311 390.438 441.452)" cx="390.44" cy="441.46" rx="49.71" ry="80.49" clip-path="url(#SVGID_8_)" fill="#6e74a9"/><ellipse transform="rotate(-30.311 390.438 441.452)" cx="390.44" cy="441.46" rx="49.64" ry="80.37" clip-path="url(#SVGID_8_)" fill="#6d72a8"/><ellipse transform="rotate(-30.311 390.438 441.452)" cx="390.44" cy="441.46" rx="49.56" ry="80.26" clip-path="url(#SVGID_8_)" fill="#6b70a7"/><ellipse transform="rotate(-30.311 390.438 441.452)" cx="390.44" cy="441.46" rx="49.49" ry="80.14" clip-path="url(#SVGID_8_)" fill="#696ea6"/><ellipse transform="rotate(-30.311 390.438 441.452)" cx="390.44" cy="441.46" rx="49.42" ry="80.02" clip-path="url(#SVGID_8_)" fill="#676da5"/><ellipse transform="rotate(-30.311 390.438 441.452)" cx="390.44" cy="441.46" rx="49.35" ry="79.9" clip-path="url(#SVGID_8_)" fill="#656ba4"/><ellipse transform="rotate(-30.311 390.438 441.452)" cx="390.44" cy="441.46" rx="49.27" ry="79.79" clip-path="url(#SVGID_8_)" fill="#6369a2"/><ellipse transform="rotate(-30.311 390.437 441.452)" cx="390.44" cy="441.46" rx="49.2" ry="79.67" clip-path="url(#SVGID_8_)" fill="#6267a1"/><ellipse transform="rotate(-30.311 390.438 441.452)" cx="390.44" cy="441.46" rx="49.13" ry="79.55" clip-path="url(#SVGID_8_)" fill="#6066a0"/><ellipse transform="rotate(-30.311 390.438 441.452)" cx="390.44" cy="441.46" rx="49.06" ry="79.44" clip-path="url(#SVGID_8_)" fill="#5e649f"/><ellipse transform="rotate(-30.311 390.438 441.452)" cx="390.44" cy="441.46" rx="48.99" ry="79.32" clip-path="url(#SVGID_8_)" fill="#5c629e"/><ellipse transform="rotate(-30.311 390.438 441.452)" cx="390.44" cy="441.46" rx="48.91" ry="79.2" clip-path="url(#SVGID_8_)" fill="#5c629e"/><ellipse transform="rotate(-30.311 390.438 441.452)" cx="390.44" cy="441.46" rx="48.77" ry="78.97" clip-path="url(#SVGID_8_)" fill="#6066a0"/><ellipse transform="rotate(-30.311 390.438 441.452)" cx="390.44" cy="441.46" rx="48.63" ry="78.74" clip-path="url(#SVGID_8_)" fill="#6369a2"/><ellipse transform="rotate(-30.311 390.438 441.452)" cx="390.44" cy="441.46" rx="48.48" ry="78.51" clip-path="url(#SVGID_8_)" fill="#676da5"/><ellipse transform="rotate(-30.311 390.437 441.452)" cx="390.44" cy="441.46" rx="48.34" ry="78.28" clip-path="url(#SVGID_8_)" fill="#6b70a7"/><ellipse transform="rotate(-30.311 390.438 441.452)" cx="390.44" cy="441.46" rx="48.2" ry="78.05" clip-path="url(#SVGID_8_)" fill="#6e73a9"/><ellipse transform="rotate(-30.311 390.438 441.452)" cx="390.44" cy="441.46" rx="48.06" ry="77.81" clip-path="url(#SVGID_8_)" fill="#7277ab"/><ellipse transform="rotate(-30.311 390.438 441.452)" cx="390.44" cy="441.46" rx="47.91" ry="77.58" clip-path="url(#SVGID_8_)" fill="#757aad"/><ellipse transform="rotate(-30.311 390.438 441.452)" cx="390.44" cy="441.46" rx="47.77" ry="77.35" clip-path="url(#SVGID_8_)" fill="#787daf"/><ellipse transform="rotate(-30.311 390.438 441.452)" cx="390.44" cy="441.46" rx="47.63" ry="77.12" clip-path="url(#SVGID_8_)" fill="#7b80b1"/><ellipse transform="rotate(-30.311 390.438 441.452)" cx="390.44" cy="441.46" rx="47.48" ry="76.89" clip-path="url(#SVGID_8_)" fill="#7f83b3"/><ellipse transform="rotate(-30.311 390.438 441.452)" cx="390.44" cy="441.46" rx="47.34" ry="76.66" clip-path="url(#SVGID_8_)" fill="#8286b5"/><ellipse transform="rotate(-30.311 390.438 441.452)" cx="390.44" cy="441.46" rx="47.2" ry="76.43" clip-path="url(#SVGID_8_)" fill="#8589b6"/><ellipse transform="rotate(-30.311 390.437 441.452)" cx="390.44" cy="441.46" rx="47.05" ry="76.19" clip-path="url(#SVGID_8_)" fill="#888cb8"/><ellipse transform="rotate(-30.311 390.438 441.452)" cx="390.44" cy="441.46" rx="46.91" ry="75.96" clip-path="url(#SVGID_8_)" fill="#8b8fba"/><ellipse transform="rotate(-30.311 390.438 441.452)" cx="390.44" cy="441.46" rx="46.77" ry="75.73" clip-path="url(#SVGID_8_)" fill="#8e92bc"/><ellipse transform="rotate(-30.311 390.438 441.452)" cx="390.44" cy="441.46" rx="46.63" ry="75.5" clip-path="url(#SVGID_8_)" fill="#9195bd"/><ellipse transform="rotate(-30.311 390.437 441.452)" cx="390.44" cy="441.46" rx="46.48" ry="75.27" clip-path="url(#SVGID_8_)" fill="#9497bf"/><ellipse transform="rotate(-30.311 390.438 441.452)" cx="390.44" cy="441.46" rx="46.34" ry="75.04" clip-path="url(#SVGID_8_)" fill="#969ac1"/><ellipse transform="rotate(-30.311 390.438 441.452)" cx="390.44" cy="441.46" rx="46.2" ry="74.8" clip-path="url(#SVGID_8_)" fill="#999dc2"/><ellipse transform="rotate(-30.311 390.438 441.452)" cx="390.44" cy="441.46" rx="46.05" ry="74.57" clip-path="url(#SVGID_8_)" fill="#9c9fc4"/><ellipse transform="rotate(-30.311 390.438 441.452)" cx="390.44" cy="441.46" rx="45.91" ry="74.34" clip-path="url(#SVGID_8_)" fill="#9ea2c5"/><ellipse transform="rotate(-30.311 390.438 441.452)" cx="390.44" cy="441.46" rx="45.77" ry="74.11" clip-path="url(#SVGID_8_)" fill="#a1a4c7"/><ellipse transform="rotate(-30.311 390.438 441.452)" cx="390.44" cy="441.46" rx="45.63" ry="73.88" clip-path="url(#SVGID_8_)" fill="#a3a7c8"/><ellipse transform="rotate(-30.311 390.438 441.452)" cx="390.44" cy="441.46" rx="45.48" ry="73.65" clip-path="url(#SVGID_8_)" fill="#a6a9ca"/><ellipse transform="rotate(-30.311 390.437 441.451)" cx="390.44" cy="441.46" rx="45.34" ry="73.42" clip-path="url(#SVGID_8_)" fill="#a8abcb"/><ellipse transform="rotate(-30.311 390.437 441.452)" cx="390.44" cy="441.46" rx="45.2" ry="73.18" clip-path="url(#SVGID_8_)" fill="#aaaecd"/><ellipse transform="rotate(-30.311 390.438 441.452)" cx="390.44" cy="441.46" rx="45.05" ry="72.95" clip-path="url(#SVGID_8_)" fill="#adb0ce"/><ellipse transform="rotate(-30.311 390.438 441.452)" cx="390.44" cy="441.46" rx="44.91" ry="72.72" clip-path="url(#SVGID_8_)" fill="#afb2cf"/><ellipse transform="rotate(-30.311 390.438 441.452)" cx="390.44" cy="441.46" rx="44.77" ry="72.49" clip-path="url(#SVGID_8_)" fill="#b1b4d1"/><ellipse transform="rotate(-30.311 390.438 441.452)" cx="390.44" cy="441.46" rx="44.62" ry="72.26" clip-path="url(#SVGID_8_)" fill="#b3b6d2"/><ellipse transform="rotate(-30.311 390.438 441.452)" cx="390.44" cy="441.46" rx="44.48" ry="72.03" clip-path="url(#SVGID_8_)" fill="#b6b8d3"/><ellipse transform="rotate(-30.311 390.438 441.452)" cx="390.44" cy="441.46" rx="44.34" ry="71.8" clip-path="url(#SVGID_8_)" fill="#b8bad5"/><ellipse transform="rotate(-30.311 390.438 441.452)" cx="390.44" cy="441.46" rx="44.2" ry="71.56" clip-path="url(#SVGID_8_)" fill="#babcd6"/><ellipse transform="rotate(-30.311 390.438 441.452)" cx="390.44" cy="441.46" rx="44.05" ry="71.33" clip-path="url(#SVGID_8_)" fill="#bcbed7"/><ellipse transform="rotate(-30.311 390.438 441.452)" cx="390.44" cy="441.46" rx="43.91" ry="71.1" clip-path="url(#SVGID_8_)" fill="#bec0d8"/><ellipse transform="rotate(-30.311 390.437 441.451)" cx="390.44" cy="441.46" rx="43.77" ry="70.87" clip-path="url(#SVGID_8_)" fill="#c0c2d9"/><ellipse transform="rotate(-30.311 390.438 441.452)" cx="390.44" cy="441.46" rx="43.62" ry="70.64" clip-path="url(#SVGID_8_)" fill="#c1c4da"/><ellipse transform="rotate(-30.311 390.438 441.452)" cx="390.44" cy="441.46" rx="43.48" ry="70.41" clip-path="url(#SVGID_8_)" fill="#c3c5db"/><ellipse transform="rotate(-30.311 390.438 441.452)" cx="390.44" cy="441.46" rx="43.34" ry="70.17" clip-path="url(#SVGID_8_)" fill="#c5c7dd"/><ellipse transform="rotate(-30.311 390.438 441.452)" cx="390.44" cy="441.46" rx="43.19" ry="69.94" clip-path="url(#SVGID_8_)" fill="#c7c9de"/><ellipse transform="rotate(-30.311 390.438 441.452)" cx="390.44" cy="441.46" rx="43.05" ry="69.71" clip-path="url(#SVGID_8_)" fill="#c9cbdf"/><ellipse transform="rotate(-30.311 390.438 441.452)" cx="390.44" cy="441.46" rx="42.91" ry="69.48" clip-path="url(#SVGID_8_)" fill="#cacce0"/><ellipse transform="rotate(-30.311 390.437 441.452)" cx="390.44" cy="441.46" rx="42.77" ry="69.25" clip-path="url(#SVGID_8_)" fill="#cccee1"/><ellipse transform="rotate(-30.311 390.438 441.452)" cx="390.44" cy="441.46" rx="42.62" ry="69.02" clip-path="url(#SVGID_8_)" fill="#cdcfe1"/><ellipse transform="rotate(-30.311 390.438 441.452)" cx="390.44" cy="441.46" rx="42.48" ry="68.79" clip-path="url(#SVGID_8_)" fill="#cfd1e2"/><ellipse transform="rotate(-30.311 390.438 441.452)" cx="390.44" cy="441.46" rx="42.34" ry="68.55" clip-path="url(#SVGID_8_)" fill="#d1d2e3"/><ellipse transform="rotate(-30.311 390.438 441.452)" cx="390.44" cy="441.46" rx="42.19" ry="68.32" clip-path="url(#SVGID_8_)" fill="#d2d4e4"/><ellipse transform="rotate(-30.311 390.438 441.452)" cx="390.44" cy="441.46" rx="42.05" ry="68.09" clip-path="url(#SVGID_8_)" fill="#d3d5e5"/><ellipse transform="rotate(-30.311 390.438 441.452)" cx="390.44" cy="441.46" rx="41.91" ry="67.86" clip-path="url(#SVGID_8_)" fill="#d5d6e6"/><ellipse transform="rotate(-30.311 390.437 441.451)" cx="390.44" cy="441.46" rx="41.77" ry="67.63" clip-path="url(#SVGID_8_)" fill="#d6d8e7"/><ellipse transform="rotate(-30.311 390.438 441.452)" cx="390.44" cy="441.46" rx="41.62" ry="67.4" clip-path="url(#SVGID_8_)" fill="#d8d9e8"/><ellipse transform="rotate(-30.311 390.438 441.452)" cx="390.44" cy="441.46" rx="41.48" ry="67.17" clip-path="url(#SVGID_8_)" fill="#d9dae8"/><ellipse transform="rotate(-30.311 390.437 441.452)" cx="390.44" cy="441.46" rx="41.34" ry="66.93" clip-path="url(#SVGID_8_)" fill="#dadce9"/><ellipse transform="rotate(-30.311 390.437 441.452)" cx="390.44" cy="441.46" rx="41.19" ry="66.7" clip-path="url(#SVGID_8_)" fill="#dbddea"/><ellipse transform="rotate(-30.311 390.438 441.452)" cx="390.44" cy="441.46" rx="41.05" ry="66.47" clip-path="url(#SVGID_8_)" fill="#dddeeb"/><ellipse transform="rotate(-30.311 390.438 441.452)" cx="390.44" cy="441.46" rx="40.91" ry="66.24" clip-path="url(#SVGID_8_)" fill="#dedfeb"/><ellipse transform="rotate(-30.311 390.438 441.452)" cx="390.44" cy="441.46" rx="40.76" ry="66.01" clip-path="url(#SVGID_8_)" fill="#dfe0ec"/><ellipse transform="rotate(-30.311 390.438 441.452)" cx="390.44" cy="441.46" rx="40.62" ry="65.78" clip-path="url(#SVGID_8_)" fill="#e0e1ed"/><ellipse transform="rotate(-30.311 390.438 441.452)" cx="390.44" cy="441.46" rx="40.48" ry="65.54" clip-path="url(#SVGID_8_)" fill="#e1e2ed"/><ellipse transform="rotate(-30.311 390.438 441.452)" cx="390.44" cy="441.46" rx="40.34" ry="65.31" clip-path="url(#SVGID_8_)" fill="#e2e3ee"/><ellipse transform="rotate(-30.311 390.437 441.452)" cx="390.44" cy="441.46" rx="40.19" ry="65.08" clip-path="url(#SVGID_8_)" fill="#e3e4ef"/><ellipse transform="rotate(-30.311 390.438 441.452)" cx="390.44" cy="441.46" rx="40.05" ry="64.85" clip-path="url(#SVGID_8_)" fill="#e4e5ef"/><ellipse transform="rotate(-30.311 390.438 441.452)" cx="390.44" cy="441.46" rx="39.91" ry="64.62" clip-path="url(#SVGID_8_)" fill="#e5e6f0"/><ellipse transform="rotate(-30.311 390.438 441.452)" cx="390.44" cy="441.46" rx="39.76" ry="64.39" clip-path="url(#SVGID_8_)" fill="#e6e7f0"/><ellipse transform="rotate(-30.311 390.438 441.452)" cx="390.44" cy="441.46" rx="39.62" ry="64.16" clip-path="url(#SVGID_8_)" fill="#e7e8f1"/><ellipse transform="rotate(-30.311 390.438 441.452)" cx="390.44" cy="441.46" rx="39.48" ry="63.92" clip-path="url(#SVGID_8_)" fill="#e8e9f1"/><ellipse transform="rotate(-30.311 390.437 441.451)" cx="390.44" cy="441.46" rx="39.33" ry="63.69" clip-path="url(#SVGID_8_)" fill="#e9eaf2"/><ellipse transform="rotate(-30.311 390.437 441.451)" cx="390.44" cy="441.46" rx="39.19" ry="63.46" clip-path="url(#SVGID_8_)" fill="#eaebf2"/><ellipse transform="rotate(-30.311 390.439 441.453)" cx="390.44" cy="441.46" rx="39.05" ry="63.23" clip-path="url(#SVGID_8_)" fill="#ebebf3"/><ellipse transform="rotate(-30.311 390.438 441.452)" cx="390.44" cy="441.46" rx="38.91" ry="63" clip-path="url(#SVGID_8_)" fill="#ececf3"/><ellipse transform="rotate(-30.311 390.438 441.452)" cx="390.44" cy="441.46" rx="38.76" ry="62.77" clip-path="url(#SVGID_8_)" fill="#ecedf4"/><ellipse transform="rotate(-30.311 390.437 441.451)" cx="390.44" cy="441.46" rx="38.62" ry="62.54" clip-path="url(#SVGID_8_)" fill="#edeef4"/><ellipse transform="rotate(-30.311 390.438 441.452)" cx="390.44" cy="441.46" rx="38.48" ry="62.3" clip-path="url(#SVGID_8_)" fill="#eeeef5"/><ellipse transform="rotate(-30.311 390.438 441.452)" cx="390.44" cy="441.46" rx="38.33" ry="62.07" clip-path="url(#SVGID_8_)" fill="#efeff5"/><ellipse transform="rotate(-30.311 390.438 441.452)" cx="390.44" cy="441.46" rx="38.19" ry="61.84" clip-path="url(#SVGID_8_)" fill="#eff0f6"/><ellipse transform="rotate(-30.311 390.438 441.452)" cx="390.44" cy="441.46" rx="38.05" ry="61.61" clip-path="url(#SVGID_8_)" fill="#f0f0f6"/><ellipse transform="rotate(-30.311 390.438 441.452)" cx="390.44" cy="441.46" rx="37.91" ry="61.38" clip-path="url(#SVGID_8_)" fill="#f1f1f6"/><ellipse transform="rotate(-30.311 390.438 441.452)" cx="390.44" cy="441.46" rx="37.76" ry="61.15" clip-path="url(#SVGID_8_)" fill="#f1f2f7"/><ellipse transform="rotate(-30.311 390.438 441.452)" cx="390.44" cy="441.46" rx="37.62" ry="60.92" clip-path="url(#SVGID_8_)" fill="#f2f2f7"/><ellipse transform="rotate(-30.311 390.437 441.452)" cx="390.44" cy="441.46" rx="37.48" ry="60.68" clip-path="url(#SVGID_8_)" fill="#f2f3f7"/><ellipse transform="rotate(-30.311 390.438 441.452)" cx="390.44" cy="441.46" rx="37.33" ry="60.45" clip-path="url(#SVGID_8_)" fill="#f3f3f8"/><ellipse transform="rotate(-30.311 390.437 441.451)" cx="390.44" cy="441.46" rx="37.19" ry="60.22" clip-path="url(#SVGID_8_)" fill="#f3f4f8"/><ellipse transform="rotate(-30.311 390.438 441.452)" cx="390.44" cy="441.46" rx="37.05" ry="59.99" clip-path="url(#SVGID_8_)" fill="#f4f4f8"/><ellipse transform="rotate(-30.311 390.438 441.452)" cx="390.44" cy="441.46" rx="36.9" ry="59.76" clip-path="url(#SVGID_8_)" fill="#f5f5f9"/><ellipse transform="rotate(-30.311 390.438 441.452)" cx="390.44" cy="441.46" rx="36.76" ry="59.53" clip-path="url(#SVGID_8_)" fill="#f5f5f9"/><ellipse transform="rotate(-30.311 390.437 441.451)" cx="390.44" cy="441.46" rx="36.62" ry="59.29" clip-path="url(#SVGID_8_)" fill="#f5f6f9"/><ellipse transform="rotate(-30.311 390.439 441.452)" cx="390.44" cy="441.46" rx="36.48" ry="59.06" clip-path="url(#SVGID_8_)" fill="#f6f6fa"/><ellipse transform="rotate(-30.311 390.438 441.452)" cx="390.44" cy="441.46" rx="36.33" ry="58.83" clip-path="url(#SVGID_8_)" fill="#f6f7fa"/><ellipse transform="rotate(-30.311 390.437 441.451)" cx="390.44" cy="441.46" rx="36.19" ry="58.6" clip-path="url(#SVGID_8_)" fill="#f7f7fa"/><ellipse transform="rotate(-30.311 390.438 441.452)" cx="390.44" cy="441.46" rx="36.05" ry="58.37" clip-path="url(#SVGID_8_)" fill="#f7f8fa"/><ellipse transform="rotate(-30.311 390.437 441.452)" cx="390.44" cy="441.46" rx="35.9" ry="58.14" clip-path="url(#SVGID_8_)" fill="#f8f8fb"/><ellipse transform="rotate(-30.311 390.438 441.452)" cx="390.44" cy="441.46" rx="35.76" ry="57.91" clip-path="url(#SVGID_8_)" fill="#f8f8fb"/><ellipse transform="rotate(-30.311 390.438 441.452)" cx="390.44" cy="441.46" rx="35.62" ry="57.67" clip-path="url(#SVGID_8_)" fill="#f8f9fb"/><ellipse transform="rotate(-30.311 390.438 441.452)" cx="390.44" cy="441.46" rx="35.47" ry="57.44" clip-path="url(#SVGID_8_)" fill="#f9f9fb"/><ellipse transform="rotate(-30.311 390.438 441.452)" cx="390.44" cy="441.46" rx="35.33" ry="57.21" clip-path="url(#SVGID_8_)" fill="#f9f9fb"/><ellipse transform="rotate(-30.311 390.437 441.452)" cx="390.44" cy="441.46" rx="35.19" ry="56.98" clip-path="url(#SVGID_8_)" fill="#f9fafc"/><ellipse transform="rotate(-30.311 390.438 441.452)" cx="390.44" cy="441.46" rx="35.05" ry="56.75" clip-path="url(#SVGID_8_)" fill="#fafafc"/><ellipse transform="rotate(-30.311 390.438 441.452)" cx="390.44" cy="441.46" rx="34.9" ry="56.52" clip-path="url(#SVGID_8_)" fill="#fafafc"/><ellipse transform="rotate(-30.311 390.438 441.452)" cx="390.44" cy="441.46" rx="34.76" ry="56.29" clip-path="url(#SVGID_8_)" fill="#fafafc"/><ellipse transform="rotate(-30.311 390.438 441.452)" cx="390.44" cy="441.46" rx="34.62" ry="56.05" clip-path="url(#SVGID_8_)" fill="#fbfbfc"/><ellipse transform="rotate(-30.311 390.438 441.452)" cx="390.44" cy="441.46" rx="34.47" ry="55.82" clip-path="url(#SVGID_8_)" fill="#fbfbfd"/><ellipse transform="rotate(-30.311 390.438 441.452)" cx="390.44" cy="441.46" rx="34.33" ry="55.59" clip-path="url(#SVGID_8_)" fill="#fbfbfd"/><ellipse transform="rotate(-30.311 390.437 441.452)" cx="390.44" cy="441.46" rx="34.19" ry="55.36" clip-path="url(#SVGID_8_)" fill="#fbfbfd"/><ellipse transform="rotate(-30.311 390.437 441.451)" cx="390.44" cy="441.46" rx="34.05" ry="55.13" clip-path="url(#SVGID_8_)" fill="#fcfcfd"/><ellipse transform="rotate(-30.311 390.438 441.452)" cx="390.44" cy="441.46" rx="33.9" ry="54.9" clip-path="url(#SVGID_8_)" fill="#fcfcfd"/><ellipse transform="rotate(-30.311 390.438 441.452)" cx="390.44" cy="441.46" rx="33.76" ry="54.66" clip-path="url(#SVGID_8_)" fill="#fcfcfd"/><ellipse transform="rotate(-30.311 390.438 441.452)" cx="390.44" cy="441.46" rx="33.62" ry="54.43" clip-path="url(#SVGID_8_)" fill="#fcfcfd"/><ellipse transform="rotate(-30.311 390.438 441.452)" cx="390.44" cy="441.46" rx="33.47" ry="54.2" clip-path="url(#SVGID_8_)" fill="#fcfcfd"/><ellipse transform="rotate(-30.311 390.437 441.451)" cx="390.44" cy="441.46" rx="33.33" ry="53.97" clip-path="url(#SVGID_8_)" fill="#fdfdfe"/><ellipse transform="rotate(-30.311 390.438 441.452)" cx="390.44" cy="441.46" rx="33.19" ry="53.74" clip-path="url(#SVGID_8_)" fill="#fdfdfe"/><ellipse transform="rotate(-30.311 390.438 441.452)" cx="390.44" cy="441.46" rx="33.04" ry="53.51" clip-path="url(#SVGID_8_)" fill="#fdfdfe"/><ellipse transform="rotate(-30.311 390.438 441.452)" cx="390.44" cy="441.46" rx="32.9" ry="53.28" clip-path="url(#SVGID_8_)" fill="#fdfdfe"/><ellipse transform="rotate(-30.311 390.438 441.452)" cx="390.44" cy="441.46" rx="32.76" ry="53.04" clip-path="url(#SVGID_8_)" fill="#fdfdfe"/><ellipse transform="rotate(-30.311 390.437 441.452)" cx="390.44" cy="441.46" rx="32.62" ry="52.81" clip-path="url(#SVGID_8_)" fill="#fdfdfe"/><ellipse transform="rotate(-30.311 390.438 441.452)" cx="390.44" cy="441.46" rx="32.47" ry="52.58" clip-path="url(#SVGID_8_)" fill="#fdfdfe"/><ellipse transform="rotate(-30.311 390.438 441.452)" cx="390.44" cy="441.46" rx="32.33" ry="52.35" clip-path="url(#SVGID_8_)" fill="#fefefe"/><ellipse transform="rotate(-30.311 390.438 441.452)" cx="390.44" cy="441.46" rx="32.19" ry="52.12" clip-path="url(#SVGID_8_)" fill="#fefefe"/><ellipse transform="rotate(-30.311 390.437 441.452)" cx="390.44" cy="441.46" rx="32.04" ry="51.89" clip-path="url(#SVGID_8_)" fill="#fefefe"/><ellipse transform="rotate(-30.311 390.438 441.452)" cx="390.44" cy="441.46" rx="31.9" ry="51.66" clip-path="url(#SVGID_8_)" fill="#fefefe"/><ellipse transform="rotate(-30.311 390.438 441.452)" cx="390.44" cy="441.46" rx="31.76" ry="51.42" clip-path="url(#SVGID_8_)" fill="#fefefe"/><ellipse transform="rotate(-30.311 390.438 441.452)" cx="390.44" cy="441.46" rx="31.61" ry="51.19" clip-path="url(#SVGID_8_)" fill="#fefefe"/><ellipse transform="rotate(-30.311 390.437 441.451)" cx="390.44" cy="441.46" rx="31.47" ry="50.96" clip-path="url(#SVGID_8_)" fill="#fefefe"/><ellipse transform="rotate(-30.311 390.438 441.452)" cx="390.44" cy="441.46" rx="31.33" ry="50.73" clip-path="url(#SVGID_8_)" fill="#fefeff"/><ellipse transform="rotate(-30.311 390.438 441.452)" cx="390.44" cy="441.46" rx="31.19" ry="50.5" clip-path="url(#SVGID_8_)" fill="#fefeff"/><ellipse transform="rotate(-30.311 390.438 441.452)" cx="390.44" cy="441.46" rx="31.04" ry="50.27" clip-path="url(#SVGID_8_)" fill="#fefeff"/><ellipse transform="rotate(-30.311 390.438 441.452)" cx="390.44" cy="441.46" rx="30.9" ry="50.03" clip-path="url(#SVGID_8_)" fill="#fefeff"/><ellipse transform="rotate(-30.311 390.438 441.452)" cx="390.44" cy="441.46" rx="30.76" ry="49.8" clip-path="url(#SVGID_8_)" fill="#feffff"/><ellipse transform="rotate(-30.311 390.437 441.452)" cx="390.44" cy="441.46" rx="30.61" ry="49.57" clip-path="url(#SVGID_8_)" fill="#fff"/><ellipse transform="rotate(-30.311 390.438 441.452)" cx="390.44" cy="441.46" rx="30.47" ry="49.34" clip-path="url(#SVGID_8_)" fill="#fff"/><ellipse transform="rotate(-30.311 390.437 441.452)" cx="390.44" cy="441.46" rx="30.33" ry="49.11" clip-path="url(#SVGID_8_)" fill="#fff"/><ellipse transform="rotate(-30.311 390.438 441.452)" cx="390.44" cy="441.46" rx="30.19" ry="48.88" clip-path="url(#SVGID_8_)" fill="#fff"/><ellipse transform="rotate(-30.311 390.438 441.452)" cx="390.44" cy="441.46" rx="30.04" ry="48.65" clip-path="url(#SVGID_8_)" fill="#fff"/><ellipse transform="rotate(-30.311 390.438 441.452)" cx="390.44" cy="441.46" rx="29.9" ry="48.41" clip-path="url(#SVGID_8_)" fill="#fff"/><ellipse transform="rotate(-30.311 390.438 441.452)" cx="390.44" cy="441.46" rx="29.76" ry="48.18" clip-path="url(#SVGID_8_)" fill="#fff"/><ellipse transform="rotate(-30.311 390.438 441.452)" cx="390.44" cy="441.46" rx="29.61" ry="47.95" clip-path="url(#SVGID_8_)" fill="#fff"/><ellipse transform="rotate(-30.311 390.438 441.452)" cx="390.44" cy="441.46" rx="29.47" ry="47.72" clip-path="url(#SVGID_8_)" fill="#fff"/><ellipse transform="rotate(-30.311 390.438 441.452)" cx="390.44" cy="441.46" rx="29.33" ry="47.49" clip-path="url(#SVGID_8_)" fill="#fff"/><ellipse transform="rotate(-30.311 390.438 441.452)" cx="390.44" cy="441.46" rx="29.18" ry="47.26" clip-path="url(#SVGID_8_)" fill="#fff"/><ellipse transform="rotate(-30.311 390.437 441.451)" cx="390.44" cy="441.46" rx="29.04" ry="47.03" clip-path="url(#SVGID_8_)" fill="#fff"/><ellipse transform="rotate(-30.311 390.438 441.452)" cx="390.44" cy="441.46" rx="28.9" ry="46.79" clip-path="url(#SVGID_8_)" fill="#fff"/><ellipse transform="rotate(-30.311 390.438 441.452)" cx="390.44" cy="441.46" rx="28.76" ry="46.56" clip-path="url(#SVGID_8_)" fill="#fff"/><ellipse transform="rotate(-30.311 390.438 441.452)" cx="390.44" cy="441.46" rx="28.61" ry="46.33" clip-path="url(#SVGID_8_)" fill="#fff"/><ellipse transform="rotate(-30.311 390.438 441.452)" cx="390.44" cy="441.46" rx="28.47" ry="46.1" clip-path="url(#SVGID_8_)" fill="#fff"/><ellipse transform="rotate(-30.311 390.438 441.452)" cx="390.44" cy="441.46" rx="28.33" ry="45.87" clip-path="url(#SVGID_8_)" fill="#fff"/><ellipse transform="rotate(-30.311 390.438 441.452)" cx="390.44" cy="441.46" rx="28.18" ry="45.64" clip-path="url(#SVGID_8_)" fill="#fff"/><ellipse transform="rotate(-30.311 390.437 441.451)" cx="390.44" cy="441.46" rx="28.04" ry="45.4" clip-path="url(#SVGID_8_)" fill="#fff"/><ellipse transform="rotate(-30.311 390.438 441.452)" cx="390.44" cy="441.46" rx="27.9" ry="45.17" clip-path="url(#SVGID_8_)" fill="#fff"/><ellipse transform="rotate(-30.311 390.438 441.452)" cx="390.44" cy="441.46" rx="27.75" ry="44.94" clip-path="url(#SVGID_8_)" fill="#fff"/><ellipse transform="rotate(-30.311 390.438 441.452)" cx="390.44" cy="441.46" rx="27.61" ry="44.71" clip-path="url(#SVGID_8_)" fill="#fff"/><ellipse transform="rotate(-30.311 390.437 441.452)" cx="390.44" cy="441.46" rx="27.47" ry="44.48" clip-path="url(#SVGID_8_)" fill="#fff"/><ellipse transform="rotate(-30.311 390.436 441.45)" cx="390.44" cy="441.46" rx="27.33" ry="44.25" clip-path="url(#SVGID_8_)" fill="#fff"/><ellipse transform="rotate(-30.311 390.438 441.452)" cx="390.44" cy="441.46" rx="27.18" ry="44.02" clip-path="url(#SVGID_8_)" fill="#fff"/><ellipse transform="rotate(-30.311 390.439 441.452)" cx="390.44" cy="441.46" rx="27.04" ry="43.78" clip-path="url(#SVGID_8_)" fill="#fff"/><ellipse transform="rotate(-30.311 390.438 441.452)" cx="390.44" cy="441.46" rx="26.9" ry="43.55" clip-path="url(#SVGID_8_)" fill="#fff"/><ellipse transform="rotate(-30.311 390.438 441.452)" cx="390.44" cy="441.46" rx="26.75" ry="43.32" clip-path="url(#SVGID_8_)" fill="#fff"/><ellipse transform="rotate(-30.311 390.438 441.452)" cx="390.44" cy="441.46" rx="26.61" ry="43.09" clip-path="url(#SVGID_8_)" fill="#fff"/><ellipse transform="rotate(-30.311 390.438 441.452)" cx="390.44" cy="441.46" rx="26.47" ry="42.86" clip-path="url(#SVGID_8_)" fill="#fff"/><ellipse transform="rotate(-30.311 390.437 441.451)" cx="390.44" cy="441.46" rx="26.33" ry="42.63" clip-path="url(#SVGID_8_)" fill="#fff"/><ellipse transform="rotate(-30.311 390.438 441.452)" cx="390.44" cy="441.46" rx="26.18" ry="42.4" clip-path="url(#SVGID_8_)" fill="#fff"/><ellipse transform="rotate(-30.311 390.438 441.452)" cx="390.44" cy="441.46" rx="26.04" ry="42.16" clip-path="url(#SVGID_8_)" fill="#fff"/><ellipse transform="rotate(-30.311 390.438 441.452)" cx="390.44" cy="441.46" rx="25.9" ry="41.93" clip-path="url(#SVGID_8_)" fill="#fff"/><ellipse transform="rotate(-30.311 390.438 441.452)" cx="390.44" cy="441.46" rx="25.75" ry="41.7" clip-path="url(#SVGID_8_)" fill="#fff"/></g><ellipse id="XMLID_509_" transform="rotate(-30 384.6 446.223)" cx="384.63" cy="446.21" rx="43.04" ry="74.54" opacity=".2" fill="#fff"/><path id="XMLID_505_" class="st106" d="M449.44 476.02c0-37.51-26.43-83.28-58.91-102.04-17.17-9.92-33.78-11.25-46.74-3.77-.76.44-1.49.9-2.2 1.39h-.01l-.08.06c-.05.03-.09.07-.14.1l-11.03 7.7 2.12 1.22c-5.71 8.09-8.76 18.97-8.76 31.89 0 37.51 26.43 83.28 58.91 102.04 9.85 5.68 19.5 8.55 28.39 8.55 3.75 0 7.36-.53 10.8-1.55l.46 1.55 9.28-6.16v-.01c11.57-7.86 17.91-22.29 17.91-40.97zm-58.64 28.59c-29.46-17.01-54.35-60.12-54.35-94.14 0-14.84 4.61-25.67 12.97-30.51 3.26-1.88 7.01-2.81 11.15-2.81 6.49 0 13.9 2.3 21.75 6.83 29.46 17.01 54.35 60.12 54.35 94.14 0 14.84-4.61 25.68-12.97 30.51-8.36 4.83-20.05 3.4-32.9-4.02z"/><g id="XMLID_501_"><linearGradient id="XMLID_109_" gradientUnits="userSpaceOnUse" x1="446.317" y1="478.367" x2="320.697" y2="424.979"><stop offset="0" stop-color="#121312"/><stop offset=".843" stop-color="#313134"/><stop offset="1" stop-color="#37373b"/></linearGradient><path id="XMLID_502_" d="M403.04 528.46c-8.89 0-18.55-2.86-28.39-8.55-32.48-18.75-58.91-64.53-58.91-102.04 0-19.83 7.14-34.88 20.11-42.36 12.97-7.49 29.57-6.15 46.74 3.77 32.48 18.75 58.91 64.53 58.91 102.04 0 19.83-7.14 34.88-20.11 42.36-5.53 3.19-11.73 4.78-18.35 4.78zm-50.13-144.34c-4.14 0-7.89.93-11.15 2.81-8.37 4.83-13.25 13.99-13.25 28.83 0 34.02 24.89 77.13 54.35 94.14 12.85 7.42 24.95 7.4 33.32 2.57 8.37-4.83 12.56-14.22 12.56-29.06 0-34.02-24.89-77.13-54.35-94.14-7.86-4.52-14.99-5.15-21.48-5.15z" fill="url(#XMLID_109_)"/></g></g></g><g><linearGradient id="SVGID_9_" gradientUnits="userSpaceOnUse" x1="-904.344" y1="714.1" x2="-891.158" y2="536.752" gradientTransform="translate(1609.144)"><stop offset="0" stop-color="#14a4c4"/><stop offset=".022" stop-color="#149fc1"/><stop offset=".211" stop-color="#177dad"/><stop offset=".403" stop-color="#19629d"/><stop offset=".597" stop-color="#1a4e92"/><stop offset=".794" stop-color="#1b438b"/><stop offset="1" stop-color="#1b3f89"/></linearGradient><path d="M705.1 648.09v9.37l-62.88-36.3c-2.22-1.28-5 .32-5 2.89v115.68l119.96 69.73a8.796 8.796 0 009.06-.13l2.56-1.59a8.02 8.02 0 003.8-6.82V686.54c0-3.24-1.73-6.24-4.54-7.86l-57.98-33.47c-2.21-1.29-4.98.32-4.98 2.88z" fill="url(#SVGID_9_)"/><path class="st39" d="M640.85 622.31l62.88 36.3v-1.94l-61.5-35.51c-1.6-.93-3.48-.34-4.41 1.02.91-.42 2.02-.45 3.03.13z"/><radialGradient id="SVGID_10_" cx="-883.749" cy="698.205" r="48.455" gradientTransform="translate(1609.144)" gradientUnits="userSpaceOnUse"><stop offset="0" stop-color="#fff"/><stop offset="1"/></radialGradient><path d="M768.07 678.68l-57.97-33.47c-1.6-.93-3.48-.34-4.41 1.02.92-.42 2.03-.45 3.03.13l57.97 33.47a9.075 9.075 0 014.54 7.86v114.38c0 2.08-.8 4.04-2.19 5.51a8.016 8.016 0 003.57-6.66V686.54c0-3.25-1.73-6.24-4.54-7.86z" fill="url(#SVGID_10_)"/><path class="st39" d="M631.04 729.42l135.39 78.16V704.84l-135.39-78.16z"/><path class="st312" d="M631.04 732.85l132.99 76.78v-96.09l-132.99-76.78z"/><linearGradient id="SVGID_11_" gradientUnits="userSpaceOnUse" x1="-976.037" y1="973.779" x2="-879.824" y2="597.094" gradientTransform="translate(1609.144)"><stop offset="0" stop-color="#14a4c4"/><stop offset=".022" stop-color="#149fc1"/><stop offset=".211" stop-color="#177dad"/><stop offset=".403" stop-color="#19629d"/><stop offset=".597" stop-color="#1a4e92"/><stop offset=".794" stop-color="#1b438b"/><stop offset="1" stop-color="#1b3f89"/></linearGradient><path d="M632.1 737.02l125.31 72.35a8.68 8.68 0 008.48.12l.82-.44-.85.33c-2.05.78-4.24-.73-4.24-2.92v-86.03c0-3.24-1.73-6.24-4.54-7.86l-125.85-72.66c-2.22-1.28-5 .32-5 2.89v84.06c0 4.19 2.24 8.06 5.87 10.16z" fill="url(#SVGID_11_)"/><linearGradient id="SVGID_12_" gradientUnits="userSpaceOnUse" x1="-982.069" y1="724.939" x2="-842.436" y2="724.939" gradientTransform="translate(1609.144)"><stop offset="0" stop-color="#14a4c4"/><stop offset=".022" stop-color="#149fc1"/><stop offset=".211" stop-color="#177dad"/><stop offset=".403" stop-color="#19629d"/><stop offset=".597" stop-color="#1a4e92"/><stop offset=".794" stop-color="#1b438b"/><stop offset="1" stop-color="#1b3f89"/></linearGradient><path d="M765.86 809.38c-2.05.78-4.24-.73-4.24-2.92v-86.03c0-3.24-1.73-6.24-4.54-7.86l-125.85-72.66c-1.47-.85-3.16-.42-4.15.7.91-.39 1.98-.4 2.95.16l125.85 72.66a9.075 9.075 0 014.54 7.86v86.03c0 1.63 1.22 2.89 2.69 3.09.96-.15 1.9-.45 2.79-.92l.82-.44-.86.33z" fill="url(#SVGID_12_)"/><linearGradient id="SVGID_13_" gradientUnits="userSpaceOnUse" x1="-929.009" y1="744.099" x2="-915.823" y2="566.752" gradientTransform="translate(1609.144)"><stop offset="0" stop-color="#14a4c4"/><stop offset=".022" stop-color="#149fc1"/><stop offset=".211" stop-color="#177dad"/><stop offset=".403" stop-color="#19629d"/><stop offset=".597" stop-color="#1a4e92"/><stop offset=".794" stop-color="#1b438b"/><stop offset="1" stop-color="#1b3f89"/></linearGradient><path d="M680.43 678.09v9.37l-62.88-36.3c-2.22-1.28-5 .32-5 2.89v115.68l119.96 69.73a8.796 8.796 0 009.06-.13l2.56-1.59a8.02 8.02 0 003.8-6.82V716.53c0-3.24-1.73-6.24-4.54-7.86l-57.98-33.47c-2.2-1.28-4.98.33-4.98 2.89z" fill="url(#SVGID_13_)"/><path class="st39" d="M616.18 652.31l62.88 36.3v-1.94l-61.5-35.51c-1.6-.93-3.48-.34-4.41 1.02.92-.42 2.03-.45 3.03.13z"/><radialGradient id="SVGID_14_" cx="-908.414" cy="728.205" r="48.455" gradientTransform="translate(1609.144)" gradientUnits="userSpaceOnUse"><stop offset="0" stop-color="#fff"/><stop offset="1"/></radialGradient><path d="M743.4 708.68l-57.97-33.47c-1.6-.93-3.48-.34-4.41 1.02.92-.42 2.03-.45 3.03.13l57.97 33.47a9.075 9.075 0 014.54 7.86v114.38c0 2.08-.8 4.04-2.19 5.51a8.016 8.016 0 003.57-6.66V716.53a9.06 9.06 0 00-4.54-7.85z" fill="url(#SVGID_14_)"/><path class="st39" d="M606.38 759.42l135.38 78.16V734.84l-135.38-78.16z"/><path class="st312" d="M606.38 762.85l132.99 76.78v-96.09l-132.99-76.78z"/><linearGradient id="SVGID_15_" gradientUnits="userSpaceOnUse" x1="-1000.702" y1="1003.779" x2="-904.489" y2="627.093" gradientTransform="translate(1609.144)"><stop offset="0" stop-color="#14a4c4"/><stop offset=".022" stop-color="#149fc1"/><stop offset=".211" stop-color="#177dad"/><stop offset=".403" stop-color="#19629d"/><stop offset=".597" stop-color="#1a4e92"/><stop offset=".794" stop-color="#1b438b"/><stop offset="1" stop-color="#1b3f89"/></linearGradient><path d="M607.43 767.02l125.31 72.35a8.705 8.705 0 008.48.13l.82-.44-.85.33c-2.05.78-4.24-.73-4.24-2.92v-86.03c0-3.24-1.73-6.24-4.54-7.86l-125.85-72.66c-2.22-1.28-5 .32-5 2.89v84.06a11.76 11.76 0 005.87 10.15z" fill="url(#SVGID_15_)"/><radialGradient id="SVGID_16_" cx="-955.94" cy="755.396" r="78.039" gradientTransform="translate(1609.144)" gradientUnits="userSpaceOnUse"><stop offset="0" stop-color="#fff"/><stop offset="1"/></radialGradient><path d="M741.19 839.38c-2.05.78-4.24-.73-4.24-2.92v-86.03c0-3.24-1.73-6.24-4.54-7.86l-125.85-72.66c-1.47-.85-3.16-.42-4.15.7.91-.39 1.98-.4 2.95.16l125.85 72.66a9.075 9.075 0 014.54 7.86v86.03c0 1.63 1.22 2.89 2.69 3.09.96-.15 1.9-.45 2.79-.92l.82-.44-.86.33z" fill="url(#SVGID_16_)"/><linearGradient id="SVGID_17_" gradientUnits="userSpaceOnUse" x1="-958.466" y1="770.524" x2="-945.28" y2="593.177" gradientTransform="translate(1609.144)"><stop offset="0" stop-color="#14a4c4"/><stop offset=".022" stop-color="#149fc1"/><stop offset=".211" stop-color="#177dad"/><stop offset=".403" stop-color="#19629d"/><stop offset=".597" stop-color="#1a4e92"/><stop offset=".794" stop-color="#1b438b"/><stop offset="1" stop-color="#1b3f89"/></linearGradient><path d="M650.97 704.52v9.37l-62.88-36.3c-2.22-1.28-5 .32-5 2.89v115.68l119.96 69.73a8.796 8.796 0 009.06-.13l2.56-1.59a8.02 8.02 0 003.8-6.82V742.96c0-3.24-1.73-6.24-4.54-7.86l-57.98-33.47c-2.2-1.28-4.98.32-4.98 2.89z" fill="url(#SVGID_17_)"/><path class="st39" d="M586.72 678.73l62.88 36.3v-1.94l-61.5-35.51c-1.6-.93-3.48-.34-4.41 1.02.92-.42 2.03-.45 3.03.13z"/><radialGradient id="SVGID_18_" cx="-937.871" cy="754.63" r="48.455" gradientTransform="translate(1609.144)" gradientUnits="userSpaceOnUse"><stop offset="0" stop-color="#fff"/><stop offset="1"/></radialGradient><path d="M713.95 735.1l-57.97-33.47c-1.6-.93-3.48-.34-4.41 1.02.92-.42 2.03-.45 3.03.13l57.97 33.47a9.075 9.075 0 014.54 7.86v114.38c0 2.08-.8 4.04-2.19 5.51a8.016 8.016 0 003.57-6.66V742.96a9.096 9.096 0 00-4.54-7.86z" fill="url(#SVGID_18_)"/><path class="st39" d="M576.92 785.84l135.39 78.17V761.26L576.92 683.1z"/><path class="st312" d="M576.92 789.27l132.99 76.78v-96.09l-132.99-76.78z"/><linearGradient id="SVGID_19_" gradientUnits="userSpaceOnUse" x1="-1030.159" y1="1030.204" x2="-933.945" y2="653.518" gradientTransform="translate(1609.144)"><stop offset="0" stop-color="#14a4c4"/><stop offset=".022" stop-color="#149fc1"/><stop offset=".211" stop-color="#177dad"/><stop offset=".403" stop-color="#19629d"/><stop offset=".597" stop-color="#1a4e92"/><stop offset=".794" stop-color="#1b438b"/><stop offset="1" stop-color="#1b3f89"/></linearGradient><path d="M577.97 793.44l125.31 72.35a8.68 8.68 0 008.48.12l.82-.44-.85.33c-2.05.78-4.24-.73-4.24-2.92v-86.03c0-3.24-1.73-6.24-4.54-7.86L577.1 696.33c-2.22-1.28-5 .32-5 2.89v84.06c.01 4.19 2.24 8.07 5.87 10.16z" fill="url(#SVGID_19_)"/><linearGradient id="SVGID_20_" gradientUnits="userSpaceOnUse" x1="-1036.191" y1="781.363" x2="-896.557" y2="781.363" gradientTransform="translate(1609.144)"><stop offset="0" stop-color="#14a4c4"/><stop offset=".022" stop-color="#149fc1"/><stop offset=".211" stop-color="#177dad"/><stop offset=".403" stop-color="#19629d"/><stop offset=".597" stop-color="#1a4e92"/><stop offset=".794" stop-color="#1b438b"/><stop offset="1" stop-color="#1b3f89"/></linearGradient><path d="M711.73 865.8c-2.05.78-4.24-.73-4.24-2.92v-86.03c0-3.24-1.73-6.24-4.54-7.86L577.1 696.33c-1.47-.85-3.16-.42-4.15.7.91-.39 1.98-.4 2.95.16l125.85 72.66a9.075 9.075 0 014.54 7.86v86.03c0 1.63 1.22 2.89 2.69 3.09.96-.15 1.9-.45 2.79-.92l.82-.44-.86.33z" fill="url(#SVGID_20_)"/><linearGradient id="SVGID_21_" gradientUnits="userSpaceOnUse" x1="-983.131" y1="800.524" x2="-969.945" y2="623.176" gradientTransform="translate(1609.144)"><stop offset="0" stop-color="#14a4c4"/><stop offset=".022" stop-color="#149fc1"/><stop offset=".211" stop-color="#177dad"/><stop offset=".403" stop-color="#19629d"/><stop offset=".597" stop-color="#1a4e92"/><stop offset=".794" stop-color="#1b438b"/><stop offset="1" stop-color="#1b3f89"/></linearGradient><path d="M626.31 734.52v9.37l-62.88-36.3c-2.22-1.28-5 .32-5 2.89v115.68l119.96 69.73a8.796 8.796 0 009.06-.13l2.56-1.59a8.02 8.02 0 003.8-6.82V772.96c0-3.24-1.73-6.24-4.54-7.86l-57.98-33.47c-2.2-1.28-4.98.32-4.98 2.89z" fill="url(#SVGID_21_)"/><path class="st39" d="M562.06 708.73l62.88 36.3v-1.94l-61.5-35.51c-1.6-.93-3.48-.34-4.41 1.02.92-.42 2.02-.45 3.03.13z"/><radialGradient id="SVGID_22_" cx="-962.536" cy="784.63" r="48.455" gradientTransform="translate(1609.144)" gradientUnits="userSpaceOnUse"><stop offset="0" stop-color="#fff"/><stop offset="1"/></radialGradient><path d="M689.28 765.1l-57.97-33.47c-1.6-.93-3.48-.34-4.41 1.02.92-.42 2.03-.45 3.03.13l57.97 33.47a9.075 9.075 0 014.54 7.86v114.38c0 2.08-.8 4.04-2.19 5.51a8.016 8.016 0 003.57-6.66V772.96c0-3.24-1.73-6.24-4.54-7.86z" fill="url(#SVGID_22_)"/><path class="st39" d="M552.26 815.84l135.38 78.17V791.26L552.26 713.1z"/><path class="st312" d="M552.26 819.27l132.98 76.78v-96.09l-132.98-76.78z"/><linearGradient id="SVGID_23_" gradientUnits="userSpaceOnUse" x1="-1054.824" y1="1060.203" x2="-958.611" y2="683.518" gradientTransform="translate(1609.144)"><stop offset="0" stop-color="#14a4c4"/><stop offset=".022" stop-color="#149fc1"/><stop offset=".211" stop-color="#177dad"/><stop offset=".403" stop-color="#19629d"/><stop offset=".597" stop-color="#1a4e92"/><stop offset=".794" stop-color="#1b438b"/><stop offset="1" stop-color="#1b3f89"/></linearGradient><path d="M553.31 823.44l125.31 72.35a8.705 8.705 0 008.48.13l.82-.44-.85.33c-2.05.78-4.24-.73-4.24-2.92v-86.03c0-3.24-1.73-6.24-4.54-7.86l-125.85-72.66c-2.22-1.28-5 .32-5 2.89v84.06c0 4.18 2.24 8.06 5.87 10.15z" fill="url(#SVGID_23_)"/><radialGradient id="SVGID_24_" cx="-1010.061" cy="811.821" r="78.039" gradientTransform="translate(1609.144)" gradientUnits="userSpaceOnUse"><stop offset="0" stop-color="#fff"/><stop offset="1"/></radialGradient><path d="M687.07 895.8c-2.05.78-4.24-.73-4.24-2.92v-86.03c0-3.24-1.73-6.24-4.54-7.86l-125.85-72.66c-1.47-.85-3.16-.42-4.15.7.91-.39 1.98-.4 2.95.16l125.85 72.66a9.075 9.075 0 014.54 7.86v86.03c0 1.63 1.22 2.89 2.69 3.09.96-.15 1.9-.45 2.79-.92l.82-.44-.86.33z" fill="url(#SVGID_24_)"/></g><g id="XMLID_156_"><g id="XMLID_174_"><path id="XMLID_175_" d="M175.16 640.74c1.32 0 2.67-.32 3.91-1a8.196 8.196 0 003.27-11.11l-26.93-49.35a12.095 12.095 0 013.81-15.85l35.22-24.07c3.73-2.56 4.69-7.65 2.14-11.38a8.193 8.193 0 00-11.38-2.14l-35.22 24.07c-12.15 8.3-16 24.3-8.95 37.22l26.93 49.35a8.199 8.199 0 007.2 4.26z" fill="#ef9ea3"/></g><path id="XMLID_173_" class="st1785" d="M274.7 467.82c1.17.45 2.49-.13 2.94-1.3l6.28-16.29c.45-1.17-.13-2.49-1.3-2.94-1.17-.45-2.49.13-2.94 1.3l-6.28 16.29c-.46 1.17.12 2.49 1.3 2.94z"/><linearGradient id="XMLID_110_" gradientUnits="userSpaceOnUse" x1="138.466" y1="805.932" x2="185.733" y2="805.932"><stop offset="0" stop-color="#ff9429"/><stop offset="1" stop-color="#f50"/></linearGradient><path id="XMLID_172_" d="M149.2 821.56l7.64-4.47 7.93-4.58 17.92-10.38c4.48-2.59 3.89-9.23-.97-11a13.49 13.49 0 00-10.5.54l-13.79 6.71-16.74 6.15c-1.4.51-2.3 1.89-2.22 3.38l.25 4.46c.29 5.16 4.56 9.19 9.73 9.19h.75z" fill="url(#XMLID_110_)"/><path id="XMLID_171_" class="st1785" d="M146.5 801.05l10.93-2.68 8.15-3.96c4.02 2.21 4.31 8.12.12 10.54l-12.11 6.91-.6.34c-3.34 1.93-7.58 1.41-10.32-1.3-2.06-2.03-3.79-4.11-3.12-4.97l4.73-1.5c-.08-1.49.82-2.86 2.22-3.38z"/><linearGradient id="XMLID_111_" gradientUnits="userSpaceOnUse" x1="196.71" y1="836.616" x2="247.962" y2="836.616"><stop offset="0" stop-color="#ff9429"/><stop offset="1" stop-color="#f50"/></linearGradient><path id="XMLID_170_" d="M208.35 853.56l8.28-4.85 8.6-4.97 19.43-11.26c4.85-2.81 4.22-10.01-1.05-11.93a14.637 14.637 0 00-11.39.59l-14.95 7.27-18.15 6.67a3.674 3.674 0 00-2.4 3.66l.27 4.84c.32 5.59 4.95 9.97 10.55 9.97h.81z" fill="url(#XMLID_111_)"/><path id="XMLID_169_" class="st1785" d="M205.42 831.33l11.85-2.91 8.83-4.3c4.36 2.4 4.67 8.8.13 11.43l-13.13 7.49-.65.37c-3.62 2.09-8.22 1.53-11.2-1.41-2.23-2.2-4.11-4.46-3.38-5.39l5.13-1.63c-.07-1.61.9-3.1 2.42-3.65z"/><g id="XMLID_167_"><path id="XMLID_168_" class="st1785" d="M146.77 814.43c3.82 0 7.48-2.14 9.24-5.82l35.3-73.66-10.1-82.23c-.69-5.61-5.8-9.58-11.41-8.91-5.61.69-15.74 5.8-15.06 11.41l15.51 76.29-28.62 68.26c-2.44 5.1-4.38 11.21.72 13.66 1.43.68 2.94 1 4.42 1z"/></g><g id="XMLID_165_"><path id="XMLID_166_" class="st1785" d="M207.89 844.7c5.65 0 8.19-4.58 8.19-10.24V646.14c0-5.65-4.58-10.24-10.24-10.24-5.65 0-19.01 7.71-19.01 13.36l8.88 95.91 1.94 89.29c.01 5.65 4.59 10.24 10.24 10.24z"/></g><linearGradient id="XMLID_112_" gradientUnits="userSpaceOnUse" x1="-369.256" y1="613.49" x2="-299.576" y2="613.49" gradientTransform="translate(521.838)"><stop offset="0" stop-color="#7f8aa3"/><stop offset="1" stop-color="#a1a3a9"/></linearGradient><path id="XMLID_164_" d="M155.54 509.47c0-11.86 12.67-19.41 23.1-13.77l.18.1c1.63.88 3.69 2.92 4.66 4.5 15.45 25.38 35.22 31.2 35.22 57.18l-6.06 46.69 7.18 45.56 2.45 79.37c-4.68 3.11-10.64 4.31-17.1 4.04-.6-.02-7.58-.43-9.1-.69-17.5-3.03-33.89-4.19-40.52-17.3l-2.58-33.2a196.722 196.722 0 017.49-67.34l-4.92-105.14z" fill="url(#XMLID_112_)"/><g id="XMLID_162_"><path id="XMLID_163_" class="st1785" d="M191.16 548.86c.45 0 .9-.04 1.36-.11l8.27-1.39c35.95-6.03 66.45-29.41 81.59-62.57l6.83-14.94c1.88-4.11.07-8.97-4.05-10.85-4.11-1.88-8.97-.07-10.85 4.05l-6.83 14.94a93.111 93.111 0 01-69.4 53.22l-8.27 1.39c-4.46.75-7.47 4.97-6.72 9.43.68 4 4.14 6.83 8.07 6.83z"/></g><g id="XMLID_160_"><linearGradient id="XMLID_113_" gradientUnits="userSpaceOnUse" x1="180.933" y1="537.783" x2="226.642" y2="537.783"><stop offset="0" stop-color="#7f8aa3"/><stop offset="1" stop-color="#a1a3a9"/></linearGradient><path id="XMLID_161_" d="M191.16 550.9c.56 0 1.13-.04 1.71-.14l8.27-1.39c6.34-1.06 12.62-2.68 18.67-4.82 5.33-1.88 8.13-7.73 6.25-13.06-1.88-5.33-7.74-8.14-13.06-6.25a91.783 91.783 0 01-15.25 3.93l-8.27 1.39c-5.57.94-9.34 6.21-8.4 11.79.84 5.01 5.17 8.55 10.08 8.55z" fill="url(#XMLID_113_)"/></g><path id="XMLID_159_" class="st1785" d="M180.78 512.08c3.34 0 6.06-2.71 6.06-6.06v-28h-12.11v28c0 3.35 2.71 6.06 6.05 6.06z"/><path id="XMLID_158_" class="st1785" d="M168.47 497.03l12.15 1.61c8.95 1.18 17.2-6.14 16.19-15.11-.06-.49-.14-.97-.24-1.46l-6.22-28.62-29.93 6.5 8.05 37.08z"/><linearGradient id="SVGID_25_" gradientUnits="userSpaceOnUse" x1="141.063" y1="501.251" x2="196.009" y2="501.251"><stop offset="0" stop-color="#121312"/><stop offset=".843" stop-color="#313134"/><stop offset="1" stop-color="#37373b"/></linearGradient><path d="M144.51 529.5c1.1-2.04 2.34-4.11 2.56-6.43.47-4.84-3.49-8.95-4.45-13.72-1.43-7.05 3.47-13.51 3.18-20.51-.32-7.77-2.39-14.24-.07-22.1.35-1.17.76-2.33 1.23-3.46 4.19-10.03 13.98-15.09 24.29-16.78 4.4-.72 8.91-.96 13.34-.37 2.57.34 5.3.7 7.59 1.99.95.53 2.06 1.2 2.61 2.16.84 1.46 1.36 3.3 1.19 4.99-.4 3.93-5.39 5.3-5.83 9.01-.22 1.87 1.02 3.96 1.19 5.85.21 2.47-.19 4.99-1.21 7.25-1.94 4.26-6.01 7.89-5.8 12.57.09 2.08 1.06 4.03 1.36 6.09 1.07 7.33-6.63 12.92-4.61 20.32 1.3 4.77 6.71 8.25 6.21 13.16-.2 1.98-1.39 3.75-1.73 5.71-.69 4.04 2.26 8.4.48 12.08-6.12 12.67-27.34 10.47-37.16 4.98-2.45-1.37-4.83-3.08-6.27-5.49-3.13-5.19-.99-11.94 1.9-17.3z" fill="url(#SVGID_25_)"/><linearGradient id="XMLID_118_" gradientUnits="userSpaceOnUse" x1="1438.003" y1="622.116" x2="1497.315" y2="622.116" gradientTransform="matrix(-1 0 0 1 1654.406 0)"><stop offset="0" stop-color="#ff9429"/><stop offset="1" stop-color="#f50"/></linearGradient><path id="XMLID_157_" d="M186.88 632.55c-10.25 0-20.49-1.52-29.79-4.52.98-4.5 2.07-8.98 3.36-13.42l-.13-2.79c16.26 5.71 37.38 5.67 53.49-.14l2.59 16.43c-9.21 2.95-19.35 4.44-29.52 4.44z" fill="url(#XMLID_118_)"/></g></svg>