<svg version="1.1" id="Layer_1" xmlns="http://www.w3.org/2000/svg" x="0" y="0" viewBox="0 0 910.64 910.64" xml:space="preserve"><style>.st11{fill:#fff}.st13{fill:#ff6310}.st27{enable-background:new}.st96{fill:#011333}.st97{fill:#4d4d4d}.st98{fill:#002e6c}.st100{fill:#f4ebe4}.st101{fill:#282752}.st104{fill:#333}.st105{fill:#f3f2f2}.st106{fill:#ffb2a3}.st107{fill:#004da5}.st115{fill:#ff9200}.st116,.st117{opacity:.2;fill:#ff9200}.st117{opacity:.1}.st118{fill:#e1e1e1}.st119{fill:#fafafa}.st120{fill:#ececec}.st121{fill:#ff3900}.st123{opacity:.3;fill:#ff9200}.st126{fill:#ffb83b}.st127{fill:#ff9d27}.st128{fill:#ffe375}.st129{opacity:.5;fill:#ff9d27}.st130{fill:#9aa651}.st131{fill:#b8ca62}.st132{fill:#eaf6a8}.st133{fill:#747d3d}.st134{fill:#eedfcf}.st135{fill:#ea6c78}.st136{fill:#bf343b}</style><path class="st96" d="M153.79 463.87c0 4.26 2.99 9.44 6.68 11.58 1.85 1.06 3.52 1.17 4.73.47l180.19-104.03c1.21-.7 1.96-2.2 1.96-4.33 0-4.26-2.99-9.45-6.68-11.58-1.85-1.06-3.52-1.17-4.73-.47l-180.2 104.04c-1.21.7-1.95 2.19-1.95 4.32zM353.26 485.93c-5.94-3.43-15.57-3.43-21.5 0-2.97 1.71-4.45 3.96-4.45 6.21v277.74c0 2.25 1.48 4.49 4.45 6.21 5.94 3.43 15.56 3.43 21.5 0 2.97-1.71 4.45-3.96 4.45-6.21V492.14c0-2.24-1.48-4.49-4.45-6.21z"/><path class="st97" d="M684.9 293.27c-5.94-3.43-15.56-3.43-21.5 0-2.97 1.71-4.45 3.96-4.45 6.21v277.74c0 2.25 1.48 4.49 4.45 6.21 5.94 3.43 15.57 3.43 21.5 0 2.97-1.71 4.45-3.96 4.45-6.21V299.48c0-2.25-1.49-4.49-4.45-6.21z"/><path class="st96" d="M163.42 375.93c-5.94-3.43-15.56-3.43-21.5 0-2.97 1.71-4.45 3.96-4.45 6.21v277.74c0 2.25 1.48 4.49 4.45 6.21 5.94 3.43 15.56 3.43 21.5 0 2.97-1.71 4.45-3.96 4.45-6.21V382.14c0-2.25-1.48-4.49-4.45-6.21z"/><path class="st97" d="M492.8 183.26c-5.94-3.43-15.56-3.43-21.5 0-2.97 1.71-4.45 3.96-4.45 6.21v277.74c0 2.25 1.49 4.49 4.45 6.21 5.94 3.43 15.56 3.43 21.5 0 2.97-1.71 4.45-3.96 4.45-6.21V189.46c0-2.24-1.48-4.49-4.45-6.2z"/><path class="st96" d="M699.99 314.94l-357.15 206.2-217.66-125.66v-18.14l357.15-188.06 217.66 107.53z"/><path class="st98" d="M699.99 296.81l-357.15 206.2-217.66-125.67 357.15-206.2z"/><path class="st96" d="M347.35 564.33c0 4.26-2.99 9.45-6.68 11.58-1.85 1.07-3.52 1.17-4.73.47l-180.2-104.04c-1.21-.7-1.96-2.2-1.96-4.33 0-4.26 2.99-9.44 6.68-11.58 1.85-1.06 3.52-1.17 4.73-.47L345.39 560c1.21.7 1.96 2.2 1.96 4.33zM556.87 323.36l-149.25 86.17-94.35-54.47v-5.23l149.26-80.94 94.34 49.23z"/><linearGradient id="SVGID_2_" gradientUnits="userSpaceOnUse" x1="313.273" y1="333.976" x2="556.874" y2="333.976"><stop offset="0" stop-color="#1aa4c4"/><stop offset=".04" stop-color="#189bc0"/><stop offset=".225" stop-color="#1079af"/><stop offset=".414" stop-color="#0a5ea3"/><stop offset=".604" stop-color="#064a99"/><stop offset=".798" stop-color="#033f94"/><stop offset="1" stop-color="#023b92"/></linearGradient><path fill="url(#SVGID_2_)" d="M556.87 318.12L407.62 404.3l-94.35-54.47 149.26-86.18z"/><path class="st100" d="M338.19 344.95l9.17-5.3 6.99 4.04-9.16 5.29zM348.86 338.79l9.16-5.29 6.99 4.03-9.16 5.3zM359.52 332.63l9.16-5.29 7 4.04-9.17 5.29zM370.18 326.48l9.17-5.29 6.99 4.03-9.17 5.29zM380.84 320.32l9.17-5.29 6.99 4.04-9.16 5.29zM391.51 314.17l9.16-5.29 6.99 4.03-9.16 5.29zM402.17 308.01l9.16-5.29 6.99 4.04-9.16 5.29zM412.83 301.85l9.16-5.29 7 4.04-9.17 5.29zM423.49 295.7l9.17-5.29 6.99 4.03-9.17 5.3zM434.15 289.54l9.17-5.29 6.99 4.04-9.16 5.29zM444.82 283.39l9.16-5.29 6.99 4.03-9.16 5.29zM350.73 352.18l9.17-5.29 6.99 4.04-9.17 5.29zM361.39 346.03l9.17-5.29 6.99 4.03-9.16 5.29zM372.06 339.87l9.16-5.29 6.99 4.04-9.16 5.29zM382.72 333.72l9.16-5.3 6.99 4.04-9.16 5.29zM393.38 327.56l9.16-5.29 7 4.04-9.17 5.29zM404.04 321.4l9.17-5.29 6.99 4.04-9.17 5.29zM414.7 315.25l9.17-5.29 6.99 4.03-9.16 5.3zM425.37 309.09l9.16-5.29 6.99 4.04-9.16 5.29zM436.03 302.94l9.16-5.29 7 4.03-9.17 5.29zM446.69 296.78l9.17-5.29 6.99 4.04-9.17 5.29zM457.35 290.62l9.17-5.29 6.99 4.04-9.16 5.29zM358.75 356.81l9.16-5.29 6.99 4.04-9.16 5.29zM369.41 350.66l9.16-5.3 7 4.04-9.17 5.29zM380.07 344.5l9.17-5.29 6.99 4.03-9.17 5.3zM390.73 338.34l9.17-5.29 6.99 4.04-9.16 5.29zM401.4 332.19l9.16-5.29 6.99 4.03-9.16 5.3zM412.06 326.03l9.16-5.29 6.99 4.04-9.16 5.29zM422.72 319.88l9.16-5.3 7 4.04-9.17 5.29zM433.38 313.72l9.17-5.29 6.99 4.04-9.17 5.29zM444.04 307.56l9.17-5.29 6.99 4.04-9.16 5.29zM454.71 301.41l9.16-5.29 6.99 4.03-9.16 5.3zM366.76 361.44l9.17-5.29 6.99 4.04-9.16 5.29zM377.43 355.28l9.16-5.29 6.99 4.04-9.16 5.29zM388.09 349.13l9.16-5.29 6.99 4.03-9.16 5.29zM398.75 342.97l9.16-5.29 7 4.04-9.17 5.29zM409.41 336.82l9.17-5.3 6.99 4.04-9.17 5.29zM420.07 330.66l9.17-5.29 6.99 4.04-9.16 5.29zM430.74 324.5l9.16-5.29 6.99 4.04-9.16 5.29zM441.4 318.35l9.16-5.29 7 4.03-9.17 5.3zM452.06 312.19l9.17-5.29 6.99 4.04-9.17 5.29z"/><path class="st100" d="M465.37 295.25l8.01 4.63-10.66 6.16 6.99 4.03 10.67-6.15 2.67-1.55 6.49-3.74-5.95-3.44-1.04-.6-8.02-4.63zM388.23 358.3l-2.79 1.61-10.66 6.16 6.99 4.03 10.66-6.15 2.8-1.61 6.37-3.68-6.99-4.04zM396.1 353.76l9.17-5.3 6.99 4.04-9.16 5.29zM406.77 347.6l9.16-5.29 6.99 4.04-9.16 5.29zM417.43 341.44l9.16-5.29 6.99 4.04-9.16 5.29zM428.09 335.29l9.17-5.29 6.99 4.03-9.17 5.29zM438.75 329.13l9.17-5.29 6.99 4.04-9.17 5.29zM449.41 322.98l9.17-5.29 6.99 4.03-9.16 5.29zM460.08 316.82l9.16-5.29 6.99 4.04-9.16 5.29zM479.9 305.37l-1.56.91-7.6 4.39 6.99 4.03 7.6-4.38 1.57-.91 10.66-6.15-6.99-4.04zM382.8 370.7l9.16-5.3 6.99 4.04-9.16 5.29zM393.46 364.54l9.16-5.29 7 4.04-9.17 5.29zM404.12 358.38l9.16-5.29 7 4.04-9.17 5.29zM462.01 324.96l-4.58 2.64-1.5.87-9.16 5.29-1.5.87-9.16 5.29-1.5.86-9.17 5.29-10.66 6.16 6.99 4.04 10.67-6.16 9.16-5.29 1.5-.87 9.16-5.29 1.5-.86 9.17-5.29 1.49-.87 4.59-2.64 4.58-2.65-6.99-4.04zM468.09 321.45l9.17-5.29 6.99 4.04-9.16 5.29zM478.76 315.29l9.16-5.29 6.99 4.04-9.16 5.29zM489.42 309.14l9.16-5.29 6.99 4.03-9.16 5.29z"/><path class="st101" d="M485.93 346.4l-29.43 16.99-18.46-10.66 29.42-16.99z"/><path class="st96" d="M458.38 262.29l-145.11 87.54-4.14-1.37-28.57-106.75 149.25-86.17 4.15 1.36z"/><linearGradient id="SVGID_3_" gradientUnits="userSpaceOnUse" x1="284.705" y1="253.365" x2="462.529" y2="253.365"><stop offset="0" stop-color="#1aa4c4"/><stop offset=".04" stop-color="#189bc0"/><stop offset=".225" stop-color="#1079af"/><stop offset=".414" stop-color="#0a5ea3"/><stop offset=".604" stop-color="#064a99"/><stop offset=".798" stop-color="#033f94"/><stop offset="1" stop-color="#023b92"/></linearGradient><path fill="url(#SVGID_3_)" d="M462.53 263.65l-149.26 86.18-28.57-106.75 149.26-86.18z"/><path class="st13" d="M289.93 245.24l141.2-81.52 26.17 97.77-141.2 81.52z"/><g><path class="st11" d="M447.29 262.43l-121.58 69.95-23.44-86.56 121.58-69.94z"/><path class="st101" d="M345.64 264.79l-25.95 14.93-2.73-10.09 25.95-14.93 2.73 10.09zm-25.66 14.2l25.11-14.45-2.46-9.1-25.11 14.45 2.46 9.1z"/><path class="st101" d="M361.88 255.45l-16.65 9.58-2.73-10.09 16.65-9.58 2.73 10.09zm-16.37 8.85l15.82-9.1-2.47-9.1-15.82 9.1 2.47 9.1z"/><path class="st101" d="M378.12 246.11l-16.65 9.58-2.73-10.09 16.65-9.58 2.73 10.09zm-16.37 8.85l15.82-9.1-2.47-9.1-15.82 9.1 2.47 9.1z"/><path class="st101" d="M394.35 236.77l-16.65 9.58-2.73-10.09 16.65-9.58 2.73 10.09zm-16.37 8.85l15.82-9.1-2.47-9.1-15.82 9.1 2.47 9.1z"/><path class="st101" d="M410.59 227.43l-16.65 9.58-2.73-10.09 16.65-9.58 2.73 10.09zm-16.37 8.85l15.82-9.1-2.46-9.1-15.82 9.1 2.46 9.1z"/><path class="st101" d="M426.82 218.09l-16.65 9.58-2.73-10.09 16.65-9.58 2.73 10.09zm-16.37 8.85l15.82-9.1-2.47-9.1-15.82 9.1 2.47 9.1zM421.55 198.64l-34.44 19.81-1.97-7.27 34.44-19.81 1.97 7.27zm-34.15 19.08l33.6-19.33-1.7-6.28-33.6 19.33 1.7 6.28zM347.44 271.43l-25.95 14.93-1.93-7.14 25.95-14.93 1.93 7.14zm-25.66 14.2l25.11-14.45-1.66-6.15-25.11 14.45 1.66 6.15z"/><path class="st101" d="M363.68 262.09l-16.65 9.58-1.93-7.14 16.65-9.58 1.93 7.14zm-16.37 8.85l15.82-9.1-1.66-6.15-15.82 9.1 1.66 6.15z"/><path class="st101" d="M379.91 252.75l-16.65 9.58-1.93-7.14 16.65-9.58 1.93 7.14zm-16.37 8.85l15.82-9.1-1.66-6.15-15.82 9.1 1.66 6.15z"/><path class="st101" d="M396.15 243.41l-16.65 9.58-1.93-7.14 16.65-9.58 1.93 7.14zm-16.37 8.85l15.82-9.1-1.67-6.15-15.82 9.1 1.67 6.15z"/><path class="st101" d="M412.38 234.07l-16.65 9.58-1.93-7.14 16.65-9.58 1.93 7.14zm-16.36 8.85l15.82-9.1-1.66-6.15-15.82 9.1 1.66 6.15z"/><path class="st101" d="M428.62 224.73l-16.65 9.58-1.93-7.14 16.65-9.58 1.93 7.14zm-16.37 8.85l15.82-9.1-1.66-6.15-15.82 9.1 1.66 6.15zM349.24 278.08l-25.95 14.93-1.93-7.14 25.95-14.93 1.93 7.14zm-25.66 14.19l25.11-14.45-1.67-6.15-25.11 14.45 1.67 6.15z"/><path class="st101" d="M365.48 268.74l-16.65 9.58-1.93-7.14 16.65-9.58 1.93 7.14zm-16.37 8.84l15.82-9.1-1.66-6.15-15.82 9.1 1.66 6.15z"/><path class="st101" d="M381.71 259.4l-16.65 9.58-1.93-7.14 16.65-9.58 1.93 7.14zm-16.37 8.84l15.82-9.1-1.66-6.15-15.82 9.1 1.66 6.15z"/><path class="st101" d="M397.95 250.06l-16.65 9.58-1.93-7.14 16.65-9.58 1.93 7.14zm-16.37 8.84l15.82-9.1-1.66-6.15-15.82 9.1 1.66 6.15z"/><path class="st101" d="M414.18 240.72l-16.65 9.58-1.93-7.14 16.65-9.58 1.93 7.14zm-16.37 8.84l15.82-9.1-1.67-6.15-15.82 9.1 1.67 6.15z"/><path class="st101" d="M430.42 231.37l-16.65 9.58-1.93-7.14 16.65-9.58 1.93 7.14zm-16.37 8.85l15.82-9.1-1.66-6.15-15.82 9.1 1.66 6.15zM351.04 284.72l-25.95 14.93-1.93-7.14 25.95-14.93 1.93 7.14zm-25.66 14.19l25.11-14.45-1.67-6.15-25.11 14.45 1.67 6.15z"/><path class="st101" d="M367.27 275.38l-16.65 9.58-1.93-7.14 16.65-9.58 1.93 7.14zm-16.36 8.85l15.82-9.1-1.66-6.15-15.82 9.1 1.66 6.15z"/><path class="st101" d="M383.51 266.04l-16.65 9.58-1.93-7.14 16.65-9.58 1.93 7.14zm-16.37 8.85l15.82-9.1-1.66-6.15-15.82 9.1 1.66 6.15z"/><path class="st101" d="M399.75 256.7l-16.65 9.58-1.93-7.14 16.65-9.58 1.93 7.14zm-16.37 8.85l15.82-9.1-1.66-6.15-15.82 9.1 1.66 6.15z"/><path class="st101" d="M415.98 247.36l-16.65 9.58-1.93-7.14 16.65-9.58 1.93 7.14zm-16.37 8.84l15.82-9.1-1.67-6.15-15.82 9.1 1.67 6.15z"/><path class="st101" d="M432.22 238.02l-16.65 9.58-1.93-7.14 16.65-9.58 1.93 7.14zm-16.37 8.84l15.82-9.1-1.66-6.15-15.82 9.1 1.66 6.15zM352.84 291.36l-25.95 14.93-1.93-7.14 25.95-14.93 1.93 7.14zm-25.67 14.2l25.11-14.45-1.66-6.15-25.11 14.45 1.66 6.15z"/><path class="st101" d="M369.07 282.02l-16.65 9.58-1.93-7.14 16.65-9.58 1.93 7.14zm-16.37 8.85l15.82-9.1-1.67-6.15-15.82 9.1 1.67 6.15z"/><path class="st101" d="M385.31 272.68l-16.65 9.58-1.93-7.14 16.65-9.58 1.93 7.14zm-16.37 8.85l15.82-9.1-1.67-6.15-15.82 9.1 1.67 6.15z"/><path class="st101" d="M401.54 263.34l-16.65 9.58-1.93-7.14 16.65-9.58 1.93 7.14zm-16.36 8.85l15.82-9.1-1.66-6.15-15.82 9.1 1.66 6.15z"/><path class="st101" d="M417.78 254l-16.65 9.58-1.93-7.14 16.65-9.58 1.93 7.14zm-16.37 8.85l15.82-9.1-1.66-6.15-15.82 9.1 1.66 6.15z"/><path class="st101" d="M434.01 244.66l-16.65 9.58-1.93-7.14 16.65-9.58 1.93 7.14zm-16.36 8.85l15.82-9.1-1.67-6.15-15.82 9.1 1.67 6.15zM354.64 298l-25.95 14.93-1.93-7.14 25.95-14.93 1.93 7.14zm-25.67 14.2l25.11-14.45-1.66-6.15-25.11 14.45 1.66 6.15z"/><path class="st101" d="M370.87 288.66l-16.65 9.58-1.93-7.14 16.65-9.58 1.93 7.14zm-16.37 8.85l15.82-9.1-1.67-6.15-15.82 9.1 1.67 6.15z"/><path class="st101" d="M387.11 279.32l-16.65 9.58-1.93-7.14 16.65-9.58 1.93 7.14zm-16.37 8.85l15.82-9.1-1.67-6.15-15.82 9.1 1.67 6.15z"/><path class="st101" d="M403.34 269.98l-16.65 9.58-1.93-7.14 16.65-9.58 1.93 7.14zm-16.37 8.85l15.82-9.1-1.67-6.15-15.82 9.1 1.67 6.15z"/><path class="st101" d="M419.58 260.64l-16.65 9.58-1.93-7.14 16.65-9.58 1.93 7.14zm-16.37 8.85l15.82-9.1-1.66-6.15-15.82 9.1 1.66 6.15z"/><path class="st101" d="M435.81 251.3l-16.65 9.58-1.93-7.14 16.65-9.58 1.93 7.14zm-16.37 8.85l15.82-9.1-1.67-6.15-15.82 9.1 1.67 6.15zM356.43 304.65l-25.95 14.93-1.93-7.14 25.95-14.93 1.93 7.14zm-25.66 14.19l25.11-14.45-1.66-6.15-25.11 14.45 1.66 6.15z"/><path class="st101" d="M372.67 295.31l-16.65 9.58-1.93-7.14 16.65-9.58 1.93 7.14zm-16.37 8.84l15.82-9.1-1.66-6.15-15.82 9.1 1.66 6.15z"/><path class="st101" d="M388.91 285.97l-16.65 9.58-1.93-7.14 16.65-9.58 1.93 7.14zm-16.37 8.84l15.82-9.1-1.66-6.15-15.82 9.1 1.66 6.15z"/><path class="st101" d="M405.14 276.63l-16.65 9.58-1.93-7.14 16.65-9.58 1.93 7.14zm-16.37 8.84l15.82-9.1-1.67-6.15-15.82 9.1 1.67 6.15z"/><path class="st101" d="M421.38 267.29l-16.65 9.58-1.93-7.14 16.65-9.58 1.93 7.14zm-16.37 8.84l15.82-9.1-1.66-6.15-15.82 9.1 1.66 6.15z"/><path class="st101" d="M437.61 257.94l-16.65 9.58-1.93-7.14 16.65-9.58 1.93 7.14zm-16.37 8.85l15.82-9.1-1.66-6.15-15.82 9.1 1.66 6.15zM358.86 239.38l-43.13 24.81-.35-1.31 43.13-24.82zM422.54 202.74l-25.53 14.69-.35-1.32 25.53-14.68zM329.57 248.12l-15.74 9.05-.35-1.31 15.73-9.05zM338.06 262.05l-15.73 9.05-.35-1.31 15.73-9.05zM340.74 271.93l-15.73 9.05-.36-1.32 15.73-9.05zM336.94 281.79l-10.14 5.83-.35-1.31 10.13-5.83zM336.47 289.74l-7.87 4.52-.35-1.31 7.86-4.53zM346.13 291.86l-15.73 9.05-.36-1.32 15.74-9.05zM347.93 298.5l-15.73 9.05-.36-1.32 15.73-9.05zM345.64 307.49l-11.64 6.7-.36-1.31 11.64-6.7zM332.89 268.82l-9.67 5.56-.36-1.31 9.67-5.57zM355.89 251.8l-8.93 5.13-.35-1.31 8.92-5.14zM353.33 257.06l-5.48 3.15-.36-1.32 5.49-3.15zM357.31 262.4l-5.49 3.15-.35-1.31 5.48-3.16zM359.1 269.04l-5.48 3.15-.36-1.31 5.49-3.16zM360.9 275.68l-5.48 3.16-.36-1.32 5.49-3.15zM362.7 282.32l-5.48 3.16-.36-1.32 5.48-3.15zM364.5 288.97l-5.48 3.15-.36-1.31 5.48-3.16zM373.59 253.02l-5.48 3.16-.35-1.32 5.48-3.15zM375.39 259.67l-5.48 3.15-.36-1.31 5.49-3.16zM378.99 272.95l-5.48 3.16-.36-1.32 5.48-3.15zM380.79 279.6l-5.48 3.15-.36-1.32 5.48-3.15zM382.59 286.24l-5.49 3.15-.35-1.31 5.48-3.16zM389.88 243.65l-5.48 3.16-.36-1.32 5.49-3.15zM391.68 250.3l-5.48 3.15-.36-1.31 5.49-3.16zM393.48 256.94l-5.48 3.15-.36-1.31 5.48-3.16zM395.28 263.58l-5.48 3.16-.36-1.32 5.48-3.15zM397.08 270.22l-5.49 3.16-.35-1.32 5.48-3.15zM398.88 276.87l-5.49 3.15-.35-1.31 5.48-3.16zM406.17 234.28l-5.48 3.16-.36-1.32 5.49-3.15zM409.77 247.57l-5.48 3.15-.36-1.31 5.48-3.16zM411.57 254.21l-5.48 3.15-.36-1.31 5.48-3.16zM415.17 267.5l-5.49 3.15-.35-1.32 5.48-3.15zM422.46 224.91l-5.48 3.15-.36-1.31 5.49-3.16zM424.26 231.55l-5.48 3.16-.36-1.32 5.49-3.15zM426.06 238.2l-5.48 3.15-.36-1.32 5.48-3.15zM427.86 244.84l-5.48 3.15-.36-1.31 5.48-3.16zM429.66 251.48l-5.49 3.16-.35-1.32 5.48-3.16z"/><path class="st101" d="M431.46 258.12l-5.49 3.16-.35-1.32 5.48-3.15zM372.62 242.17l-8.92 5.13-.36-1.31 8.93-5.14zM370.07 247.43l-5.48 3.15-.36-1.31 5.48-3.16zM389.36 234.82l-8.93 5.14-.35-1.32 8.92-5.13zM401.53 225.54l-5.43 3.13-.36-1.32 5.43-3.12zM406.5 226.47l-9.52 5.47-.35-1.31 9.52-5.48zM421.22 214.21l-8.92 5.14-.36-1.32 8.92-5.13zM422.11 217.49l-8.93 5.13-.35-1.31 8.92-5.14zM417.42 197.58l-15.73 9.05-.36-1.31 15.73-9.05zM398.65 208.38l-9.4 5.4-.35-1.31 9.39-5.41zM338.5 239.31L312.97 254l-.53-1.98 25.53-14.69z"/></g><path d="M601.03 429.37s-70.17-39.6-98.46-8.47c-24.03 26.45 23.98 140.24 19.52 186.08-8.43 7.6-17.85 8.33-28.01 3.82-15.39 1.98-21.92 8.24-24.19 16.55v12.73l31.19 13.37 57.29 7 2.55-26.73c-10.76-44.25-4.46-87.85-5.73-136.86l103.76 59.84 71.3-13.37 18.46-92.3-147.68-21.66z" fill="#f29b79"/><path class="st96" d="M496.9 611.9c-8.88 1.3-14.98 5.59-19.91 11.15-2.38 2.68-2.16 6.8.48 9.22 5.27 4.83 14.42 12.22 22.67 13.85 25.78 5.09 51.88-16.39 60.35-14.29 8.26 9.83 10.34 22.47 7.76 37.21 0 0-9.39 9.71-24.51 8.12-10.05-1.06-25.78-12.25-25.78-12.25-19.61-2.94-37.67-10.49-54.43-21.96-7.44-9.38-12.29-18.89-12.73-28.65 0-8.28 6.37-11.3 14.64-10.18l31.46 7.78zM471.3 773.37c0 5.56-4.51 10.07-10.07 10.07-5.56 0-10.07-4.51-10.07-10.07s4.51-10.07 10.07-10.07c5.56.01 10.07 4.51 10.07 10.07zM627.32 819.39c0 5.56-4.51 10.07-10.07 10.07-5.56 0-10.07-4.51-10.07-10.07 0-5.56 4.51-10.07 10.07-10.07 5.57.01 10.07 4.51 10.07 10.07zM748.39 748.69c0 5.56-4.51 10.07-10.07 10.07s-10.07-4.51-10.07-10.07c0-5.56 4.51-10.07 10.07-10.07s10.07 4.51 10.07 10.07z"/><path class="st104" d="M673.13 656.71c0 5.56-4.51 10.07-10.06 10.07-5.56 0-10.07-4.51-10.07-10.07 0-5.56 4.51-10.07 10.07-10.07 5.56 0 10.06 4.51 10.06 10.07zM496.17 675.12c0 5.56-4.51 10.07-10.07 10.07-5.56 0-10.07-4.51-10.07-10.07 0-5.56 4.51-10.07 10.07-10.07 5.56 0 10.07 4.51 10.07 10.07z"/><g><path class="st98" d="M622.59 716.64l49.1-65.66v-4.34l-14.45.09-63.14 61.52c-4.3-.05-8.59.35-12.7 1.17l-92.98-47.25-11.46 2.28v4.34l81.84 53.68c-1.42 2.37-2.1 4.85-2.02 7.33l-106.56 32.11v4.34l7.36 8.34 113.72-28.35c3.52 1.54 7.39 2.68 11.46 3.39l27.11 69.76 16.01-1.46v-4.34l-11.56-66.86c1.74-.7 3.42-1.48 4.97-2.38 1.55-.9 2.91-1.86 4.12-2.87l123.32 6.67 2.54-9.24v-4.34l-120.82-11.31c-1.22-2.35-3.19-4.59-5.86-6.62z"/></g><g><path class="st105" d="M622.59 699.24l49.1-52.6-14.45-4.25-63.14 48.46c-4.3-.05-8.59.35-12.7 1.17l-92.98-34.19-11.46 6.62 81.84 40.62c-1.42 2.37-2.1 4.85-2.02 7.33l-106.56 49.51 7.36 8.34 113.72-41.41c3.52 1.54 7.39 2.68 11.46 3.39l27.11 82.82 16.01-1.46-11.56-84.26c1.74-.7 3.42-1.48 4.97-2.38 1.55-.9 2.91-1.86 4.12-2.87l123.32 19.73 2.54-9.24-120.82-28.71c-1.22-2.35-3.19-4.59-5.86-6.62z"/></g><g><path class="st98" d="M609.41 616.07c-.86-.87-1.92-1.69-3.21-2.44-7.66-4.43-20.09-4.43-27.75 0-1.29.74-2.35 1.56-3.21 2.44h-2.54v92.4c0 2.9 1.92 5.8 5.75 8.01 7.66 4.42 20.09 4.42 27.75 0 3.83-2.21 5.75-5.11 5.75-8.01v-92.4h-2.54z"/><path class="st98" d="M606.21 608.05c7.66 4.43 7.66 11.6 0 16.02-7.66 4.43-20.09 4.43-27.75 0-7.66-4.42-7.66-11.6 0-16.02s20.08-4.42 27.75 0z"/><path class="st98" d="M617.37 551.19c-2.81-2.87-7.17-5.36-13.26-7.02a45.048 45.048 0 00-23.56 0c-6.09 1.65-10.45 4.15-13.26 7.02h-3.72v70.25c0 5.89 5.39 11.78 16.17 14.98a44.329 44.329 0 0025.16 0c10.78-3.21 16.17-9.1 16.17-14.98v-70.25h-3.7z"/><path class="st98" d="M604.91 536.21c21.57 6.42 21.57 23.55 0 29.97a44.329 44.329 0 01-25.16 0c-21.57-6.42-21.57-23.55 0-29.97a44.154 44.154 0 0125.16 0z"/></g><path class="st97" d="M632.8 280.44c-5.14-2.97-13.47-2.97-18.61 0-2.57 1.48-3.86 3.43-3.86 5.37v289.75c0 1.95 1.29 3.89 3.86 5.37 5.14 2.97 13.47 2.97 18.61 0 2.57-1.48 3.86-3.43 3.86-5.37V285.81c-.01-1.94-1.29-3.89-3.86-5.37z"/><path class="st106" d="M541.72 320.57l-19.64-12.12-23.12-18.6-18.98-3.47-11.7.78c-.86.06-1.7.34-2.42.83l-2.18 1.47-2.93.56a4.886 4.886 0 00-3.87 3.79l-2.92 2.19c-1.29 1.47-.12 4.15 1.83 4.11l4.01-.76 7.34.77 12.18 3.96 8.14 10.44s-.89 2.75-1.37 2.98c-4.22 2.01-12.04 2.88-12.04 2.88l-4.1.05c-3.44 1.62-4.9 4.8-1.2 5.79l5.74 1.27 22.11 1.8 16.54-2.41 19.55 11.04 9.03-17.35zM536.02 488.35s-78.66-43.86-106.94-12.73c-24.03 26.45 32.47 144.5 28.01 190.33-8.44 7.6-17.85 8.33-28.01 3.82-15.39 1.98-21.92 8.24-24.19 16.55v12.73l31.19 13.37 57.29 7 2.55-26.74c-10.76-44.25-4.46-87.85-5.73-136.86l103.76 59.84 71.29-13.37L683.7 510l-147.68-21.65z"/><g><path class="st107" d="M631.07 696.59l135.86-78.92c2.26-1.31 3.65-4.11 3.64-8.1l-.05-18.45c-.02-7.97-5.64-17.65-12.56-21.61l-150.68-86.47c-3.46-1.98-6.58-2.16-8.84-.85L462.58 561.1l168.49 135.49z"/></g><path class="st96" d="M431.89 670.88c-8.88 1.3-14.98 5.59-19.91 11.15-2.38 2.68-2.16 6.8.48 9.23 5.27 4.83 14.42 12.22 22.67 13.85 25.78 5.09 51.88-16.39 60.35-14.29 8.26 9.83 10.34 22.47 7.76 37.21 0 0-9.39 9.71-24.51 8.12-10.06-1.06-25.78-12.25-25.78-12.25-19.61-2.94-37.67-10.5-54.43-21.96-7.44-9.38-12.3-18.89-12.73-28.65 0-8.28 6.37-11.3 14.64-10.18l31.46 7.77z"/><path class="st98" d="M726.35 546.28c-13.24 57.9-55.56 79.82-110.13 79.88-61.31-6.75-117.03-53.19-171.19-110.43-1.91-6.09-3.08-12.12-3.31-18.05-1.02-24.75 13.85-48.15 56.09-69.16l137.5 25.08 75.32 13.75c.01 0 25.9 34.37 15.72 78.93z"/><path d="M635.32 453.6l-64.09 86.32c-33.89-49.65-85.91-3.69-129.5-42.24-1.02-24.75 13.85-48.15 56.09-69.16l137.5 25.08z" opacity=".5" fill="#152d59"/><path class="st106" d="M538.13 318.36c-10.48 2.89-16.47 4.98-14.89 14.23 31.08 19.96 49.36 47.9 87.32 47.57l88.28-43.49c1.15-21.73-15.14-68.43-46.45-56.16l-52.78 54.96-61.48-17.11z"/><path class="st13" d="M728.72 517c-28.82 27.09-64.96 45.35-96.35 47.95-30.2 2.52-56.02-9.45-66.71-41.91 3.03-24.39 6.49-50.19-3.54-74.78 0 0-11.86-2.04-22.03-10.49-7.61-6.29-14.26-16.19-14.26-31.52.03-24.37 45.4-71.3 45.4-71.3 27.02-29.87 48.82-46.91 81.16-54.43 0 0 40.25 9.65 46.05 52.98 7 52.2-6.47 71.47 8.17 114.12 12.1 20.36 17.83 39.46 22.11 69.38z"/><path class="st106" d="M583.67 278.86l2.2 43.36c16.97 13.48 63.5-1.14 55.05-21.28l-7.2-39.04-50.05 16.96zM412.33 424.06l-11.55-16.23-13.36-5.91-16.32-18.32-8.16-6.32-3.54-.43-4.91-.78c-4.72-.36-4.67-5.51.02-5.83l9 .23 9.32 3.85.87-2.24-9.63-8.76-6.21-2.62c-2.93-.44-3.85-5.23.64-6.09l6.44.26 4.4-1.72c2.22-.87 4.67-.95 6.95-.24l4.24 1.33 6.25-2.67c2.09-.9 4.52-.48 6.19 1.06l8.06 7.43 8.8 10.64s5.37 2.06 8.98 7.8c2.3 3.65.66 16.98.66 16.98l12.85 12.24-19.99 16.34z"/><path d="M632.77 564.74c-30.61 2.72-56.42-9.24-67.12-41.71 3.03-24.39 6.49-50.19-3.54-74.78 0 0-11.86-2.04-22.03-10.49l1.65-17.24 49.65-21.31c26.12 62.41-50.35 145.87 41.39 165.53z" fill="#e3ccb3"/><path class="st106" d="M400.78 407.83c11.46 33.53 47.12 73.17 64.95 79.53 37.94-8.26 75.92-38.22 114.29-66.86 26.74-17.4.77-61.49-31.97-40.89 0 0-78.45 57.48-79.72 57.48-1.27 0-48.87-41.6-48.87-41.6-9.51 1.08-16.41 5.13-18.68 12.34z"/><path class="st98" d="M676.17 377.61l-2.76 119.79-30.87 158.89 136.07-78.56c.72-.43 1.37-.97 1.93-1.67 31.85-39.66 64.89-110.18 54.04-254.83-.61-8.13-6.3-17.36-13.07-21.26-3.61-2.09-6.9-2.28-9.28-.9.01-.02-136.06 78.54-136.06 78.54z"/><path class="st107" d="M613.66 644.4l18.82 10.86c4.86 2.8 9.4 2.59 12-.65 31.85-39.66 64.89-110.18 54.04-254.83-.61-8.13-6.3-17.36-13.07-21.26-6.88-3.97-12.58-1.13-13.08 6.5-5.99 92.72-22.31 174.72-67.61 235.97-4.17 5.64.78 18.72 8.9 23.41z"/><path d="M471.55 609.27l150.68 86.47c6.91 3.97 12.5.72 12.48-7.25l-.05-18.45c-.02-7.97-5.64-17.65-12.55-21.61l-150.68-86.47c-6.91-3.97-12.5-.72-12.48 7.25l.05 18.45c.01 7.96 5.64 17.64 12.55 21.61z" fill="#024589"/><path class="st106" d="M558.04 206.15c-3.11 5.33-4.37 11.53-5 17.67-2.03 19.79 2.15 40.16 11.79 57.55 2.35 4.23 5.06 8.35 8.75 11.49 3.69 3.14 8.47 5.22 13.29 4.86 7.09-.54 12.69-5.99 17.53-11.19 4.27-4.59 8.62-9.51 10.14-15.59 1.65-6.6-.31-13.54-2.68-19.92-5.4-14.56-13.07-28.27-22.61-40.52-3.67-4.71-8.99-13.44-15.27-14.75-6.41-1.33-13.06 5.45-15.94 10.4z"/><path d="M552.94 203.08s-32.29 62.48 64.15 90.63c0 0 3.81 2.72 19.53-5.18 13.35-22.97 47.8-77.55-11.52-103.72-37.77-16.66-78.54-2.16-72.16 18.27z" fill="#422e13"/><path d="M616.77 296.85c-.92 7.2-3.5 14.1-4.62 21.27-3.67 23.4 10.33 48.42 32.19 57.54-7.95-22.98 16.41-48.09 8.22-70.98-3.48-9.73-12.13-16.51-20.37-22.75-3.24-2.45-6.55-4.94-10.39-6.3-7.26-2.56-8.59-1.31-7.54 4.45 1.07 5.99 3.35 10.22 2.51 16.77z" fill="#33210c"/><g><path id="XMLID_85_" class="st96" d="M268.42 409.84v6.39c.07.37.19.74.39 1.09l5.74 9.92c.93 1.61 2.98 3.66 4.59 4.59l48.73 28.15c1.61.93 4.21.93 5.82 0l44.16-25.51c.81-.46 1.21-1.07 1.21-1.68v-5.25c0-.6-.4-1.21-1.21-1.68l-48.73-28.15c-1.61-.93-3.66-2.98-4.59-4.58l-5.73-9.93c-.93-1.6-2.99-2.16-4.59-1.23l-44.18 25.51c-.9.53-1.47 1.41-1.61 2.36z"/><path id="XMLID_84_" class="st96" d="M330.75 398.66l47.09 27.2c.81.47 1.21 1.07 1.21 1.68v5.25c0 .6-.4 1.22-1.21 1.68l-44.16 25.51c-.81.47-1.87.7-2.93.7v-62.02z"/><linearGradient id="XMLID_2_" gradientUnits="userSpaceOnUse" x1="268.368" y1="418.476" x2="379.053" y2="418.476"><stop offset="0" stop-color="#1aa4c4"/><stop offset=".04" stop-color="#189bc0"/><stop offset=".225" stop-color="#1079af"/><stop offset=".414" stop-color="#0a5ea3"/><stop offset=".604" stop-color="#064a99"/><stop offset=".798" stop-color="#033f94"/><stop offset="1" stop-color="#023b92"/></linearGradient><path id="XMLID_83_" d="M268.42 410.99c.07.37.19.74.39 1.09l.64 1.11 5.1 8.81c.93 1.61 2.98 3.66 4.59 4.59l48.73 28.15c1.61.93 4.21.93 5.82 0l42.53-24.55 1.63-.95c.81-.47 1.21-1.07 1.21-1.68 0-.6-.4-1.21-1.21-1.68l-48.73-28.15c-1.61-.93-3.66-2.98-4.59-4.58l-5.73-9.93c-.93-1.6-2.99-2.16-4.59-1.23l-44.18 25.51c-.91.53-1.48 1.41-1.62 2.36-.06.35-.06.75.01 1.13z" fill="url(#XMLID_2_)"/><path id="XMLID_82_" d="M319.45 394.25l-3.31-5.48a2.293 2.293 0 00-3.09-.8l-37.02 21.37a2.181 2.181 0 00-.78 3.03l3.31 5.48a2.293 2.293 0 003.09.8l37.02-21.37c1.07-.61 1.42-1.97.78-3.03z" fill="#00dfbf"/><path id="XMLID_81_" class="st11" d="M319.45 394.25l-3.31-5.48a2.293 2.293 0 00-3.09-.8l-37.02 21.37a2.181 2.181 0 00-.78 3.03l3.31 5.48a2.293 2.293 0 003.09.8l37.02-21.37c1.07-.61 1.42-1.97.78-3.03z"/><g id="XMLID_77_"><path id="XMLID_80_" class="st115" d="M297.37 424.27l-4.63 2.68c-.51.29-1.33.29-1.84 0l-2.48-1.43c-.25-.14-.36-.33-.36-.51v-1.33c0-.19.11-.37.36-.51l4.63-2.68c.51-.29 1.33-.29 1.84 0l2.48 1.43c.24.14.36.32.36.51v1.34c0 .17-.11.36-.36.5z"/><path id="XMLID_79_" class="st116" d="M297.37 424.27l-4.63 2.68c-.51.29-1.33.29-1.84 0l-2.48-1.43c-.25-.14-.36-.33-.36-.51v-1.33c0-.19.11-.37.36-.51l4.63-2.68c.51-.29 1.33-.29 1.84 0l2.48 1.43c.24.14.36.32.36.51v1.34c0 .17-.11.36-.36.5z"/><path id="XMLID_78_" class="st115" d="M293.05 420.48l-4.63 2.68c-.51.29-.51.77 0 1.06l2.48 1.43c.51.29 1.33.29 1.84 0l4.63-2.68c.51-.29.51-.77 0-1.06l-2.48-1.43c-.5-.29-1.33-.29-1.84 0z"/><path class="st117" d="M297.73 422.59v1.17c0 .18-.11.38-.36.52l-4.64 2.68c-.25.15-.58.22-.92.22v-1.3c.34 0 .67-.07.92-.22l4.64-2.68c.19-.12.31-.25.36-.39z"/></g><g id="XMLID_73_"><path id="XMLID_76_" class="st115" d="M308.17 418.04l-4.63 2.68c-.51.29-1.33.29-1.84 0l-2.48-1.43c-.25-.14-.36-.33-.36-.51v-1.33c0-.18.11-.37.36-.51l4.63-2.68c.51-.29 1.33-.29 1.84 0l2.48 1.43c.24.14.36.32.36.51v1.34c-.01.17-.12.36-.36.5z"/><path id="XMLID_75_" class="st116" d="M308.17 418.04l-4.63 2.68c-.51.29-1.33.29-1.84 0l-2.48-1.43c-.25-.14-.36-.33-.36-.51v-1.33c0-.18.11-.37.36-.51l4.63-2.68c.51-.29 1.33-.29 1.84 0l2.48 1.43c.24.14.36.32.36.51v1.34c-.01.17-.12.36-.36.5z"/><path id="XMLID_74_" class="st115" d="M303.85 414.25l-4.63 2.68c-.51.29-.51.77 0 1.06l2.48 1.43c.51.29 1.33.29 1.84 0l4.63-2.68c.51-.29.51-.77 0-1.06l-2.48-1.43c-.51-.29-1.33-.29-1.84 0z"/><path class="st117" d="M308.52 416.36v1.17c0 .18-.11.38-.36.52l-4.64 2.68c-.25.15-.58.22-.92.22v-1.3c.34 0 .67-.07.92-.22l4.64-2.68c.2-.12.32-.25.36-.39z"/></g><g id="XMLID_69_"><path id="XMLID_72_" class="st115" d="M318.96 411.81l-4.63 2.68c-.51.29-1.33.29-1.84 0l-2.48-1.43c-.25-.14-.36-.33-.36-.51v-1.33c0-.19.11-.37.36-.51l4.63-2.68c.51-.29 1.33-.29 1.84 0l2.48 1.43c.24.14.36.32.36.51v1.34c0 .17-.11.36-.36.5z"/><path id="XMLID_71_" class="st116" d="M318.96 411.81l-4.63 2.68c-.51.29-1.33.29-1.84 0l-2.48-1.43c-.25-.14-.36-.33-.36-.51v-1.33c0-.19.11-.37.36-.51l4.63-2.68c.51-.29 1.33-.29 1.84 0l2.48 1.43c.24.14.36.32.36.51v1.34c0 .17-.11.36-.36.5z"/><path id="XMLID_70_" class="st115" d="M314.64 408.02l-4.63 2.68c-.51.29-.51.77 0 1.06l2.48 1.43c.51.29 1.33.29 1.84 0l4.63-2.68c.51-.29.51-.77 0-1.06l-2.48-1.43c-.5-.29-1.33-.29-1.84 0z"/><path class="st117" d="M319.32 410.12v1.17c0 .18-.11.38-.36.52l-4.64 2.68c-.25.15-.58.22-.92.22v-1.3c.34 0 .67-.07.92-.22l4.64-2.68c.19-.11.31-.24.36-.39z"/></g><g id="XMLID_65_"><path id="XMLID_68_" class="st115" d="M329.76 405.58l-4.63 2.68c-.51.29-1.33.29-1.84 0l-2.48-1.43c-.25-.14-.36-.33-.36-.51v-1.33c0-.19.11-.37.36-.51l4.63-2.68c.51-.29 1.33-.29 1.84 0l2.48 1.43c.24.14.36.32.36.51v1.34c-.01.17-.12.35-.36.5z"/><path id="XMLID_67_" class="st116" d="M329.76 405.58l-4.63 2.68c-.51.29-1.33.29-1.84 0l-2.48-1.43c-.25-.14-.36-.33-.36-.51v-1.33c0-.19.11-.37.36-.51l4.63-2.68c.51-.29 1.33-.29 1.84 0l2.48 1.43c.24.14.36.32.36.51v1.34c-.01.17-.12.35-.36.5z"/><path id="XMLID_66_" class="st115" d="M325.44 401.79l-4.63 2.68c-.51.29-.51.77 0 1.06l2.48 1.43c.51.29 1.33.29 1.84 0l4.63-2.68c.51-.29.51-.77 0-1.06l-2.48-1.43c-.51-.29-1.33-.29-1.84 0z"/><path class="st117" d="M330.11 403.89v1.17c0 .18-.11.38-.36.52l-4.64 2.68c-.25.15-.58.22-.92.22v-1.3c.34 0 .67-.07.92-.22l4.64-2.68c.2-.11.32-.24.36-.39z"/></g><g id="XMLID_62_"><path id="XMLID_64_" class="st118" d="M308.19 430.51l-4.63 2.68c-.51.29-1.33.29-1.84 0l-4.66-2.69c-.25-.14-.36-.33-.36-.51v-1.33c0-.18.11-.37.36-.51l4.63-2.68c.51-.29 1.33-.29 1.84 0l4.66 2.69c.24.14.36.32.36.51v1.34c-.01.18-.12.36-.36.5z"/><path id="XMLID_63_" class="st119" d="M301.69 425.47l-4.63 2.68c-.51.29-.51.77 0 1.06l4.66 2.69c.51.29 1.33.29 1.84 0l4.63-2.68c.51-.29.51-.77 0-1.06l-4.66-2.69c-.51-.3-1.33-.3-1.84 0z"/><path class="st120" d="M308.54 428.83V430c0 .18-.11.38-.36.52l-4.64 2.68c-.25.15-.58.22-.92.22v-1.3c.34 0 .67-.07.92-.22l4.64-2.68c.19-.11.32-.25.36-.39z"/><path class="st119" d="M308.54 428.83v-.16a.54.54 0 00-.19-.4c.19.17.26.38.19.56z"/></g><g id="XMLID_59_"><path id="XMLID_61_" class="st118" d="M318.96 424.25l-4.63 2.68c-.51.29-1.33.29-1.84 0l-4.66-2.69c-.25-.14-.36-.33-.36-.51v-1.33c0-.19.11-.37.36-.51l4.63-2.68c.51-.29 1.33-.29 1.84 0l4.66 2.69c.24.14.36.32.36.51v1.34c0 .18-.11.36-.36.5z"/><path id="XMLID_60_" class="st119" d="M312.47 419.21l-4.63 2.68c-.51.29-.51.77 0 1.06l4.66 2.69c.51.29 1.33.29 1.84 0l4.63-2.68c.51-.29.51-.77 0-1.06l-4.66-2.69c-.51-.3-1.34-.3-1.84 0z"/><path class="st120" d="M319.32 422.57v1.17c0 .18-.11.38-.36.52l-4.64 2.68c-.25.15-.58.22-.92.22v-1.3c.34 0 .67-.07.92-.22l4.64-2.68c.19-.12.31-.25.36-.39z"/><path class="st119" d="M319.32 422.57v-.16a.54.54 0 00-.19-.4c.19.17.26.37.19.56z"/></g><g id="XMLID_56_"><path id="XMLID_58_" class="st118" d="M329.74 417.99l-4.63 2.68c-.51.29-1.33.29-1.84 0l-4.66-2.69c-.25-.14-.36-.33-.36-.51v-1.33c0-.19.11-.37.36-.51l4.63-2.68c.51-.29 1.33-.29 1.84 0l4.66 2.69c.24.14.36.32.36.51v1.34c0 .17-.11.36-.36.5z"/><path id="XMLID_57_" class="st119" d="M323.25 412.95l-4.63 2.68c-.51.29-.51.77 0 1.06l4.66 2.69c.51.29 1.33.29 1.84 0l4.63-2.68c.51-.29.51-.77 0-1.06l-4.66-2.69c-.51-.3-1.34-.3-1.84 0z"/><path class="st120" d="M330.1 416.31v1.17c0 .18-.11.38-.36.52l-4.64 2.68c-.25.15-.58.22-.92.22v-1.3c.34 0 .67-.07.92-.22l4.64-2.68c.19-.12.31-.25.36-.39z"/><path class="st119" d="M330.1 416.31v-.16a.54.54 0 00-.19-.4c.19.17.26.37.19.56z"/></g><g id="XMLID_53_"><path id="XMLID_55_" class="st118" d="M317.88 436.11l-4.63 2.68c-.51.29-1.33.29-1.84 0l-4.66-2.69c-.25-.14-.36-.33-.36-.51v-1.33c0-.19.11-.37.36-.51l4.63-2.68c.51-.29 1.33-.29 1.84 0l4.66 2.69c.24.14.36.32.36.51v1.34c0 .17-.12.36-.36.5z"/><path id="XMLID_54_" class="st119" d="M311.38 431.06l-4.63 2.68c-.51.29-.51.77 0 1.06l4.66 2.69c.51.29 1.33.29 1.84 0l4.63-2.68c.51-.29.51-.77 0-1.06l-4.66-2.69c-.51-.29-1.33-.29-1.84 0z"/><path class="st120" d="M318.24 434.42v1.17c0 .18-.11.38-.36.52l-4.64 2.68c-.25.15-.58.22-.92.22v-1.3c.34 0 .67-.07.92-.22l4.64-2.68c.19-.11.31-.24.36-.39z"/><path class="st119" d="M318.24 434.42v-.16a.54.54 0 00-.19-.4c.19.17.25.38.19.56z"/></g><g id="XMLID_50_"><path id="XMLID_52_" class="st118" d="M328.66 429.85l-4.63 2.68c-.51.29-1.33.29-1.84 0l-4.66-2.69c-.25-.14-.36-.33-.36-.51V428c0-.19.11-.37.36-.51l4.63-2.68c.51-.29 1.33-.29 1.84 0l4.66 2.69c.24.14.36.32.36.51v1.34c-.01.17-.12.35-.36.5z"/><path id="XMLID_51_" class="st119" d="M322.16 424.8l-4.63 2.68c-.51.29-.51.77 0 1.06l4.66 2.69c.51.29 1.33.29 1.84 0l4.63-2.68c.51-.29.51-.77 0-1.06L324 424.8c-.51-.29-1.33-.29-1.84 0z"/><path class="st120" d="M329.02 428.16v1.17c0 .18-.11.38-.36.52l-4.64 2.68c-.25.15-.58.22-.92.22v-1.3c.34 0 .67-.07.92-.22l4.64-2.68c.19-.11.31-.25.36-.39z"/><path class="st119" d="M329.02 428.16V428a.54.54 0 00-.19-.4c.19.17.25.38.19.56z"/></g><g id="XMLID_47_"><path id="XMLID_49_" class="st118" d="M339.44 423.59l-4.63 2.68c-.51.29-1.33.29-1.84 0l-4.66-2.69c-.25-.14-.36-.33-.36-.51v-1.33c0-.19.11-.37.36-.51l4.63-2.68c.51-.29 1.33-.29 1.84 0l4.66 2.69c.24.14.36.32.36.51v1.34c-.01.17-.12.35-.36.5z"/><path id="XMLID_48_" class="st119" d="M332.94 418.54l-4.63 2.68c-.51.29-.51.77 0 1.06l4.66 2.69c.51.29 1.33.29 1.84 0l4.63-2.68c.51-.29.51-.77 0-1.06l-4.66-2.69c-.51-.29-1.33-.29-1.84 0z"/><path class="st120" d="M339.79 421.9v1.17c0 .18-.11.38-.36.52l-4.64 2.68c-.25.15-.58.22-.92.22v-1.3c.34 0 .67-.07.92-.22l4.64-2.68c.19-.11.32-.25.36-.39z"/><path class="st119" d="M339.79 421.9v-.16a.54.54 0 00-.19-.4c.19.17.26.38.19.56z"/></g><g id="XMLID_44_"><path id="XMLID_46_" class="st118" d="M327.57 441.7l-4.63 2.68c-.51.29-1.33.29-1.84 0l-4.66-2.69c-.25-.14-.36-.33-.36-.51v-1.33c0-.18.11-.37.36-.51l4.63-2.68c.51-.29 1.33-.29 1.84 0l4.66 2.69c.24.14.36.32.36.51v1.34c0 .18-.12.36-.36.5z"/><path id="XMLID_45_" class="st119" d="M321.07 436.66l-4.63 2.68c-.51.29-.51.77 0 1.06l4.66 2.69c.51.29 1.33.29 1.84 0l4.63-2.68c.51-.29.51-.77 0-1.06l-4.66-2.69c-.51-.3-1.33-.3-1.84 0z"/><path class="st120" d="M327.93 440.02v1.17c0 .18-.11.38-.36.52l-4.64 2.68c-.25.15-.58.22-.92.22v-1.3c.34 0 .67-.07.92-.22l4.64-2.68c.19-.12.31-.25.36-.39z"/><path class="st119" d="M327.93 440.02v-.16a.54.54 0 00-.19-.4c.19.17.25.37.19.56z"/></g><g id="XMLID_41_"><path id="XMLID_43_" class="st118" d="M338.35 435.44l-4.63 2.68c-.51.29-1.33.29-1.84 0l-4.66-2.69c-.25-.14-.36-.33-.36-.51v-1.33c0-.19.11-.37.36-.51l4.63-2.68c.51-.29 1.33-.29 1.84 0l4.66 2.69c.24.14.36.32.36.51v1.34c0 .17-.12.36-.36.5z"/><path id="XMLID_42_" class="st119" d="M331.85 430.4l-4.63 2.68c-.51.29-.51.77 0 1.06l4.66 2.69c.51.29 1.33.29 1.84 0l4.63-2.68c.51-.29.51-.77 0-1.06l-4.66-2.69c-.51-.3-1.33-.3-1.84 0z"/><path class="st120" d="M338.71 433.76v1.17c0 .18-.11.38-.36.52l-4.64 2.68c-.25.15-.58.22-.92.22v-1.3c.34 0 .67-.07.92-.22l4.64-2.68c.19-.12.31-.25.36-.39z"/><path class="st119" d="M338.71 433.76v-.16a.54.54 0 00-.19-.4c.19.17.25.37.19.56z"/></g><g id="XMLID_38_"><path id="XMLID_40_" class="st118" d="M349.13 429.18l-4.63 2.68c-.51.29-1.33.29-1.84 0l-4.66-2.69c-.25-.14-.36-.33-.36-.51v-1.33c0-.19.11-.37.36-.51l4.63-2.68c.51-.29 1.33-.29 1.84 0l4.66 2.69c.24.14.36.32.36.51v1.34c0 .17-.12.36-.36.5z"/><path id="XMLID_39_" class="st119" d="M342.63 424.13l-4.63 2.68c-.51.29-.51.77 0 1.06l4.66 2.69c.51.29 1.33.29 1.84 0l4.63-2.68c.51-.29.51-.77 0-1.06l-4.66-2.69c-.51-.29-1.33-.29-1.84 0z"/><path class="st120" d="M349.49 427.5v1.17c0 .18-.11.38-.36.52l-4.64 2.68c-.25.15-.58.22-.92.22v-1.3c.34 0 .67-.07.92-.22l4.64-2.68c.19-.12.31-.25.36-.39z"/><path class="st119" d="M349.49 427.5v-.16a.54.54 0 00-.19-.4c.19.17.25.37.19.56z"/></g><g id="XMLID_35_"><path id="XMLID_37_" class="st118" d="M337.26 447.3l-4.63 2.68c-.51.29-1.33.29-1.84 0l-4.66-2.69c-.25-.14-.36-.33-.36-.51v-1.33c0-.19.11-.37.36-.51l4.63-2.68c.51-.29 1.33-.29 1.84 0l4.66 2.69c.24.14.36.32.36.51v1.34c0 .17-.11.35-.36.5z"/><path id="XMLID_36_" class="st119" d="M330.76 442.25l-4.63 2.68c-.51.29-.51.77 0 1.06l4.66 2.69c.51.29 1.33.29 1.84 0l4.63-2.68c.51-.29.51-.77 0-1.06l-4.66-2.69c-.51-.29-1.33-.29-1.84 0z"/><path class="st120" d="M337.62 445.61v1.17c0 .18-.11.38-.36.52l-4.64 2.68c-.25.15-.58.22-.92.22v-1.3c.34 0 .67-.07.92-.22l4.64-2.68c.19-.11.31-.25.36-.39z"/><path class="st119" d="M337.62 445.61v-.16a.54.54 0 00-.19-.4c.19.17.25.38.19.56z"/></g><g id="XMLID_32_"><path id="XMLID_34_" class="st118" d="M348.04 441.04l-4.63 2.68c-.51.29-1.33.29-1.84 0l-4.66-2.69c-.25-.14-.36-.33-.36-.51v-1.33c0-.19.11-.37.36-.51l4.63-2.68c.51-.29 1.33-.29 1.84 0l4.66 2.69c.24.14.36.32.36.51v1.34c0 .17-.11.35-.36.5z"/><path id="XMLID_33_" class="st119" d="M341.54 435.99l-4.63 2.68c-.51.29-.51.77 0 1.06l4.66 2.69c.51.29 1.33.29 1.84 0l4.63-2.68c.51-.29.51-.77 0-1.06l-4.66-2.69c-.51-.29-1.33-.29-1.84 0z"/><path class="st120" d="M348.4 439.35v1.17c0 .18-.11.38-.36.52l-4.64 2.68c-.25.15-.58.22-.92.22v-1.3c.34 0 .67-.07.92-.22l4.64-2.68c.19-.11.31-.25.36-.39z"/><path class="st119" d="M348.4 439.35v-.16a.54.54 0 00-.19-.4c.19.17.25.38.19.56z"/></g><g id="XMLID_29_"><path id="XMLID_31_" class="st121" d="M358.82 434.77l-4.63 2.68c-.51.29-1.33.29-1.84 0l-4.66-2.69c-.25-.14-.36-.33-.36-.51v-1.33c0-.19.11-.37.36-.51l4.63-2.68c.51-.29 1.33-.29 1.84 0l4.66 2.69c.24.14.36.32.36.51v1.34c0 .18-.11.36-.36.5z"/><path id="XMLID_30_" class="st121" d="M352.32 429.73l-4.63 2.68c-.51.29-.51.77 0 1.06l4.66 2.69c.51.29 1.33.29 1.84 0l4.63-2.68c.51-.29.51-.77 0-1.06l-4.66-2.69c-.51-.29-1.33-.29-1.84 0z"/><path d="M359.18 433.09v1.17c0 .18-.11.38-.36.52l-4.64 2.68c-.25.15-.58.22-.92.22v-1.3c.34 0 .67-.07.92-.22l4.64-2.68c.19-.11.31-.25.36-.39z" opacity=".1" fill="#ff3900"/></g><g id="XMLID_24_"><path id="XMLID_28_" class="st115" d="M340.52 411.73l-4.63 2.68c-.51.29-1.33.29-1.84 0l-4.66-2.69c-.25-.14-.36-.33-.36-.51v-1.33c0-.19.11-.37.36-.51l4.63-2.68c.51-.29 1.33-.29 1.84 0l4.66 2.69c.24.14.36.32.36.51v1.34c0 .17-.11.36-.36.5z"/><path id="XMLID_27_" class="st123" d="M340.52 411.73l-4.63 2.68c-.51.29-1.33.29-1.84 0l-4.66-2.69c-.25-.14-.36-.33-.36-.51v-1.33c0-.19.11-.37.36-.51l4.63-2.68c.51-.29 1.33-.29 1.84 0l4.66 2.69c.24.14.36.32.36.51v1.34c0 .17-.11.36-.36.5z"/><path id="XMLID_26_" class="st115" d="M334.03 406.69l-4.63 2.68c-.51.29-.51.77 0 1.06l4.66 2.69c.51.29 1.33.29 1.84 0l4.63-2.68c.51-.29.51-.77 0-1.06l-4.66-2.69c-.51-.3-1.34-.3-1.84 0z"/><path id="XMLID_25_" class="st116" d="M334.03 406.69l-4.63 2.68c-.51.29-.51.77 0 1.06l4.66 2.69c.51.29 1.33.29 1.84 0l4.63-2.68c.51-.29.51-.77 0-1.06l-4.66-2.69c-.51-.3-1.34-.3-1.84 0z"/><path class="st117" d="M340.88 410.05v1.17c0 .18-.11.38-.36.52l-4.64 2.68c-.25.15-.58.22-.92.22v-1.3c.34 0 .67-.07.92-.22l4.64-2.68c.19-.12.31-.25.36-.39z"/></g><g id="XMLID_19_"><path id="XMLID_23_" class="st115" d="M350.21 417.32l-4.63 2.68c-.51.29-1.33.29-1.84 0l-4.66-2.69c-.25-.14-.36-.33-.36-.51v-1.33c0-.18.11-.37.36-.51l4.63-2.68c.51-.29 1.33-.29 1.84 0l4.66 2.69c.24.14.36.32.36.51v1.34c0 .18-.11.36-.36.5z"/><path id="XMLID_22_" class="st123" d="M350.21 417.32l-4.63 2.68c-.51.29-1.33.29-1.84 0l-4.66-2.69c-.25-.14-.36-.33-.36-.51v-1.33c0-.18.11-.37.36-.51l4.63-2.68c.51-.29 1.33-.29 1.84 0l4.66 2.69c.24.14.36.32.36.51v1.34c0 .18-.11.36-.36.5z"/><path id="XMLID_21_" class="st115" d="M343.72 412.28l-4.63 2.68c-.51.29-.51.77 0 1.06l4.66 2.69c.51.29 1.33.29 1.84 0l4.63-2.68c.51-.29.51-.77 0-1.06l-4.66-2.69c-.51-.29-1.33-.29-1.84 0z"/><path id="XMLID_20_" class="st116" d="M343.72 412.28l-4.63 2.68c-.51.29-.51.77 0 1.06l4.66 2.69c.51.29 1.33.29 1.84 0l4.63-2.68c.51-.29.51-.77 0-1.06l-4.66-2.69c-.51-.29-1.33-.29-1.84 0z"/><path class="st117" d="M350.57 415.64v1.17c0 .18-.11.38-.36.52l-4.64 2.68c-.25.15-.58.22-.92.22v-1.3c.34 0 .67-.07.92-.22l4.64-2.68c.19-.11.31-.25.36-.39z"/></g><g id="XMLID_14_"><path id="XMLID_18_" class="st115" d="M359.91 422.92l-4.63 2.68c-.51.29-1.33.29-1.84 0l-4.66-2.69c-.25-.14-.36-.33-.36-.51v-1.33c0-.19.11-.37.36-.51l4.63-2.68c.51-.29 1.33-.29 1.84 0l4.66 2.69c.24.14.36.32.36.51v1.34c0 .17-.12.36-.36.5z"/><path id="XMLID_17_" class="st123" d="M359.91 422.92l-4.63 2.68c-.51.29-1.33.29-1.84 0l-4.66-2.69c-.25-.14-.36-.33-.36-.51v-1.33c0-.19.11-.37.36-.51l4.63-2.68c.51-.29 1.33-.29 1.84 0l4.66 2.69c.24.14.36.32.36.51v1.34c0 .17-.12.36-.36.5z"/><path id="XMLID_16_" class="st115" d="M353.41 417.87l-4.63 2.68c-.51.29-.51.77 0 1.06l4.66 2.69c.51.29 1.33.29 1.84 0l4.63-2.68c.51-.29.51-.77 0-1.06l-4.66-2.69c-.51-.29-1.33-.29-1.84 0z"/><path id="XMLID_15_" class="st116" d="M353.41 417.87l-4.63 2.68c-.51.29-.51.77 0 1.06l4.66 2.69c.51.29 1.33.29 1.84 0l4.63-2.68c.51-.29.51-.77 0-1.06l-4.66-2.69c-.51-.29-1.33-.29-1.84 0z"/><path class="st117" d="M360.27 421.24v1.17c0 .18-.11.38-.36.52l-4.64 2.68c-.25.15-.58.22-.92.22v-1.3c.34 0 .67-.07.92-.22l4.64-2.68c.19-.12.31-.25.36-.39z"/></g><g id="XMLID_5_"><path id="XMLID_13_" class="st115" d="M369.6 428.51l-4.63 2.68c-.51.29-1.33.29-1.84 0l-4.66-2.69c-.25-.14-.36-.33-.36-.51v-1.33c0-.18.11-.37.36-.51l4.63-2.68c.51-.29 1.33-.29 1.84 0l4.66 2.69c.24.14.36.32.36.51v1.34c0 .18-.12.36-.36.5z"/><path id="XMLID_12_" class="st123" d="M369.6 428.51l-4.63 2.68c-.51.29-1.33.29-1.84 0l-4.66-2.69c-.25-.14-.36-.33-.36-.51v-1.33c0-.18.11-.37.36-.51l4.63-2.68c.51-.29 1.33-.29 1.84 0l4.66 2.69c.24.14.36.32.36.51v1.34c0 .18-.12.36-.36.5z"/><path id="XMLID_11_" class="st115" d="M363.1 423.47l-4.63 2.68c-.51.29-.51.77 0 1.06l4.66 2.69c.51.29 1.33.29 1.84 0l4.63-2.68c.51-.29.51-.77 0-1.06l-4.66-2.69c-.51-.3-1.33-.3-1.84 0z"/><path id="XMLID_10_" class="st116" d="M363.1 423.47l-4.63 2.68c-.51.29-.51.77 0 1.06l4.66 2.69c.51.29 1.33.29 1.84 0l4.63-2.68c.51-.29.51-.77 0-1.06l-4.66-2.69c-.51-.3-1.33-.3-1.84 0z"/><path class="st117" d="M369.96 426.83V428c0 .18-.11.38-.36.52l-4.64 2.68c-.25.15-.58.22-.92.22v-1.3c.34 0 .67-.07.92-.22l4.64-2.68c.19-.11.31-.25.36-.39z"/></g></g><g><path d="M260.14 359.72c-9.89 0-18.15 4.16-20.21 9.73-3.79-2.89-9.66-4.75-16.27-4.75-11.44 0-20.72 5.57-20.72 12.43 0 6.86 9.28 12.43 20.72 12.43 9.89 0 18.15-4.16 20.21-9.73 3.79 2.89 9.66 4.75 16.27 4.75 11.44 0 20.72-5.56 20.72-12.43 0-6.86-9.27-12.43-20.72-12.43z" fill="#619bf7" opacity=".7"/><path class="st126" d="M261.93 366.08v15.36c.77-.04 1.52-.12 2.25-.22v-15.13h-2.25zM258.83 366.08v15.37c.44.02.87.04 1.32.04.21 0 .42-.01.63-.02v-15.39h-1.95zM241.74 366.08v4.37c0 1.47.49 2.88 1.36 4.16v-8.53h-1.36zM265.34 366.08v14.96c.77-.14 1.53-.3 2.25-.5v-14.46h-2.25zM268.75 366.08v14.13c.57-.18 1.13-.38 1.66-.59v-13.53h-1.66zM247.07 366.08v12.14c.52.32 1.08.61 1.66.88v-13.02h-1.66zM255.73 366.08v15.08c.64.09 1.29.17 1.95.22v-15.3h-1.95zM249.88 366.08v13.53c.53.22 1.09.41 1.66.59v-14.13h-1.66zM252.7 366.08v14.46c.61.16 1.23.31 1.88.43v-14.89h-1.88zM244.25 366.08V376c.49.51 1.04 1 1.66 1.45v-11.37h-1.66zM278.55 366.08h-1.36v8.53c.87-1.29 1.36-2.69 1.36-4.16v-4.37zM274.38 366.08v11.37c.62-.45 1.16-.94 1.66-1.45v-9.92h-1.66zM271.56 366.08v13.02c.58-.28 1.14-.57 1.66-.88v-12.14h-1.66z"/><path class="st127" d="M243.1 366.08v8.53c.33.48.72.95 1.15 1.39v-9.92h-1.15zM245.91 366.08v11.37c.36.27.75.52 1.15.77v-12.14h-1.15zM248.73 366.08v13.02c.38.18.76.35 1.15.52v-13.53h-1.15zM251.54 366.08v14.13c.38.12.76.23 1.15.33v-14.46h-1.15zM254.57 366.08v14.89c.38.07.77.13 1.15.18v-15.08h-1.15zM257.67 366.08v15.3c.38.03.77.05 1.15.07v-15.37h-1.15zM260.78 366.08v15.39c.39-.01.77-.01 1.15-.04v-15.36h-1.15zM264.19 366.08v15.13c.39-.05.77-.11 1.15-.18v-14.96h-1.15zM276.04 366.08V376c.43-.45.83-.91 1.15-1.39v-8.53h-1.15zM273.22 366.08v12.14c.4-.24.79-.5 1.15-.77v-11.37h-1.15zM270.41 366.08v13.53c.4-.16.78-.34 1.15-.52v-13.02h-1.15zM267.59 366.08v14.46c.39-.1.78-.21 1.15-.33v-14.13h-1.15z"/><path class="st128" d="M260.14 355.04c-10.17 0-18.41 4.94-18.41 11.04s8.24 11.04 18.41 11.04 18.41-4.94 18.41-11.04-8.24-11.04-18.41-11.04z"/><g><path class="st127" d="M260.14 357.24c8.55 0 15.53 4.02 16.01 9.08.02-.19.05-.37.05-.56 0-5.32-7.19-9.63-16.06-9.63-8.87 0-16.06 4.31-16.06 9.63 0 .19.03.37.05.56.49-5.06 7.46-9.08 16.01-9.08z"/><path class="st129" d="M260.14 375.39c8.55 0 15.53-4.02 16.01-9.08-.48-5.06-7.45-9.08-16.01-9.08-8.55 0-15.53 4.02-16.01 9.08.49 5.07 7.46 9.08 16.01 9.08z"/></g><path class="st127" d="M270.47 371.54a15.83 15.83 0 00-1.84-1.82c.64-.98.8-2.15.33-3.4-.84-2.19-3.53-2.41-5.52-2.21-.95.1-1.85.34-2.74.62-1.91-1.06-3.75-2.4-5.72-3.38 1.32-.58 2.87-.6 3.94-.62.29-.01.35-.42.07-.51-1.53-.47-3.6-.35-5.25.58-.84-.33-1.7-.58-2.61-.7-.13-.02-.16.17-.06.23.6.34 1.19.7 1.79 1.05-1.59 1.33-2.28 3.44.09 5.08 2.26 1.57 5.04.53 7.32-.21.2-.07.41-.13.61-.19 1.95 1.11 3.76 2.54 5.64 3.83-.9.66-2.22 1.11-3.23 1.29-1.54.27-2.84.27-4.36-.08-.29-.07-.54.3-.3.52 1.72 1.67 5.96 1.23 8.52-.43.23-.15.44-.31.63-.47.76.48 1.54.92 2.35 1.29.29.13.56-.2.34-.47zm-15.52-5.7c-2.19-.38-2.69-2.16-1.32-3.58.09-.1.2-.17.3-.25 1.8 1.07 3.61 2.12 5.43 3.16-.29.1-.57.19-.86.29-.38.17-2.85.51-3.55.38zm8.98-.42c1.58-.07 4.73.08 3.52 3.36-1.6-1.18-3.36-2.19-5.08-3.13.51-.11 1.03-.2 1.56-.23zM247.19 368.76c-.27-.52-.62-1.01-.79-1.57-.16-.53-.01-1.11-.21-1.61-.06-.15-.25-.24-.39-.1-.46.47-.32 1.33-.18 1.92.18.73.54 1.36 1.21 1.71.24.11.48-.12.36-.35zM273.61 363.1c-.08-.07-.21-.03-.22.09-.01.63.19 1.23.08 1.87-.09.54-.48 1-.48 1.55 0 .15.17.31.32.24 1.19-.47 1.23-2.99.3-3.75zM270.31 362.21c-.11.01-.15.12-.09.21.33.42.82.69 1.19 1.08.33.34.54.68 1.01.83.13.04.24-.07.25-.19.06-.99-1.45-1.99-2.36-1.93z"/><g><path class="st126" d="M225.4 371.44v15.36c.77-.04 1.52-.12 2.25-.22v-15.13h-2.25zM222.3 371.44v15.37c.44.02.87.04 1.32.04.21 0 .42-.01.63-.02v-15.39h-1.95zM205.21 371.44v4.37c0 1.47.49 2.88 1.36 4.16v-8.53h-1.36zM228.81 371.44v14.96c.77-.14 1.53-.3 2.25-.5v-14.46h-2.25zM232.22 371.44v14.13c.57-.18 1.13-.38 1.66-.59v-13.53h-1.66zM210.54 371.44v12.14c.52.32 1.08.61 1.66.88v-13.02h-1.66zM219.2 371.44v15.08c.64.09 1.29.17 1.95.22v-15.3h-1.95zM213.35 371.44v13.53c.53.22 1.09.41 1.66.59v-14.13h-1.66zM216.16 371.44v14.46c.61.16 1.23.31 1.88.43v-14.89h-1.88zM207.72 371.44v9.92c.49.51 1.04 1 1.66 1.45v-11.37h-1.66zM242.02 371.44h-1.36v8.53c.87-1.29 1.36-2.69 1.36-4.16v-4.37zM237.85 371.44v11.37c.62-.45 1.16-.94 1.66-1.45v-9.92h-1.66zM235.03 371.44v13.02c.58-.28 1.14-.57 1.66-.88v-12.14h-1.66z"/><path class="st127" d="M206.57 371.44v8.53c.33.48.72.95 1.15 1.39v-9.92h-1.15zM209.38 371.44v11.37c.36.27.75.52 1.15.77v-12.14h-1.15zM212.2 371.44v13.02c.38.18.76.35 1.15.52v-13.53h-1.15zM215.01 371.44v14.13c.38.12.76.23 1.15.33v-14.46h-1.15zM218.04 371.44v14.89c.38.07.77.13 1.15.18v-15.08h-1.15zM221.14 371.44v15.3c.38.03.77.05 1.15.07v-15.37h-1.15zM224.25 371.44v15.39c.39-.01.77-.01 1.15-.03v-15.36h-1.15zM227.65 371.44v15.13c.39-.05.77-.11 1.15-.18v-14.96h-1.15zM239.51 371.44v9.92c.44-.45.83-.91 1.15-1.39v-8.53h-1.15zM236.69 371.44v12.14c.4-.24.79-.5 1.15-.77v-11.37h-1.15zM233.88 371.44v13.53c.4-.16.78-.34 1.15-.52v-13.02h-1.15zM231.06 371.44v14.46c.39-.1.78-.21 1.15-.33v-14.13h-1.15z"/><path class="st128" d="M223.61 360.4c-10.17 0-18.41 4.94-18.41 11.04 0 6.1 8.24 11.04 18.41 11.04s18.41-4.94 18.41-11.04c0-6.1-8.24-11.04-18.41-11.04z"/><g><path class="st127" d="M223.61 362.6c8.55 0 15.53 4.02 16.01 9.08.02-.19.05-.37.05-.56 0-5.32-7.19-9.63-16.06-9.63-8.87 0-16.06 4.31-16.06 9.63 0 .19.03.37.05.56.49-5.06 7.46-9.08 16.01-9.08z"/><path class="st129" d="M223.61 380.75c8.55 0 15.53-4.02 16.01-9.08-.48-5.06-7.45-9.08-16.01-9.08-8.55 0-15.53 4.02-16.01 9.08.49 5.07 7.46 9.08 16.01 9.08z"/></g><path class="st127" d="M233.94 376.91a15.83 15.83 0 00-1.84-1.82c.64-.98.8-2.15.33-3.4-.84-2.19-3.53-2.41-5.52-2.21-.95.1-1.85.34-2.74.62-1.91-1.06-3.75-2.4-5.72-3.38 1.32-.58 2.87-.6 3.94-.62.29-.01.35-.42.07-.51-1.53-.47-3.6-.35-5.25.58-.84-.33-1.7-.58-2.61-.7-.13-.02-.16.17-.06.23.6.34 1.19.7 1.79 1.05-1.59 1.33-2.28 3.44.09 5.08 2.26 1.57 5.04.53 7.32-.21.2-.07.41-.13.61-.19 1.95 1.11 3.76 2.54 5.64 3.83-.9.66-2.22 1.11-3.23 1.29-1.54.27-2.84.27-4.36-.08-.29-.07-.54.3-.3.52 1.72 1.67 5.96 1.23 8.52-.43.23-.15.44-.31.63-.47.76.48 1.54.92 2.35 1.29.29.12.56-.21.34-.47zm-15.52-5.71c-2.19-.38-2.69-2.16-1.32-3.58.09-.1.2-.17.3-.25 1.8 1.07 3.61 2.12 5.43 3.16-.29.1-.57.19-.86.29-.38.17-2.85.51-3.55.38zm8.98-.41c1.58-.07 4.73.08 3.52 3.36-1.6-1.18-3.36-2.19-5.08-3.13.51-.12 1.03-.21 1.56-.23zM210.66 374.12c-.27-.52-.62-1.01-.79-1.57-.16-.53-.01-1.11-.21-1.61-.06-.15-.25-.24-.39-.1-.46.47-.32 1.33-.18 1.92.18.73.54 1.36 1.21 1.71.24.12.48-.12.36-.35zM237.08 368.47c-.08-.07-.21-.03-.22.09-.01.63.19 1.23.08 1.87-.09.54-.48 1-.48 1.55 0 .15.17.31.32.24 1.19-.48 1.23-3 .3-3.75zM233.78 367.57c-.11.01-.15.12-.09.21.33.42.82.69 1.19 1.08.33.34.54.68 1.01.83.13.04.24-.07.25-.19.06-.99-1.45-1.99-2.36-1.93z"/></g><g><path class="st126" d="M230.02 360.03v15.36c.77-.04 1.52-.12 2.25-.22v-15.13h-2.25zM226.92 360.03v15.37c.44.02.87.04 1.32.04.21 0 .42-.01.63-.02v-15.39h-1.95zM209.82 360.03v4.37c0 1.47.49 2.88 1.36 4.16v-8.53h-1.36zM233.43 360.03v14.96c.77-.14 1.53-.3 2.25-.5v-14.46h-2.25zM236.84 360.03v14.13c.57-.18 1.13-.38 1.66-.59v-13.53h-1.66zM215.15 360.03v12.14c.52.32 1.08.61 1.66.88v-13.02h-1.66zM223.81 360.03v15.08c.64.09 1.29.17 1.95.22v-15.3h-1.95zM217.97 360.03v13.53c.53.22 1.09.41 1.66.59v-14.13h-1.66zM220.78 360.03v14.46c.61.16 1.23.31 1.88.43v-14.89h-1.88zM212.34 360.03v9.92c.49.51 1.04 1 1.66 1.45v-11.37h-1.66zM246.64 360.03h-1.36v8.53c.87-1.29 1.36-2.69 1.36-4.16v-4.37zM242.46 360.03v11.37c.62-.45 1.16-.94 1.66-1.45v-9.92h-1.66zM239.65 360.03v13.02c.58-.28 1.14-.57 1.66-.88v-12.14h-1.66z"/><path class="st127" d="M211.19 360.03v8.53c.33.48.72.95 1.15 1.39v-9.92h-1.15zM214 360.03v11.37c.36.27.75.52 1.15.77v-12.14H214zM216.81 360.03v13.02c.38.18.76.35 1.15.52v-13.53h-1.15zM219.63 360.03v14.13c.38.12.76.23 1.15.33v-14.46h-1.15zM222.66 360.03v14.89c.38.07.77.13 1.15.18v-15.08h-1.15zM225.76 360.03v15.3c.38.03.77.05 1.15.07v-15.37h-1.15zM228.86 360.03v15.39c.39-.01.77-.01 1.15-.03v-15.36h-1.15zM232.27 360.03v15.13c.39-.05.77-.11 1.15-.18v-14.96h-1.15zM244.12 360.03v9.92c.44-.45.83-.91 1.15-1.39v-8.53h-1.15zM241.31 360.03v12.14c.4-.24.79-.5 1.15-.77v-11.37h-1.15zM238.5 360.03v13.53c.4-.16.78-.34 1.15-.52v-13.02h-1.15zM235.68 360.03v14.46c.39-.1.78-.21 1.15-.33v-14.13h-1.15z"/><path class="st128" d="M228.23 348.98c-10.17 0-18.41 4.95-18.41 11.04 0 6.1 8.24 11.04 18.41 11.04s18.41-4.94 18.41-11.04c0-6.09-8.24-11.04-18.41-11.04z"/><g><path class="st127" d="M228.23 351.18c8.55 0 15.53 4.02 16.01 9.08.02-.18.05-.37.05-.56 0-5.32-7.19-9.63-16.06-9.63-8.87 0-16.06 4.31-16.06 9.63 0 .19.03.37.05.56.49-5.06 7.46-9.08 16.01-9.08z"/><path class="st129" d="M228.23 369.34c8.55 0 15.53-4.02 16.01-9.08-.48-5.06-7.45-9.08-16.01-9.08-8.55 0-15.53 4.02-16.01 9.08.49 5.06 7.46 9.08 16.01 9.08z"/></g><path class="st127" d="M238.56 365.49a15.83 15.83 0 00-1.84-1.82c.64-.98.8-2.15.33-3.4-.84-2.19-3.53-2.41-5.52-2.21-.95.1-1.85.34-2.74.62-1.91-1.06-3.75-2.4-5.72-3.38 1.32-.58 2.87-.6 3.94-.62.29-.01.35-.42.07-.51-1.53-.47-3.6-.35-5.25.58-.84-.33-1.7-.58-2.61-.7-.13-.02-.16.17-.06.23.6.34 1.19.7 1.79 1.05-1.59 1.33-2.28 3.44.09 5.08 2.26 1.57 5.04.53 7.32-.21.2-.07.41-.13.61-.19 1.95 1.11 3.76 2.54 5.64 3.83-.9.66-2.22 1.11-3.23 1.29-1.54.27-2.84.27-4.36-.08-.29-.07-.54.3-.3.52 1.72 1.67 5.96 1.23 8.52-.43.23-.15.44-.31.63-.47.76.48 1.54.92 2.35 1.29.29.13.56-.21.34-.47zm-15.52-5.7c-2.19-.38-2.69-2.16-1.32-3.58.09-.09.2-.17.3-.25 1.8 1.07 3.61 2.12 5.43 3.16-.29.1-.57.19-.86.29-.38.16-2.86.5-3.55.38zm8.98-.42c1.58-.07 4.73.08 3.52 3.36-1.6-1.18-3.36-2.19-5.08-3.13.51-.12 1.03-.21 1.56-.23zM215.28 362.7c-.27-.52-.62-1.01-.79-1.57-.16-.53-.01-1.11-.21-1.61-.06-.15-.25-.24-.39-.1-.46.47-.32 1.33-.18 1.92.18.73.54 1.36 1.21 1.71.24.12.48-.12.36-.35zM241.7 357.05c-.08-.07-.21-.03-.22.09-.01.63.19 1.23.08 1.87-.09.54-.48 1-.48 1.55 0 .15.17.31.32.24 1.19-.48 1.23-3 .3-3.75zM238.39 356.16c-.11.01-.15.12-.09.21.33.42.82.69 1.19 1.08.33.34.54.68 1.01.83.13.04.24-.07.25-.19.06-1-1.45-2-2.36-1.93z"/></g></g><g><g class="st27"><path class="st130" d="M519.59 255.04l26.5-15.4-.02 6.82-26.5 15.4z"/><path class="st131" d="M457.07 218.94l62.52 36.1 26.5-15.4-41.33-23.86-21.2-12.24-3.52 2.05-3.05 1.77-2.39 1.39z"/><path class="st132" d="M465.4 218.93l18.17-10.56 54.18 31.28-18.16 10.56z"/><g><path class="st133" d="M519.59 255.04l-.02 6.82-62.52-36.1.02-6.82z"/></g></g><path class="st131" d="M511.19 221.35c4.42 2.55 2.78 7.64-3.67 11.36-6.45 3.72-15.26 4.67-19.68 2.12s-2.78-7.64 3.67-11.36c6.44-3.73 15.26-4.67 19.68-2.12z"/><g class="st27"><path class="st105" d="M519 224l-26.5 15.39-8.7-5.02-1.26-.73c-.01 0-2.53-1.46-2.53-1.46l26.5-15.4 2.53 1.46 1.26.73L519 224z"/><path class="st134" d="M492.51 239.39l-.02 6.82-8.69-5.02-1.26-.73L480 239l.02-6.82 2.52 1.46c.01 0 1.26.73 1.26.73l8.71 5.02z"/></g><path class="st135" d="M509.52 218.52l-26.5 15.4v6.83l-1.26-.73v-6.82c.01 0 26.5-15.4 26.5-15.4l1.26.72z"/><path class="st136" d="M483.03 233.92v6.83l-1.26-.73v-6.82l1.26.72z"/><path class="st135" d="M517.09 222.89l-26.5 15.4v6.83l-1.26-.73v-6.82c.01 0 26.5-15.4 26.5-15.4l1.26.72z"/><path class="st136" d="M490.59 238.29v6.83l-1.26-.73v-6.82c.01 0 1.26.72 1.26.72z"/><ellipse class="st131" cx="519" cy="235.1" rx="3.79" ry="2.19"/><path class="st131" d="M488.93 217.43c1.48.86 1.48 2.24 0 3.1-1.48.86-3.88.86-5.36 0-1.48-.86-1.48-2.24 0-3.1 1.48-.86 3.88-.86 5.36 0zM507.06 234.8l12.88 7.44 2-1.16-12.88-7.44zM505.36 236.92l10.15 5.86 1.58-.91-10.15-5.86z"/></g><g><g class="st27"><path class="st130" d="M519.62 245.61l26.49-15.4-.02 6.82-26.49 15.4z"/><path class="st131" d="M457.09 209.51l62.53 36.1 26.49-15.4-41.33-23.86-21.2-12.24-3.52 2.05-3.05 1.77-2.39 1.39z"/><path class="st132" d="M465.42 209.5l18.17-10.56 54.19 31.28-18.17 10.56z"/><g><path class="st133" d="M519.62 245.61l-.02 6.82-62.53-36.1.02-6.82z"/></g></g><path class="st131" d="M511.21 211.92c4.42 2.55 2.78 7.64-3.67 11.36-6.45 3.72-15.26 4.67-19.68 2.12s-2.78-7.64 3.67-11.36c6.45-3.73 15.26-4.67 19.68-2.12z"/><g class="st27"><path class="st105" d="M519.03 214.57l-26.5 15.39-8.7-5.02-1.26-.73c-.01 0-2.53-1.46-2.53-1.46l26.5-15.4 2.53 1.46 1.26.73 8.7 5.03z"/><path class="st134" d="M492.53 229.96l-.02 6.82-8.69-5.02-1.26-.73-2.54-1.47.02-6.82 2.52 1.46c.01 0 1.26.73 1.26.73l8.71 5.03z"/></g><path class="st135" d="M509.55 209.09l-26.5 15.4v6.83l-1.26-.73v-6.82c.01 0 26.5-15.4 26.5-15.4l1.26.72z"/><path class="st136" d="M483.05 224.49v6.83l-1.26-.73v-6.82l1.26.72z"/><path class="st135" d="M517.11 213.46l-26.5 15.4v6.83l-1.26-.73v-6.82c.01 0 26.5-15.4 26.5-15.4l1.26.72z"/><path class="st136" d="M490.62 228.86v6.83l-1.26-.73v-6.82l1.26.72z"/><ellipse class="st131" cx="519.03" cy="225.67" rx="3.79" ry="2.19"/><path class="st131" d="M488.96 208c1.48.86 1.48 2.24 0 3.1-1.48.86-3.88.86-5.36 0-1.48-.86-1.48-2.24 0-3.1 1.47-.86 3.88-.86 5.36 0zM507.08 225.37l12.88 7.43 2-1.15-12.88-7.44zM505.38 227.49l10.16 5.86 1.57-.91-10.15-5.86z"/></g></svg>