<svg version="1.1" id="Layer_1" xmlns="http://www.w3.org/2000/svg" x="0" y="0" viewBox="0 0 910.64 910.64" xml:space="preserve"><style>.st11{fill:#fff}.st41{fill:#f96315}.st775{fill:#bec1ca}.st776{fill:#b0b5be}.st788{fill:#8c8c8c}.st805{fill:#e9dcda}.st806{fill:#c1b1b0}.st807{fill:#5b5b5b}.st808{fill:#ed4141}.st810{fill:#f7b8a4}.st813{fill:#f86e6e}</style><path class="st11" d="M14.13 534.58l226.7 130.88 166.14-95.93-226.69-130.88z"/><path class="st775" d="M174.67 447.68c-.14 18.99 3.03 37.2 8.21 55.5 2.68 9.48 3.63 17.08 6.35 26.55 1.41 4.94 2.43 12.65 5.09 17.15 2.24 3.78 9.83 7.34 14.74 9.06 8.6 3.02 29.82 6.19 37.66 7.26a936.46 936.46 0 0046.58 5.2c32.62 2.82 65.83 3.78 99.38 4.1.52 0 .48.46-.06.48-33.48 1.02-63.09 2.16-95.79.48-22.23-1.14-37.73-2.17-53.82-3.6-22.9-2.04-39.56-6.16-48.55-9.92-12.22-5.1-12.52-16.89-13.45-20.26-3.1-11.12-5.42-23.54-7.38-34.83-3.66-21.03-4.78-36.43-.32-57.12.11-.51 1.37-.56 1.36-.05z"/><path class="st776" d="M240.83 673.76v-8.3l166.14-95.93v8.3zM14.13 542.88v-8.3l226.7 130.88v8.3z"/><linearGradient id="SVGID_2_" gradientUnits="userSpaceOnUse" x1="207.25" y1="481.699" x2="211.472" y2="481.699"><stop offset="0" stop-color="#449dab"/><stop offset=".124" stop-color="#377ea0"/><stop offset=".293" stop-color="#285c94"/><stop offset=".465" stop-color="#1d418a"/><stop offset=".639" stop-color="#152d83"/><stop offset=".816" stop-color="#10227f"/><stop offset="1" stop-color="#0e1e7e"/></linearGradient><path d="M207.75 481.22c.6-1.74 1.44-3.06 3.09-3.85.28-.14.76.1.61.47-.53 1.28-1.25 2.61-1.61 3.96-.34 1.29-.09 2.81-.8 3.96-.22.36-.73.44-1.03.13-1.17-1.2-.76-3.23-.26-4.67z" fill="url(#SVGID_2_)"/><linearGradient id="SVGID_3_" gradientUnits="userSpaceOnUse" x1="163.992" y1="604.542" x2="171.93" y2="604.542"><stop offset="0" stop-color="#449dab"/><stop offset=".124" stop-color="#377ea0"/><stop offset=".293" stop-color="#285c94"/><stop offset=".465" stop-color="#1d418a"/><stop offset=".639" stop-color="#152d83"/><stop offset=".816" stop-color="#10227f"/><stop offset="1" stop-color="#0e1e7e"/></linearGradient><path d="M171.38 601.83c.57-.01.76.77.29 1.06-1.19.72-2.45 1.34-3.57 2.15-1.08.77-1.88 1.72-3.14 2.19-.56.21-1.08-.41-.93-.93.73-2.78 4.73-4.45 7.35-4.47z" fill="url(#SVGID_3_)"/><linearGradient id="SVGID_4_" gradientUnits="userSpaceOnUse" x1="36.925" y1="531.732" x2="40.363" y2="531.732"><stop offset="0" stop-color="#449dab"/><stop offset=".124" stop-color="#377ea0"/><stop offset=".293" stop-color="#285c94"/><stop offset=".465" stop-color="#1d418a"/><stop offset=".639" stop-color="#152d83"/><stop offset=".816" stop-color="#10227f"/><stop offset="1" stop-color="#0e1e7e"/></linearGradient><path d="M39.51 526.2c.29-.32.88-.07.86.35-.09 1.75-.71 3.45-.87 5.21-.15 1.64.17 3.39-.3 4.98-.21.7-1.31.96-1.67.22-1.42-2.91-.14-8.41 1.98-10.76z" fill="url(#SVGID_4_)"/><linearGradient id="SVGID_5_" gradientUnits="userSpaceOnUse" x1="39.515" y1="539.119" x2="46.867" y2="539.119"><stop offset="0" stop-color="#449dab"/><stop offset=".124" stop-color="#377ea0"/><stop offset=".293" stop-color="#285c94"/><stop offset=".465" stop-color="#1d418a"/><stop offset=".639" stop-color="#152d83"/><stop offset=".816" stop-color="#10227f"/><stop offset="1" stop-color="#0e1e7e"/></linearGradient><path d="M39.93 540.22c.95-.71 2.19-1 3.22-1.63 1.02-.63 1.77-1.56 2.78-2.18.5-.31 1.03.2.93.71-.51 2.56-4.15 5.14-6.71 4.74-.86-.13-.76-1.23-.22-1.64z" fill="url(#SVGID_5_)"/><linearGradient id="SVGID_6_" gradientUnits="userSpaceOnUse" x1="146.532" y1="467.495" x2="157.942" y2="467.495"><stop offset="0" stop-color="#449dab"/><stop offset=".124" stop-color="#377ea0"/><stop offset=".293" stop-color="#285c94"/><stop offset=".465" stop-color="#1d418a"/><stop offset=".639" stop-color="#152d83"/><stop offset=".816" stop-color="#10227f"/><stop offset="1" stop-color="#0e1e7e"/></linearGradient><path d="M147 467.28c2.92-1.43 7.39-1.73 10.53-.99.55.13.56 1 0 1.12-1.72.37-3.49.45-5.22.76-1.6.29-3.2.8-4.82.91-.94.07-1.34-1.38-.49-1.8z" fill="url(#SVGID_6_)"/><linearGradient id="SVGID_7_" gradientUnits="userSpaceOnUse" x1="140.256" y1="473.964" x2="145.35" y2="473.964"><stop offset="0" stop-color="#449dab"/><stop offset=".124" stop-color="#377ea0"/><stop offset=".293" stop-color="#285c94"/><stop offset=".465" stop-color="#1d418a"/><stop offset=".639" stop-color="#152d83"/><stop offset=".816" stop-color="#10227f"/><stop offset="1" stop-color="#0e1e7e"/></linearGradient><path d="M140.31 469.67c.07-.47.67-.4.89-.12.88 1.15 1.37 2.68 2.09 3.95.68 1.2 1.76 2.37 2.04 3.73.17.86-.73 1.74-1.57 1.21-1.37-.87-2.01-2.59-2.57-4.06-.55-1.44-1.11-3.15-.88-4.71z" fill="url(#SVGID_7_)"/><linearGradient id="SVGID_9_" gradientUnits="userSpaceOnUse" x1="241.21" y1="646.99" x2="244.238" y2="646.99"><stop offset="0" stop-color="#449dab"/><stop offset=".124" stop-color="#377ea0"/><stop offset=".293" stop-color="#285c94"/><stop offset=".465" stop-color="#1d418a"/><stop offset=".639" stop-color="#152d83"/><stop offset=".816" stop-color="#10227f"/><stop offset="1" stop-color="#0e1e7e"/></linearGradient><path d="M241.29 650.76c1.11-2.64 1.75-5.55 1.44-8.43-.05-.47.68-.54.81-.11.91 3.07 1.01 6.07-.19 9.11-.5 1.28-2.58.69-2.06-.57z" fill="url(#SVGID_9_)"/><linearGradient id="SVGID_11_" gradientUnits="userSpaceOnUse" x1="229.237" y1="649.343" x2="238.094" y2="649.343"><stop offset="0" stop-color="#449dab"/><stop offset=".124" stop-color="#377ea0"/><stop offset=".293" stop-color="#285c94"/><stop offset=".465" stop-color="#1d418a"/><stop offset=".639" stop-color="#152d83"/><stop offset=".816" stop-color="#10227f"/><stop offset="1" stop-color="#0e1e7e"/></linearGradient><path d="M229.39 650.06c1.49-2.39 5.82-3.35 8.41-2.8.34.07.41.6.1.75-1.24.62-2.54 1.08-3.8 1.67-1.2.56-2.27 1.57-3.56 1.87-.84.19-1.64-.71-1.15-1.49z" fill="url(#SVGID_11_)"/><linearGradient id="SVGID_13_" gradientUnits="userSpaceOnUse" x1="345.303" y1="586.838" x2="356.135" y2="586.838"><stop offset="0" stop-color="#449dab"/><stop offset=".124" stop-color="#377ea0"/><stop offset=".293" stop-color="#285c94"/><stop offset=".465" stop-color="#1d418a"/><stop offset=".639" stop-color="#152d83"/><stop offset=".816" stop-color="#10227f"/><stop offset="1" stop-color="#0e1e7e"/></linearGradient><path d="M346.28 584.7c1.6.24 3.01 1.32 4.6 1.74 1.59.42 3.22.37 4.82.72.51.11.61.89.15 1.13-2.82 1.49-8.83.56-10.43-2.45-.35-.65.2-1.24.86-1.14z" fill="url(#SVGID_13_)"/><linearGradient id="SVGID_15_" gradientUnits="userSpaceOnUse" x1="336.777" y1="586.698" x2="340.774" y2="586.698"><stop offset="0" stop-color="#449dab"/><stop offset=".124" stop-color="#377ea0"/><stop offset=".293" stop-color="#285c94"/><stop offset=".465" stop-color="#1d418a"/><stop offset=".639" stop-color="#152d83"/><stop offset=".816" stop-color="#10227f"/><stop offset="1" stop-color="#0e1e7e"/></linearGradient><path d="M337.33 580.85c.17-.56.94-.42.99.13.18 2.07.38 4.14.92 6.15.44 1.67 1.54 3.18 1.54 4.91 0 .59-.73 1.1-1.26.72-1.67-1.17-2.13-3.51-2.48-5.43-.41-2.18-.36-4.34.29-6.48z" fill="url(#SVGID_15_)"/><linearGradient id="SVGID_17_" gradientUnits="userSpaceOnUse" x1="174.256" y1="616.169" x2="182.178" y2="616.169"><stop offset="0" stop-color="#449dab"/><stop offset=".124" stop-color="#377ea0"/><stop offset=".293" stop-color="#285c94"/><stop offset=".465" stop-color="#1d418a"/><stop offset=".639" stop-color="#152d83"/><stop offset=".816" stop-color="#10227f"/><stop offset="1" stop-color="#0e1e7e"/></linearGradient><path d="M175.46 613.98c1.13.48 2.08 1.4 3.14 2.03 1.07.63 2.22 1.01 3.34 1.52.47.21.18.86-.24.89-2.43.18-6.12-1.08-7.33-3.34-.41-.76.38-1.4 1.09-1.1z" fill="url(#SVGID_17_)"/><path class="st788" d="M136.64 550.48c4.41-3.14 10.88-2.05 13.87-.4 2.49-2.15 6.17-3.66 12.12-2.16 3.92-3 10.36-3.27 13.67-2.59 5.22-3.16 10.69-2.8 15.56-1.31 3.32-1.3 8.46-3.64 15.94-.67 4.83-1.67 8.77-1.18 11.94-.03.94 2.37 1.82 4.76 2.62 7.17-6.06 1.44-9.87.6-15.23-2.05-2.66 1.24-10.85 2.17-15.45.02-6.9 3.6-10.65 1.22-16.23.45-3.63 1.14-7.11 3.65-12.69 2.88-4.08 3.43-9.88 3.17-12.69 2.6-2.55 2.78-9.33 3.47-12.66 1.39-6.41 4.27-9.11 5.41-9.93 3.02-1.56-4.54 4.32-8.2 9.16-8.32z"/><path class="st788" d="M212.92 546.54s2.94 7.95.47 14.77c4.75 5.06 5.4 9.75 1.51 15.15 1.37 5.49.47 10.13-4.09 15.91-.73 6.05-.72 10.47-3.31 14.69-2.59 4.21-6.22.43-5.57-2.74.66-3.16 6.2-10.19 6.09-12.86-2.02-2.33-.87-11.19 2.97-16.06-2.06-4.03-2.56-9.52.19-13.65-1.17-2.9-7.84-9.55-5.93-12.33 1.92-2.76 7.67-2.88 7.67-2.88zM231.22 541.91s9.61-.99 11.73-8.81c3.16-2.52 8.75-7.72 6.52-14.31 3.26-6.18-1.53-10.55-5.9-13.8-2.84-4.74-7.32-7-13.7-4.74-5.35-1.62-11.33 1.06-14 3.71-4.39-.72-8.61 5.56-7 12.77-5.87 5.87-2.63 15.01-2.63 15.01l5.24-1.65s2.33-6.67.22-12.77c5-3.67 5.75-7.07 5.75-9.95 6.15.1 8.41-1.13 11.96-3.71 2.6 1.19 7.47 4.12 12.62 3.91.82 5.05 3.44 8.52 4.84 10.81-2.78 2.79-6.8 9.43-6.03 13.29-5.05-.21-9.08 4.36-11.43 5.77-4.24 2.52 1.81 4.47 1.81 4.47z"/><linearGradient id="SVGID_19_" gradientUnits="userSpaceOnUse" x1="160.55" y1="547.034" x2="236.246" y2="547.034"><stop offset="0" stop-color="#ff7b0f"/><stop offset=".13" stop-color="#fe6514"/><stop offset=".384" stop-color="#fd411d"/><stop offset=".621" stop-color="#fc2724"/><stop offset=".833" stop-color="#fb1828"/><stop offset="1" stop-color="#fb1229"/></linearGradient><path d="M166.43 538.76c1.65-.92 4.89-3.98 5.44-5.23.98-1.76 1.43-2.4 3.1-3.58 3.71-2.62 8.85-2.65 12.82-5.07 3.75-2.28 6.93-5.72 11.67-5.51 4.82.21 7.86 4.92 12.37 5.37 2.87.28 5.81-.44 8.4.59 4.8 1.92 5.63 6.79 9.48 9.91 2.14 1.74 4.83 2.32 6.03 5.09 1.01 2.34.13 5.3.09 7.67-.06 3.41.46 6.21-.53 9.57-1.01 3.45-1.83 4.26-4.83 6.51-4.15 3.11-10.61 8.16-16 8.46-2.72.15-5.05-1.06-7.89-.52-2.76.53-3.43 1.82-5.87 2.36-6.4 1.41-11.07-2.67-17.34-3.37-4.44-.49-8.4.42-11.79-3.17-.98-1.03-1.52-2.36-2.17-3.59-1.85-3.47-3.58-7.82-6.3-10.67-4.92-5.2-2.19-11.73 3.32-14.82z" fill="url(#SVGID_19_)"/><path class="st11" d="M179.72 539.89c6.86-10.99 22.08-11.33 33.65-7.01 8.05 3 10.83 9.18 11.67 12.9 3.74 16.56-18.79 20.1-29.99 19.16-13.16-1.11-23.41-12.11-15.33-25.05zm16.6 22.79c10.09.7 30.63-1.92 26.16-17.17-3.66-12.47-25.17-15.36-35.12-10.18-6.5 3.39-10.82 12.98-6.73 20.01 3.1 5.34 10.13 6.95 15.69 7.34z"/><path class="st11" d="M188.97 544.15c-2.03-2.15-1.9-5.66.99-7.25 2.48-1.37 6.66-1.72 8.67.52.22-.89.75-1.66 1.64-2.18 1.6-.95 3.55-.57 5.19.05 1.46.55 2.84 1.29 3.34 2.87.28.89.22 1.76-.03 2.59 1.23-.3 3.01.32 3.95.71 2.59 1.08 4.85 3.16 5.18 6.06.62 5.38-5.76 7.65-10.18 6.03.25.89.27 1.83-.07 2.86-.69 2.07-2.69 3.2-4.78 3.37-2.05.17-4.57-.3-6.1-1.78-.5-.48-.82-1.08-1.03-1.71-2.91 1.63-9.16.37-10.6-1.97-2.29-3.73-.12-8.99 3.83-10.17zm.99-3.87c-.34 1.28.43 1.8 1.06 2.46.27-.51.55-1.01.94-1.51 1.39-1.78 3.76-2.57 6.27-2.61-2.17-1.45-7.55-1.01-8.27 1.66zm16.2-2.84c-1.39-.79-6.46-2.26-5.98 1.05.01.09-.05.14-.06.22 1.18.15 2.34.45 3.41.9 1.42.54 2.7 1.43 3.72 2.5.21-1.65.55-3.73-1.09-4.67zm9.86 11.14c.21-1.97-.92-3.64-2.47-4.73-1.2-.84-3.93-2.49-5.27-1.3-.16.14-.33.14-.48.08-.01.01-.02.02-.03.02.79.98 1.34 2.11 1.49 3.32.26 2.16-.55 3.9-1.91 5.22 2.97 1.06 8.22 1.56 8.67-2.61zm-8.92-1.18c.44-1.89-.18-3.38-1.33-4.48-2.14-.9-4.16-2.1-6.41-2.41-.9-.05-1.77.01-2.51.17-.1.02-.19 0-.26-.04-.09.02-.17.02-.25.04-2.95.78-4.43 3.8-4.1 6.61.3 2.57 2.21 3.88 4.64 4.53 3.47.93 9.25-.29 10.22-4.42zm-9 8.59c.83 1.04 2.52 1.23 3.74 1.24 1.46 0 3.02-.33 3.48-1.91.22-.76.17-1.78.02-2.72-2.27 1.25-5.08 1.76-7.43 1.49-.18.61-.39 1.18.19 1.9zm-11.56-4.22c.57 3.89 6.44 3.81 9.01 1.75-3.87-1.39-6.07-4.73-5.41-8.37-.92.51-1.89.96-2.58 1.77-1.08 1.26-1.25 3.29-1.02 4.85zM785.47 496.61L561.75 625.78 199.17 415.92l223.71-129.16z"/><g><linearGradient id="SVGID_21_" gradientUnits="userSpaceOnUse" x1="238.192" y1="365.584" x2="437.413" y2="365.584"><stop offset="0" stop-color="#449dab"/><stop offset=".124" stop-color="#377ea0"/><stop offset=".293" stop-color="#285c94"/><stop offset=".465" stop-color="#1d418a"/><stop offset=".639" stop-color="#152d83"/><stop offset=".816" stop-color="#10227f"/><stop offset="1" stop-color="#0e1e7e"/></linearGradient><path fill="url(#SVGID_21_)" d="M437.41 314.98L250.15 423.09l-11.96-6.9 187.26-108.12z"/><linearGradient id="SVGID_23_" gradientUnits="userSpaceOnUse" x1="267.99" y1="381.197" x2="461.695" y2="381.197"><stop offset="0" stop-color="#449dab"/><stop offset=".124" stop-color="#377ea0"/><stop offset=".293" stop-color="#285c94"/><stop offset=".465" stop-color="#1d418a"/><stop offset=".639" stop-color="#152d83"/><stop offset=".816" stop-color="#10227f"/><stop offset="1" stop-color="#0e1e7e"/></linearGradient><path fill="url(#SVGID_23_)" d="M461.7 329L274.43 437.11l-6.44-3.72 187.26-108.11z"/><linearGradient id="SVGID_25_" gradientUnits="userSpaceOnUse" x1="283.301" y1="390.036" x2="477.006" y2="390.036"><stop offset="0" stop-color="#449dab"/><stop offset=".124" stop-color="#377ea0"/><stop offset=".293" stop-color="#285c94"/><stop offset=".465" stop-color="#1d418a"/><stop offset=".639" stop-color="#152d83"/><stop offset=".816" stop-color="#10227f"/><stop offset="1" stop-color="#0e1e7e"/></linearGradient><path fill="url(#SVGID_25_)" d="M477.01 337.84L289.74 445.95l-6.44-3.72 187.26-108.11z"/><linearGradient id="SVGID_27_" gradientUnits="userSpaceOnUse" x1="298.612" y1="398.876" x2="492.317" y2="398.876"><stop offset="0" stop-color="#449dab"/><stop offset=".124" stop-color="#377ea0"/><stop offset=".293" stop-color="#285c94"/><stop offset=".465" stop-color="#1d418a"/><stop offset=".639" stop-color="#152d83"/><stop offset=".816" stop-color="#10227f"/><stop offset="1" stop-color="#0e1e7e"/></linearGradient><path fill="url(#SVGID_27_)" d="M492.32 346.68L305.05 454.79l-6.44-3.72 187.26-108.11z"/><linearGradient id="SVGID_29_" gradientUnits="userSpaceOnUse" x1="313.923" y1="424.689" x2="448.828" y2="424.689"><stop offset="0" stop-color="#449dab"/><stop offset=".124" stop-color="#377ea0"/><stop offset=".293" stop-color="#285c94"/><stop offset=".465" stop-color="#1d418a"/><stop offset=".639" stop-color="#152d83"/><stop offset=".816" stop-color="#10227f"/><stop offset="1" stop-color="#0e1e7e"/></linearGradient><path fill="url(#SVGID_29_)" d="M442.39 385.74l-128.47 74.17 6.45 3.72 128.46-74.17z"/><linearGradient id="SVGID_31_" gradientUnits="userSpaceOnUse" x1="346.904" y1="426.757" x2="540.609" y2="426.757"><stop offset="0" stop-color="#449dab"/><stop offset=".124" stop-color="#377ea0"/><stop offset=".293" stop-color="#285c94"/><stop offset=".465" stop-color="#1d418a"/><stop offset=".639" stop-color="#152d83"/><stop offset=".816" stop-color="#10227f"/><stop offset="1" stop-color="#0e1e7e"/></linearGradient><path fill="url(#SVGID_31_)" d="M540.61 374.56L353.35 482.68l-6.45-3.72 187.27-108.12z"/><linearGradient id="SVGID_33_" gradientUnits="userSpaceOnUse" x1="362.215" y1="435.597" x2="555.92" y2="435.597"><stop offset="0" stop-color="#449dab"/><stop offset=".124" stop-color="#377ea0"/><stop offset=".293" stop-color="#285c94"/><stop offset=".465" stop-color="#1d418a"/><stop offset=".639" stop-color="#152d83"/><stop offset=".816" stop-color="#10227f"/><stop offset="1" stop-color="#0e1e7e"/></linearGradient><path fill="url(#SVGID_33_)" d="M555.92 383.4L368.66 491.51l-6.45-3.71 187.27-108.12z"/><linearGradient id="SVGID_35_" gradientUnits="userSpaceOnUse" x1="377.525" y1="455.691" x2="532.244" y2="455.691"><stop offset="0" stop-color="#449dab"/><stop offset=".124" stop-color="#377ea0"/><stop offset=".293" stop-color="#285c94"/><stop offset=".465" stop-color="#1d418a"/><stop offset=".639" stop-color="#152d83"/><stop offset=".816" stop-color="#10227f"/><stop offset="1" stop-color="#0e1e7e"/></linearGradient><path fill="url(#SVGID_35_)" d="M525.8 411.03l-148.27 85.6 6.44 3.72 148.27-85.6z"/><linearGradient id="SVGID_36_" gradientUnits="userSpaceOnUse" x1="410.279" y1="463.347" x2="603.985" y2="463.347"><stop offset="0" stop-color="#449dab"/><stop offset=".124" stop-color="#377ea0"/><stop offset=".293" stop-color="#285c94"/><stop offset=".465" stop-color="#1d418a"/><stop offset=".639" stop-color="#152d83"/><stop offset=".816" stop-color="#10227f"/><stop offset="1" stop-color="#0e1e7e"/></linearGradient><path fill="url(#SVGID_36_)" d="M603.98 411.15L416.72 519.27l-6.44-3.72 187.26-108.12z"/><linearGradient id="SVGID_37_" gradientUnits="userSpaceOnUse" x1="425.59" y1="472.187" x2="619.295" y2="472.187"><stop offset="0" stop-color="#449dab"/><stop offset=".124" stop-color="#377ea0"/><stop offset=".293" stop-color="#285c94"/><stop offset=".465" stop-color="#1d418a"/><stop offset=".639" stop-color="#152d83"/><stop offset=".816" stop-color="#10227f"/><stop offset="1" stop-color="#0e1e7e"/></linearGradient><path fill="url(#SVGID_37_)" d="M619.3 419.99L432.03 528.1l-6.44-3.72 187.26-108.11z"/><linearGradient id="SVGID_39_" gradientUnits="userSpaceOnUse" x1="496.021" y1="540.34" x2="594.497" y2="540.34"><stop offset="0" stop-color="#449dab"/><stop offset=".124" stop-color="#377ea0"/><stop offset=".293" stop-color="#285c94"/><stop offset=".465" stop-color="#1d418a"/><stop offset=".639" stop-color="#152d83"/><stop offset=".816" stop-color="#10227f"/><stop offset="1" stop-color="#0e1e7e"/></linearGradient><path fill="url(#SVGID_39_)" d="M588.05 511.91l-92.03 53.14 6.44 3.72 92.04-53.14z"/><linearGradient id="SVGID_41_" gradientUnits="userSpaceOnUse" x1="511.331" y1="549.179" x2="609.807" y2="549.179"><stop offset="0" stop-color="#449dab"/><stop offset=".124" stop-color="#377ea0"/><stop offset=".293" stop-color="#285c94"/><stop offset=".465" stop-color="#1d418a"/><stop offset=".639" stop-color="#152d83"/><stop offset=".816" stop-color="#10227f"/><stop offset="1" stop-color="#0e1e7e"/></linearGradient><path fill="url(#SVGID_41_)" d="M603.36 520.75l-92.03 53.14 6.44 3.72 92.04-53.14z"/><linearGradient id="SVGID_43_" gradientUnits="userSpaceOnUse" x1="440.901" y1="492.281" x2="595.62" y2="492.281"><stop offset="0" stop-color="#449dab"/><stop offset=".124" stop-color="#377ea0"/><stop offset=".293" stop-color="#285c94"/><stop offset=".465" stop-color="#1d418a"/><stop offset=".639" stop-color="#152d83"/><stop offset=".816" stop-color="#10227f"/><stop offset="1" stop-color="#0e1e7e"/></linearGradient><path fill="url(#SVGID_43_)" d="M589.18 447.62l-148.28 85.6 6.44 3.72 148.28-85.6z"/></g><g><path class="st775" d="M336.08 668.03v12.78c0 16.78 25.58 30.39 57.13 30.39 31.55 0 57.12-13.61 57.12-30.39v-12.78H336.08z"/><path d="M393.21 639.55c-31.55 0-57.13 13.6-57.13 30.39 0 16.78 25.58 30.39 57.13 30.39 31.55 0 57.12-13.61 57.12-30.39 0-16.79-25.57-30.39-57.12-30.39z" fill="#dadde0"/><path d="M393 644.91c-22.91 0-41.47 9.88-41.47 22.06 0 12.18 18.57 22.06 41.47 22.06s41.47-9.88 41.47-22.06c0-12.18-18.57-22.06-41.47-22.06z" opacity=".5" fill="#ccbcbc"/><path class="st805" d="M393.21 648.68c-14.02 0-25.38 6.04-25.38 13.5s11.36 13.5 25.38 13.5 25.38-6.04 25.38-13.5c0-7.45-11.36-13.5-25.38-13.5z"/><path class="st806" d="M375.52 637.65v20.97c0 5.2 7.92 9.41 17.69 9.41 9.77 0 17.69-4.21 17.69-9.41v-20.97h-35.38z"/><path class="st805" d="M393 637.14c-10.46 0-18.94 4.51-18.94 10.07 0 5.56 8.48 10.07 18.94 10.07s18.94-4.51 18.94-10.07c-.01-5.56-8.49-10.07-18.94-10.07z"/><path class="st806" d="M393.21 629.71c-11.89 0-21.54 5.13-21.54 11.45 0 6.33 9.64 11.45 21.54 11.45 11.89 0 21.53-5.13 21.53-11.45 0-6.32-9.64-11.45-21.53-11.45z"/><path class="st805" d="M393 627.07c-10.46 0-18.94 4.51-18.94 10.07 0 5.56 8.48 10.07 18.94 10.07s18.94-4.51 18.94-10.07c-.01-5.56-8.49-10.07-18.94-10.07z"/><path class="st807" d="M393.21 524.95c-18.68 0-33.86 14.83-34.51 33.35-.03.19-.06.37-.06.58V559.61c.04 8.22.88 13.74 8.07 28.68 3.16 6.56 6.26 15.46 8.16 22.56 2.35 8.78 2.8 19.18 2.87 21.89.01.44.11 1.21.18 1.47 1.04 3.93 7.38 6.96 15.06 6.96 8.02 0 14.59-3.3 15.18-7.48.03-.21.05-1.56.05-2.23 0-3.93.66-12.94 2.72-20.62 1.9-7.1 5-16.01 8.16-22.56 4.03-8.37 6.06-13.78 7.08-18.36 1.03-3.28 1.6-6.77 1.6-10.4.01-19.09-15.47-34.57-34.56-34.57z"/><path class="st775" d="M391.86 554.41c-4.46 7.72-13.06 11.09-19.22 7.54-6.16-3.56-7.54-12.69-3.08-20.41 4.46-7.72 13.06-11.09 19.22-7.54 6.16 3.55 7.54 12.69 3.08 20.41z"/><path class="st11" d="M382.6 546.03c-2.68 3.21-6.75 4.22-9.1 2.26-2.34-1.96-2.07-6.15.61-9.35 2.68-3.21 6.75-4.22 9.1-2.26 2.34 1.95 2.07 6.14-.61 9.35z"/></g><g><path class="st808" d="M681.64 438.42c-.52.46-8.05 22.14-9.84 27.44-1.79 5.3-.85 8.8-.62 10.29.24 1.49 2.27-.36 3.22-3.58.96-3.22 11.15-33.92 11.15-33.92l-3.91-.23z"/><path d="M699.37 420.86s4.91 5.89 10.77.31c1.94-1.85 4.28-9.61 4.28-9.61s8.61-1.32 14.73-4.77c3.27 3.45 4.25 10.48 16.04 13.09 14.02 3.11 1.31-33.23 1.31-33.23l-32.07-1.79-20.29 22.26 5.23 13.74z" fill="#efa490"/><path class="st810" d="M682.13 429.25s9.26 3.85 15.27 0 6.89-18.8 6.89-18.8 6.42-1.17 9.58-5.01c3.17-3.85 5.35-5.86 5.35-5.86s6.98 3.6 14.4 2.62c1.31 2.62 7.42 15.27 13.53 19.64 6.11 4.36 16.79-32.84 16.79-32.84l-40.79-15.96s-24.87 5.38-26.18 6.8c-1.31 1.41-12.83 23.59-12.83 23.59l-2.01 25.82z"/><path d="M853.62 430.53c-13.67-4.9-25.23-10.66-31.54-16.16-11.43-9.96-25.7-26.95-39.14-38.13-8.07-6.71-14.07-11.9-18.99-14.84-10.25-6.11-15.87-1.5-20.34-2.62-12.16-3.05-16.09 2.87-20.56 7.02-6.22.08-19.8 1.38-23.51 6.54-5.62 7.8-23.69 19.34-25.14 29.4-1.43 9.92-2.32 20.63-4.8 30.66-.81 3.26-2.07 4.69.55 5.45.44.13 3.26-.01 3.71-.06-1.88 3.41-2.81 6.97-1.89 9.96 1.37 4.47 9.67 2.15 13.5 2.7 6.69.95 14.29-1.33 22.43 1.62 2.98 1.08 12.6 3.96 26.84 9.13 15.06 5.46 34.44 2.72 48.22-1.18 7.16 5.22 40.69 20.37 48.28 24.4 7.17-10.47 22.72-47.19 22.38-53.89zM714.1 392.8c10.47 4.25 20.19 2.6 20.32 2.52 2.29 4.58 7.9 11.76 8.81 16.3 1.58 7.87-1.92 11.21-8.51 14.24-8.02 3.69-22.47 4.12-27.49 3.6-8.33-.86-13.75-1.38-18 .98 1.5-3.74 5.17-11.35 4.15-20.84 13.55-3.93 16.79-9.76 20.72-16.8z" fill="#f8c8b6"/><path class="st810" d="M823.7 468.59c0 14.01 8.52 20.45 19.03 14.38 10.51-6.07 19.03-22.34 19.03-36.35s-8.52-20.45-19.03-14.38c-10.51 6.06-19.03 22.34-19.03 36.35zM791.88 433.84s-5.67 3.93-8.07 9.82c-2.4 5.89 0 11.35 0 11.35s.87-8.07 2.62-11.35c1.74-3.28 5.45-9.82 5.45-9.82z"/><path d="M685.45 439.73c-6.65.65-10.9 3.4-11.66 7.96-.76 4.55 6.76 2.77 11.06 2.51 1.1-4.44.6-10.47.6-10.47z" fill="#f5d8cc"/><g><path class="st41" d="M894.36 233.84c-.91-.82-1.46-1.48-2.69-2.56 1.2.07 2.41.09 3.61.06.41-.01.84-4.01-.51-5.72-1.63-.51-3.36-.87-5.08-.81.08-.17 1.73-2.3 2.45-3.21-.5-.72-1.24-1.27-2.06-1.76-9.36.33-18.49 5.55-27.64 11.49 2.23-3.82 4.56-8.04 6.56-11.65-.84.32-1.67.68-2.46 1.14-2.66 1.55-4.23 4.24-6.54 6.09.28-2.05.74-3.83 1.58-6.01-6.15 4.96-15.75 15.09-19.32 22.44-.8-3.61.6-9.41 2.16-13.45-3.49 2.54-6.92 5-9.96 8.24-3.5 3.74-5.9 8.04-8.83 12.19-.01.01-.02.01-.03.02.74-5.98 1.64-10.49 3.13-14.22-3.96 2.29-7.93 4.69-11.58 7.4-3.72 2.77-5.66 6.29-8.44 9.66.07-1.81.14-3.62.17-5.43-.8.07-1.89.4-3.15.87-6.72 10.16-11.91 24.17-13.53 29.26-3.3-5.16-1.97-12.47-1.4-16.25-5.32 7.73-9.24 17.14-11.86 29.29-2.98-1.66-4.71-18.92-3.27-23.3-8.27 11.72-14.27 23.73-16.7 38.12-2.72-10.58-.95-23.26 4.56-34.02-2.24 1.58-4.38 3.29-6.37 5.22-11.9 11.52-17.27 28.8-22.47 44.74 0-2.4.1-4.79.37-7.17.51-4.52 3.83-20.32 7.07-26.32-2 .57-4.75 2.35-7.75 4.85-7.55 16.97-6.46 36.13-1.55 53.65-5.21-4.89-9.71-16.83-10.32-26.69-5.12 11.61-7.23 23.64-5.28 36.59-5.62-7.56-7.74-18.73-6.39-29.84-.67 1.8-1.25 3.59-1.66 5.31-3.63 15.61-4.7 32.35-2.36 46.89-4.9-9.39-7.25-21.5-1.94-38.9.14-.45-.55-.6-.77-.23-11.29 19.55-7.53 34.69-2.69 50.33-2.35-2.64-9.87-25.18-9.59-33.97.01-.26-.34-.33-.41-.06-4.05 15.82 1.49 30.24 10.39 43.91.44.68 12.33 1.81 17.57 1 6.9-1.07 13.35-2.83 19.34-6.55 3.67-2.29 6.94-5.02 9.9-8.04-10.14.93-23.34-6.14-25.9-10.14 9.64-.49 19.72-1.37 28.81-4.25-7.11.69-17.53-4.78-21.04-6.32 12.48-.47 24.7-1.4 36.29-5.73.45-.82.9-1.63 1.35-2.45-2.62-.3-9.46-1.74-13.62-2.19 9.79-2.57 19.05-6.49 26.44-13.94 6.67-6.73 11.91-14.82 18.33-21.81.65-.71 1.38-1.47 2.13-2.26-8.49-1.82-22.59-4.7-28-6.02 11.3-3.25 22.97-4 30.34-3.86-6.91-2.9-16.37-4.03-22.33-5.95 8.47-2.68 22-4.06 29.91-1.64-4.65-3.61-9.72-6.48-15.06-9.12 7.78 1.52 17.9 3.69 25.44 7.27 2.1-1.87 3.65-3.2 4.22-3.62-.14-1.24-2.73-3.59-3.2-4.5.63.17 4.45 1.9 5.04 1.87 2.68-2.34 11.69-9.18 14.13-11.1.23-.19.49-.4.73-.59-9.07-2.36-18.95-6.81-26.05-9.17 9.85-.25 21.32-.34 30.22-.99-6.43-2.54-13.57-6.28-18.93-9.22 11.57-.7 22.98 1.83 34.48 1.01 2.66-2.71 4.64-4.84 5.34-5.71-1.66-1.8-3.31-3.61-4.97-5.41 8.67 1.68 17.67-.62 24.44-6.49 3.33-2.96 6.19-7.08 7.2-10.27z"/><path class="st808" d="M846.76 269.9c-8.91.65-20.37.74-30.22.99 7.1 2.37 16.98 6.81 26.05 9.17 6.07-4.9 14.3-12.85 19.72-18.37-11.5.82-22.91-1.71-34.48-1.01 5.36 2.94 12.5 6.68 18.93 9.22zM811.3 299.86c-7.91-2.42-21.44-1.04-29.91 1.64 5.96 1.92 15.42 3.05 22.33 5.95-7.37-.14-19.04.61-30.34 3.86 5.41 1.31 19.5 4.2 28 6.02 6.06-6.29 14.97-14.57 20.29-19.31-7.53-3.57-17.65-5.75-25.44-7.27 5.34 2.63 10.41 5.51 15.07 9.11zM730.46 365.7c3.5 1.55 13.93 7.01 21.04 6.32-9.09 2.88-19.17 3.75-28.81 4.25 2.57 4 15.77 11.07 25.9 10.14 7.47-7.61 13.01-17.11 18.16-26.44-11.59 4.32-23.8 5.25-36.29 5.73z"/><path class="st813" d="M825.62 250.3c2.93-4.15 5.33-8.46 8.83-12.19 3.04-3.24 6.47-5.7 9.96-8.24-1.56 4.05-2.96 9.84-2.16 13.45 3.57-7.35 13.17-17.48 19.32-22.44-6.45-.27-21.26 8.59-30.34 13.77-.83.48-1.67.96-2.51 1.44-1.49 3.73-2.4 8.24-3.13 14.22.01 0 .02 0 .03-.01zM890.07 219.83c-3.97-2.37-11.08-2.32-15.93-1.51-1.76.29-3.5.71-5.16 1.34-2 3.61-4.33 7.83-6.56 11.65 9.16-5.93 18.29-11.15 27.65-11.48zM758.97 305.73c2.43-14.39 8.43-26.4 16.7-38.12-1.44 4.39.29 21.65 3.27 23.3 2.62-12.16 6.53-21.56 11.86-29.29-.57 3.78-1.9 11.09 1.4 16.25 1.62-5.09 6.81-19.1 13.53-29.26-7.07 2.66-20.41 10.75-28.96 15.27-4.53 2.4-9.05 4.87-13.23 7.83-5.52 10.76-7.29 23.44-4.57 34.02zM717.21 356.57c-1.95-12.95.16-24.98 5.28-36.59.61 9.86 5.11 21.79 10.32 26.69-4.9-17.52-5.99-36.68 1.55-53.65-6.1 5.07-13.23 13.13-17.15 20.24-2.2 4-4.65 8.78-6.4 13.47-1.33 11.11.78 22.28 6.4 29.84z"/><path class="st808" d="M889.32 225.56c-45.04 13.34-84.9 42.58-117.23 75.99-16.87 17.44-32.04 36.49-45.73 56.52-10.41 15.23-21.42 31.49-29.99 48.35-.96 1.9-10.8 21.63-11.46 25.5 1.39-.19 1.9-.96 4.32-1.49.83-4.02 9.06-20.94 10.12-22.97 2.84-5.47 5.63-10.97 8.7-16.29a504.773 504.773 0 0119.9-31.8c13.16-19.38 27.74-37.83 43.9-54.8 33.37-35.05 72.59-61.08 117.64-78.6.26-.09.1-.49-.17-.41z"/><path class="st11" d="M721.74 311.28c.05-.11-.11-.18-.17-.08-5.79 9.79-11.81 21.61-7.79 33.16.06.16.31.1.29-.07-1.76-12.21 2.64-22.18 7.67-33.01zM727.88 335.6c-1.43-9.89-3.31-19.58-.42-29.44.04-.15-.21-.22-.26-.08-3.6 9.71-2.35 19.79.24 29.62.06.26.47.16.44-.1zM756.88 281.34c.18-.35-.38-.71-.6-.38-8.42 12.6-13.44 27.46-14.04 42.64-.01.35.49.45.55.09 2.6-15 7.09-28.81 14.09-42.35zM771.51 269.16c.07-.09-.05-.23-.14-.15-5.97 5.27-10.52 13.63-10.38 21.76 0 .24.33.2.39.01 2.32-8.16 4.87-14.82 10.13-21.62zM786.28 262.47c.09-.13-.09-.28-.2-.16-4.72 5.21-8.06 12.1-8.39 19.2-.03.57.78.72.89.14 1.41-7.14 3.48-13.17 7.7-19.18zM823.7 241.4c.05-.07-.04-.15-.11-.09-4.73 4.58-8.12 10.72-8.89 17.31-.02.14.19.21.24.07 2.16-6.34 4.72-11.89 8.76-17.29zM833.61 235.39c-2.42 2.43-4.99 5.66-5.53 9.14-.04.28.33.37.46.14 1.78-3.12 3.01-6.23 5.46-8.96.22-.24-.16-.54-.39-.32zM853.45 224.99c-3.64 2.35-7.18 5.8-8.69 9.96-.12.33.33.68.56.35 2.59-3.7 4.82-7.07 8.32-10.03.18-.14 0-.4-.19-.28zM878.79 219.81c-3.47.77-6.6 2.42-9.07 4.97-.16.17.1.45.28.3 2.72-2.1 5.63-3.81 8.86-4.99.16-.04.1-.31-.07-.28z"/><path class="st808" d="M734.54 389.93c-3.02.81-6.05 1.57-9.18 1.76-3.18.19-6.11-.36-9.23-.77-.77-.1-1.19 1.07-.4 1.36 5.94 2.19 13.63 1.24 18.98-2.05.17-.11.01-.35-.17-.3zM774.65 338.3c-3.57 1.16-7.16 2.2-10.93 2.48-3.76.29-7.43-.28-11.17-.5-.44-.03-.69.59-.23.79 6.96 2.99 16.23 1.53 22.68-2.12.37-.22.03-.78-.35-.65zM774.53 330.82c-5.8 3.41-12.37 3.91-18.93 3.27-.5-.05-.77.67-.26.88 6.71 2.77 14.04.7 19.49-3.74.26-.21-.01-.58-.3-.41zM828.85 281.51c-7.18-1.04-14.42-1.7-21.48-3.47-.23-.06-.39.3-.19.43 5.78 3.81 14.89 4.35 21.65 3.98.53-.03.54-.87.02-.94zM881.51 240.97c-5.12.65-10.02.14-15.13.11-.46 0-.55.72-.14.88 4.81 1.87 10.65 1.35 15.53.1.62-.16.36-1.17-.26-1.09zM716.73 365.42c-1.15-2.04-2.86-3.61-3.87-5.78-1.07-2.28-1.56-4.76-1.5-7.27.02-.81-1.21-1.05-1.28-.2-.35 4.65 1.19 11.96 5.97 14.08.54.24.94-.37.68-.83zM727.6 349.91c-.87-2.37-2.21-4.46-2.89-6.93-.74-2.66-1.14-5.42-1.53-8.15-.09-.62-1.02-.52-.97.1.41 4.8.64 12.1 4.6 15.53.39.34.95-.09.79-.55zM751.53 315.72c-.07-3.22-.27-6.44.26-9.64.54-3.22 1.79-6.16 2.85-9.23.07-.21-.19-.41-.35-.22-4.01 5.07-5.4 13.13-3.69 19.31.15.56.94.29.93-.22z"/></g></g><g><path class="st41" d="M616.24 482.75c1.85 4.53 7.11 7.8 11.34 11.8 2.96 2.8 4.65 5.71 4.81 8.79.08 1.65-.05 3.34-.74 4.88-.79 1.77-9.12 7.78-13.92 4.15-.72-.54-2.24-.26-1.75.35 1.48 1.85 3.84 2.02 6.15 1.99 5.68-.06 10.42-3.16 11.71-6.08 1.62-3.66 1.29-8.09-1.7-11.88-4-5.05-11.74-8.87-15.33-14.07-.15-.22-.66-.15-.57.07zM672.5 465.07c.41 2.83.81 5.39.43 8.18-.23 1.7.02 3.59-3.77 4.65-2.71.76-5.96-1.14-8.39-3.55-.94-1.27-1.94-2.36-2.71-3.02-.58-.49-2.02-.28-1.6.32.59.84 3.49 3.32 4.55 6.25.63 1.74.58 5.37-4.03 5.09-1.36-.08-3.41-1.2-5.34-2.49-1.34-4.47-4.55-9.8-10.56-10.87-1.79-.32-2.08.71-1.34 1.69 2.5 3.32 5.36 6.15 9.59 8.91.45 1.86.57 3.73.69 5.31.27 3.62-1.08 4.78-2.72 4.52-2-.32-5.13-2.62-5.72-3.31-1.28-1.47-2.35-2.96-4.75-4.29-.8-.44-2.02.03-1.39.59.71.63 2.44 1.81 3.82 3.27 1.35 1.43 1.29 3.09 1.15 4.71-.14 1.66.33 4.33-4.77 3.35-3.72-.71-7.93-5.82-9.66-7.75-.72-.81-2.19-.78-1.25.6 1.6 2.36 8.91 10.43 15.08 8.93 2.89-.7 2.58-4.16 2.63-5.71a7.32 7.32 0 00-.18-1.88c3.4 3.16 8.22 4.5 9.59.77.63-1.73.77-4.5.14-7.41 2.41 1.43 5.95 3.25 8.66 2.62 3.77-.88 3.5-4.02 2.01-7.09 2.26 1.42 4.85 2.36 7.41 1.84 6.65-1.34 4.84-11.04 3.64-14.28-.14-.41-1.27-.36-1.21.05zm-25.66 11.81c-1.65-1.42-5.9-5.42-5.29-5.77 1.38-.8 3.96 1.47 5.44 3.37.9 1.15 1.27 2.61 1.8 3.98-.84-.65-1.53-1.22-1.95-1.58z"/></g><g><path class="st807" d="M465.39 656.05v33.45c0 11.26 17.16 20.39 38.34 20.39 21.17 0 38.34-9.13 38.34-20.39v-33.45h-76.68z"/><path class="st775" d="M503.73 635.66c-21.17 0-38.34 9.13-38.34 20.39s17.16 20.39 38.34 20.39c21.17 0 38.34-9.13 38.34-20.39s-17.17-20.39-38.34-20.39z"/><path class="st807" d="M503.73 635.7c-13.41 0-24.29 5.78-24.29 12.92 0 7.13 10.87 12.92 24.29 12.92 13.41 0 24.28-5.78 24.28-12.92s-10.87-12.92-24.28-12.92z"/><path class="st775" d="M487.26 626.16v19c0 4.84 7.38 8.76 16.47 8.76 9.1 0 16.47-3.92 16.47-8.76v-19h-32.94z"/><path class="st807" d="M503.73 613.62c-10.48 0-18.98 4.77-18.98 10.65 0 5.88 8.5 10.65 18.98 10.65s18.97-4.77 18.97-10.65c0-5.88-8.49-10.65-18.97-10.65z"/><linearGradient id="SVGID_45_" gradientUnits="userSpaceOnUse" x1="489.887" y1="622.537" x2="517.568" y2="622.537"><stop offset="0" stop-color="#ff7b0f"/><stop offset=".13" stop-color="#fe6514"/><stop offset=".384" stop-color="#fd411d"/><stop offset=".621" stop-color="#fc2724"/><stop offset=".833" stop-color="#fb1828"/><stop offset="1" stop-color="#fb1229"/></linearGradient><path d="M503.73 615.17c-7.64 0-13.84 3.3-13.84 7.36 0 4.07 6.2 7.36 13.84 7.36s13.84-3.3 13.84-7.36c0-4.06-6.2-7.36-13.84-7.36z" fill="url(#SVGID_45_)"/><path class="st11" d="M477.22 643.85c-3.11.72-5.74 3.44-7.33 5.99-1.47 2.35-3.19 7.28-1.37 9.88.37.52 1.12.32 1.17-.32.3-3.38.82-6.06 2.76-8.95 1.5-2.23 3.16-3.75 5.29-5.87.34-.34.02-.85-.52-.73zM469.14 668.27c-.03-.12-.19-.11-.22 0-1.26 4.03-1.45 21.66-.53 25.83.09.42.79.44.87 0 .81-4.19.91-21.74-.12-25.83z"/><path d="M516.39 634.07c-.95.71-2.03.83-3.06 1.32-.15.07-.13.3 0 .38 1.16.67 2.67.02 3.64-.7.59-.45.01-1.45-.58-1z" fill="#382323"/></g></svg>